<mxfile host="app.diagrams.net" agent="Mozilla/5.0 (Windows NT 10.0; Win64; x64) AppleWebKit/537.36 (KHTML, like Gecko) Chrome/132.0.0.0 Safari/537.36 Edg/132.0.0.0" version="26.0.9">
  <diagram name="Page-1" id="kk3Hs2FtdUTOF7JTyD10">
    <mxGraphModel dx="2137" dy="542" grid="0" gridSize="10" guides="1" tooltips="1" connect="1" arrows="1" fold="1" page="0" pageScale="1" pageWidth="850" pageHeight="1100" background="#ffffff" math="0" shadow="0">
      <root>
        <mxCell id="0" />
        <mxCell id="1" parent="0" />
        <mxCell id="VDSIXk6-y_P9sWDttT4S-1" value="" style="rounded=0;whiteSpace=wrap;html=1;" parent="1" vertex="1">
          <mxGeometry x="-165" y="665" width="1349" height="898" as="geometry" />
        </mxCell>
        <mxCell id="VDSIXk6-y_P9sWDttT4S-2" value="" style="rounded=0;whiteSpace=wrap;html=1;dashed=1;shadow=0;" parent="1" vertex="1">
          <mxGeometry x="-110" y="934" width="140" height="450" as="geometry" />
        </mxCell>
        <mxCell id="VDSIXk6-y_P9sWDttT4S-3" value="Data Source" style="text;html=1;align=center;verticalAlign=middle;resizable=0;points=[];autosize=1;strokeColor=none;fillColor=none;fontStyle=1" parent="1" vertex="1">
          <mxGeometry x="-83" y="904" width="90" height="30" as="geometry" />
        </mxCell>
        <mxCell id="VDSIXk6-y_P9sWDttT4S-4" value="" style="rounded=0;whiteSpace=wrap;html=1;dashed=1;strokeColor=light-dark(#c0c0c0, #ededed);" parent="1" vertex="1">
          <mxGeometry x="87" y="836" width="820" height="630" as="geometry" />
        </mxCell>
        <mxCell id="VDSIXk6-y_P9sWDttT4S-6" value="&lt;font style=&quot;color: rgb(0, 0, 0);&quot;&gt;&lt;b style=&quot;&quot;&gt;Bronze&lt;/b&gt;&lt;/font&gt;" style="rounded=1;whiteSpace=wrap;html=1;fillColor=#f8cecc;shadow=0;strokeColor=#b85450;glass=0;" parent="1" vertex="1">
          <mxGeometry x="142" y="871" width="170" height="50" as="geometry" />
        </mxCell>
        <mxCell id="VDSIXk6-y_P9sWDttT4S-7" value="" style="rounded=1;whiteSpace=wrap;html=1;strokeColor=#36393d;fillColor=#eeeeee;sketch=1;curveFitting=1;jiggle=2;" parent="1" vertex="1">
          <mxGeometry x="403" y="934" width="175" height="490" as="geometry" />
        </mxCell>
        <mxCell id="VDSIXk6-y_P9sWDttT4S-8" value="&lt;font style=&quot;color: rgb(0, 0, 0);&quot;&gt;&lt;b&gt;Silver&lt;/b&gt;&lt;/font&gt;" style="rounded=1;whiteSpace=wrap;html=1;fillColor=#eeeeee;strokeColor=#36393d;" parent="1" vertex="1">
          <mxGeometry x="405" y="871" width="170" height="50" as="geometry" />
        </mxCell>
        <mxCell id="VDSIXk6-y_P9sWDttT4S-9" value="" style="rounded=1;whiteSpace=wrap;html=1;fillColor=#fff2cc;strokeColor=#d6b656;sketch=1;curveFitting=1;jiggle=2;" parent="1" vertex="1">
          <mxGeometry x="670" y="934" width="175" height="490" as="geometry" />
        </mxCell>
        <mxCell id="VDSIXk6-y_P9sWDttT4S-10" value="&lt;font style=&quot;color: rgb(0, 0, 0);&quot;&gt;&lt;b&gt;Gold&lt;/b&gt;&lt;/font&gt;" style="rounded=1;whiteSpace=wrap;html=1;fillColor=#fff2cc;strokeColor=#d6b656;strokeWidth=1;perimeterSpacing=0;" parent="1" vertex="1">
          <mxGeometry x="672" y="871" width="170" height="50" as="geometry" />
        </mxCell>
        <mxCell id="VDSIXk6-y_P9sWDttT4S-11" value="" style="shape=image;verticalLabelPosition=bottom;labelBackgroundColor=default;verticalAlign=top;aspect=fixed;imageAspect=0;image=data:image/png,iVBORw0KGgoAAAANSUhEUgAAAgAAAAIACAYAAAD0eNT6AAAACXBIWXMAAA7DAAAOwwHHb6hkAAAAGXRFWHRTb2Z0d2FyZQB3d3cuaW5rc2NhcGUub3Jnm+48GgAAIABJREFUeJzs3Xd4XNWZBvD33DJNGhX33jDGNsVgaiDEGExvAYKwBYEABtOSQNjAZhMS724KIdkkkBBiTI+xjULvEMA00wzYFIN7lS13tem3nP1DBlwkzUiaW2b0/p5Hz2btO/e8MtKcb849BSAiIiIiIiIiIiIiIiIiIiIiIiIiIiIiIiIiIiIiIiIiIiIiIiIiIiIiIiIiIiIionwSXgcgIiIqNM/MeCbSrDRHNaFFDWmUC4hyBUrUhh1VoESllGVQUCkgotKWUQERlUJGBUSFFLIMElEAUUhYEGgE8JYU8p/VU6tfdOt7YAFARESUhZRSzJ0590wI/ADAkQAG5OW+kBC7d8VvWLAuuuiKi2rzcf/2sAAgIiJqx6yZswapUP8J4DiXmtyoQv121RVVq51shAUAERFRGx6+5+GhilTeADDU5aY/b7Kbxk+bNs1wqgHFqRsTEREVsnnT52kKlEfgfucPAAeUKWVXO9kACwAiIqJW1A2quxASR3rVvpRympP3ZwFARETUCiGFox1w1vaFGPvQXQ/1cer+LACIiIj2UHNnTSmAw73OoQW0fRy7txM3vSY1b6RiKt+FEJMADEbLcokKJ9qi7JLSQsI20WRnsNaIYbURQ9w297oupKh2UGiZCNSGck1/NSqVPy7oU7XIg8hERJ4ywkYfxVIc6SM7QkppOXXvvH5zP0y+fqxtK7cKC0dzfYF/hIWKsKqipxrEcD2KCZBYY8TwbmIrdtjpr69L2ZaSghVqBPrVWbhQQFzYf9M/N/dFaNqifuc/5eG3QETkKtVQhVSk1zEABducunVeCoAbGt/pYWjmvdLGd9nv+5+AwHA9imHlUXyersfbyc2w5N4/6BISdWai7yYknhy6adbn/XQc837Pi5o8iExE5KpGNK4rQ5kBQPcwRkYv1dc6dfMuzwH4UeqNfQ3dmg/gu3nIQy4SAA4MVuKc0qGItDPSJQGsNeMHrMxYteM3zz7ItYBERB6ZNm2aAYl5HsdYVVVV5dgjgC4VANc1zRttW+J9SDk6X4HIff20MM4rHYqQUNu9bpuVii63Ux8evOXhfV2KRkTkGanIu7xsX0Asd/L+nS4Abmh8pwcU9WkAlXnMQx4pVwM4rXQwVNH+Q5xmy9A3WMaC47bMK3UpGhGRJ6qnVj8pIJ73qn1b2P4sAAzNuAcC/CRYRAZoYRwe6pX1uq1Wuny93OjaiVVERF5RbKVaQHiyGkrYPhwB+GHy9WMBcU6+w5D3Dgn2RFTJPudljRE/ZnzjY0e5EImIyDNV06oalYxyLAQegIC7ywIU+K8AgK38Ns85yCdUIXIaBbAgsT2VfMD5REREHuuNJIDNkO4ucFct1V8FwA9T8/eRwLedCEP+sG+gLOtcAADYaKZGHVz/BDd4IqKiVXNnTanVZD0OiZtdbjr5Rd0XtU420PERANPkcr8ipwsFg7SSrNcZ0hJmJvNjFyIREbnu4X88vK8VsN6DxFluty0gVkyfPt12so0OFwBS4AQngpC/DM6hAACABEzXfzGIiJz28MyHT1NV9QMA+3vRvoR0dPgf6NQcADEk/zHIb3KZCAgAadh9HY5CROQaKaWYc/ecmxUoz0hIzx5xSshlTrfRma2AB+Q9BflOSY5nYKRtu8zhKERErpg1a1bZ3HvmPgABz1e5CeHsEkCgcwUAJ311A0Elt8GhjLSDDkchInLc3HvmHiBT8nHAJ/vbSGeXAAKdWwbI8366ASH5n5mIuoe5M+eeLW05H9InnT8AVXN2CSCQ5+OAiYiICkVNTY1qNpq/k5D/AeGfD7cSsrnq0qpNTrfDAoCIiLqdh+56qI/VaM0SECd6nWVPTh8C9BUWAERE1K3Mnjn7eAHxMIB+XmdpjYT80o12WAAQEVG3UFNTo1qN1i0AbkEXDsPLwXYAEkD2fdVbI/BWXtO0wcl/ACIiIl+YNXPWIKvRmgfgV3C271smpDhaSHFfJ1+f0BTt8bwmagMLACIiKmqP3P3IJBXqhwCOdbQhiZdTWurIyVdOXmZL+w9oGQno6D1ur7qsamv+w+2NBQARERWledPnaXPvnvt7W9gvA3B011Ip5O39NvY7/dJLL20AgOpp1dts2BcDMHK+icDbTbLpV05l3BMLACIiKjpz7pozbNPATW9IIW+Cs/vXJIQUF1VPrb5+4vSJ5q5/ceEVFz4vhTwPQH0O93lWTaunTps2LfeCoYt8OQmwTOoYb/fEKLsMFVJHxJ8xfUMCiAsD20UaS0UTPlK3Iw1HD5EiIvKtuffMPV9KOQNApcNNrRdSnDf5yskL2rqgemr1MzV31Rxo6uZPhRQXt5LpHSHEXyZPnfwvZ6PurcNV0XXxN6UTQYCWMEfbfXCc1Q86d6LrtDhMvKBtwOdKQ6fv0WBlMKtpZdbrypRApmnApdwOmIg8VzOjptxUzDsFxIUuNPe6YRoXXHz1xVtyfcH06dOVUQNGjVGh9reklQKwpHpa9TYHM7bLVwXAmeYgHGr3dOr23YoE8JK6Ee+pnZtLwgKAiArJnHvmnACJBwAMcrgpCYHb1DL151VVVZbDbTnKN2PrR1i92PnnkQBwktUfm5UkVouY13GIiBzx/B3PBxsjjf8NiZ/C+XltMQCXTpk65VGH23GFLwqAMFRMtHy5IVNBUyBwijkA/9CXwalhG1VIVa696VaHbr83KVVYVglMKwrbHAhph1u/ThgQog5SrISGh8R+f1viWkYicsXsu2fv3ySaZkHiYMcbE1gubXlO9ZXVix1vyyW+KADG2hUIQ/U6RlHqK8MYYpdgrRJ35P6KlCogbnbk5q0RAtAUQNNbnnNYJpBJA+k00FaZY+Jn8rNpTdC0lxDSrxTD/9L5yRFE5Lnp06crowaOukFA/EZCOv4IUkjxpBk2L7nooouanG7LTb4oAPaxo15HKGrDZRRr4UwB4CkBQNNavkJhIJloKQb2JAFYVhks63wYxjnyy2vuxei/XyMEl0oQFZqH73t4hGIp9wI4zoXmTEj84oIrLrhNCOHY/Dev+GIfgHKpex2hqFV0h39fRQFKSlu+RDtzW21bQzozDYuvWiuX3ti5fbqJyHXTp09X5s6ce6ViKZ/Cnc5/nVTkd6ZcOeX3xdj5Az4pAIjyJhAEomWAkmWBi2kOQjq2Vq68dpQ7wYios+bOmLvPqIGj5knIGQBKXGjyKduwD66+vPpdF9ryjC8eATQKAwOLsr7yh0bh2sZS/qBqQEkZ0NyENucFAIBtRZDAArn4moFi/79zqQSRz0yfPl0ZPXD0VAn5ZwERcaHJtJDi5guuuOCOYv3UvytfjACsVJq9jlDUVolu+O+raUAkh/cLyyqDxHvOByKijqi5r2bsfgP3e3fnp343Ov+1AuK4yVdOvr07dP6ATwqAL5QGJFHQ+yn41haRxHol4XUMbwRDLasFsjEz+8svf3iF84GIKJsZM2boc2bO+S/Lsj4GcIRLzdZYYeugyVdM7lYfBnzxCCAJC/PUTTjNGuh1lKIiAbyobYTt2C4ABSAcBppzeARiGH8AMNPxPETUpkfueeQYW9r/AHCAS00mIHHjlCun/MOl9nzFFyMAAPCBug0fKR0/OplaJwH8W92IVd19F0BNb3kckI1tlssvf3SJ84GIaE/3339/xZyZc263pf0m3Ov8P1QVdXx37fwBHxUAAPCsVotX1DqYXJ7dJQmYeExdi3c6eQ5A0dEDuV1nmVc6G4SI9jT3nrnnh8zQEgA/gjt9kg3gDrVcPabq8qqlLrTnW754BPAVCeBtdQs+U+pxmN0L+9pRVMoggv6qU3wpARPblTSWKE34SNmOFOdUfEMPtGwSlI20DnU+DBEBLRv6CEv8XUp5sovNrlWEcvEFUy9408U2fctXBcBXGoWBV9U6vKrWeR2FioGituwamG0qhG0F5eLzA2L/f2XciEXUHc2YMUMvF+XXSEv+Bu6s6f/Kv1Ja6spLL72UW4Hv5MsCgCivBAChADLLoyUJINBvfwALXUhF1O3Mnjn7RAFxh4Qc7WKz26WU06qvrH4sXzf8/dtygAjgJCnRt7W/twA1ZqBf3MAI2LsNYVsK8DkM/OHPp4gd+crTWSwAqHsQCpDL3BJLsgAgyrOamTXDLVj/B+AcVxuWeBkqLq2+vHpjPm43XUol/L49XQh5MyQCbe03qgGo0IGwAmyIC6TM3f76DE3Im65/Vf7PX04Q/52PXJ3Fh+vUPbR3PsCupGj9eGEi6rCaP9WE58ycM92C9QXc7PwlmoQU1y/duPTUKZdPyUvnDwAlH9i/FULcAiCnmcVBFRgalQjscditKYXSkMH0n7wqr89Xts7gCAAREeXd7Htmn2nBugMSw1xtWOJlVapXVE2rWpfP2/7uHTlSQv5HR1+nCqBPWKI2tveHkJiJWwH8JR/5OoMFABER5U3NvTX7mbZ5u5DCzdn9ANAoIG664IoLZjqxla+i4WxIqNmv3Fs00Po85IyN4E/nyVP+MFG82PWEHcdHAERE1GUPPvhgz7kz595h2dbnAu52/gLieQvWAZOvmHy3U/v4C9iDO/9aQGujt7WAcZ29b1dxBICIiDqtpqYmYDfYVyOD6RKywuXmWz71T3XmU/+uhITqSAMyt/kETuAIABERdZiUUsy9Z+75VqP1pRTyL653/gIvOP2pv9hxBICIiDpk9r2zvzX3nrl/BHC0B81vEhA3T546+SEP2i4qLACIiCgnNffW7GfZ1v/CxvkeNC8hMSsTzNxwySWX8OS4PGABQERE7Zo1c9YgFeotlm1dBi/6DYlPhBBXTb5y8nuut13EWABQFylIBI/P8z0NqLIZurkait2Y53sTUa4efPDBngEj8FNI/AiAF5tkJQD8Qa1Qf1tVVcUzOvKMBQB1kUAyeJRjd9fNNYikX4VmbXasDSLaXc2dNaWWbl2LDH4GoNyTEBLPwcJ1U66essaT9rsBFgDka4Y2DE3qJShJvYCg8ZnXcYiK2kMPPVSiZbQfWdL6KYBKj2JskFL+OJ+H91DrWACQ70mhIRY+A0KmEDCXex2HqOjU1NQE7Eb7BzItpwPo71EMA8BdVti65aKLLmryKEO3wgKACoRAPHw69NjfISQfBRLlw/333x8KmaHLrUbrZgCd3umuyySes237hguvupAVvotYAFDBsEUEqcB4hNOcCEzUFc/f8XywKdx0iTTlLwEM9DDKCiHFDZOvnPyshxm6LV8XAAJAidShI8ejXLuxjLARh5n9wgKX0fZjAUDUSQ899FBJIBWY2igab4Z3Q/3Aztn9KS1166WXXpryMEe35ssCYKhdgiPt3hgpowhI7lacqwRMLFWa8I66FVtFcf5OWWofryMQFZyaO2tKbd2+XKblf0oh+3kc51nVVq/N93G91HG+KgA0qeAMayAOtnt4HaUgRaDhELsHxtmVeFPdgjfUTXsdP1noJHRAqIC0vI5C5HuzZ8zuBYEf2sL+kQcH9ezpA2nLG6unVb/tcQ7ayTcFgAqBanM4RshSr6MUPAUCx1l9UQINz6m1XsfJKyFT7PyJsphz15xh0HADgKkAItLbjwLrBcSvl2xYcs/06dNtL4PQ7nxTAEy0+rHzz7PDrZ5YL+L4VKn3OkrecEMgorbNvXfuOGnJGyEwBd6/v9dD4vcpPXV7R57z/zD55gQpMRUSBwKItnZN0jLVOjMZ/NTYUdZoGzoACClkUFESFSKwoMLE5QsGTlmfp++jaHn9AwIAKJM6jrJ6eR2jKE2y+mOx0ggLxVF4B4wlXkcg8p3ZM2Z/WyjiZmnL0yE8nzVtALhfVdVfVF1WtbUjL7wu8ebvpY2bsl0XVjWMUKMYGijFq4k6LMvs3DLcRmArUieWKNqqg3c89t1FPc57rlPfQTfhiwLgAFkJDZzs54QyqWOEXYLlSrPXUbpMsRsRND/xOgaRL8yYMUMvF+XnSSF/CmC813kASAA1tmr/14WXXbiqoy++LvbWpZAya+e/K1UInBDpjx1WGtusbwYZ4raprUw3PnHk9lm93u/JTYXa4osCYJhd4nWEojbUjhZ+ASAtlCafgZDFv9SRqD2zZ8zuBRVXCCmukZCDvM4DAFLKeUKKn02ZNuX9Tt9EyFs68zJVCBwa6omX4ht2+/Nmy9BjVumf0DIPglrhiwIgKnWvIxS1cn/8Z+40IVOIJp6EbnHVEHVfNffW7GfZ1jUApkIi4nWenT6QQv66+orqZ7pykx8m5g2SEsM7+/oBWusHFTZJ49hOh+oGfNEzGMJG0a1X85FMgT7/F9JEwPwSkfQbUGyO4lH3M336dGXMgDHH28L+sWVbpwOeP98HAEgpv1AUZfoFl1/wqBCiy+/e0lYqu/KdBYXa6p9b0m51EiG18EUB0IAMhoCPAZzSIJzcO99GJP1aXu8o7DQU2QTdWs99/6lbevjvD1eqmnqpFPJaG/YIr/N8TWC5lPJXyzYue2T69On25KmTvU5EXeCLAmCZaMJBnp08WfyWK05+epbcmpcoTx6e+fChCpQrAVwoIf30qahWQPxv39q+902cPpETcYqELwqAJUoTGm0D5ZwLkHdrlRg2Fem2wETFoObOmlI7YFdLyKsAHOJ1nj3USilvq0hV3H3aj05Lex2G8ssXBYApbLygbsAF5jB/POAqEoaw8by60esYRNSK2TNmjxaq+IElrSsA+G3/83VCij8l9eQMHtZTvHxRAADAEqUR/1Y34kRrAIuAPDBh4zF1HTaLpNdRiGinmjtrSq2gVQWJywAc48PJzysh8Nsmq+mf06ZNM7wOQ87yTQEAAO+oW7FDZHCqNZCPA7pgk0jhGW09NoiE11GICN882zdhThFS+HFm+ioB8fu+G/iMvzvxVQEAtIwErBDNGG2XYZQsQyUCKGUx0C4bEnFhYCvSWKI0YYXS5MMPFkTdy5x75wwQtrhYQl4KYBQAH+zSu5fPhRS/WbJxSQ0P6ul+fFcAAC1zAj5XG/A5GryOQkSUs+fveD7YEGo4Q0BcChunSMjWF6h7TeBtCXnblMunPJuPdfxUmHxZABARFZKdQ/wXN6KxWkD49WQzG8DzilBuvWDqBfMBoHpqtceRyEssAIiIOmHuzLljJOQFAC4CsI/XedqRgcQjqqbeWnVZ1RdehyH/YAFARJSj2TNn9xVCVEPiIgnphxP42tMopJhhSOMv35/2/Tqvw5D/sAAgIsri/vvvrwgb4Vsl5A8gEfQ6TxarhBR3mhHznosu4lG41DYWAERE7Zh799xR0pQvSiE7fVqdG6SU86DgjmW1y57mjH7KBQsAIqI2zJ4xu5dU5EuQGOZ1ljYkBcTDNuy/Vl9Z/anXYaiwsAAgImqDUMStPu38a6WQf4eFmVOmTdnmdRgqTCwAiIhaUXN/TT/LtC7xOscupJTydQD/aJbNT3CrXuoqFgBERK0wLfNsAeGH98h6AfGgbdszqqdVL/E6DBWPzvxw2wCUfAchf5E5bg7mw61NifJC2OIAT3+8Bd6HjX+oMfWRqp9U5eVUL7nh54NhmjdCiokQsrTdiy1LRyYdRSZdAggAUkJRtkDT/yBG//WOfOQhb3WmANgGoE++g5C/JO3cJhGXOZyDyEMRD9pMQeJfUPDnKVOnLMznjeX6n06AaT4FoBy5FPiqCoQjgKYB8WZAArDtQTDN2+Xia84V+//9uHzmI/d1pgCoAwuAohe3c3u82EMpQVMkv9uJCpmCIpugm2ugW2sgJA8nI/cJIeqle8dqvQuJ+62I9YgTa/dl3c96I2M/DqC8wy/WA0AoAiR3OV3UyEyQX1x7mxh75035S0lu63ABIIA1EhjnRBjyj2Y7k9N1A9QoDG2YIxlSgSOg2I0oSb+KgMFHn+QuW9rvCuHoM4AdAB4Vivj75Msnf+JkQ0jb0yDQo9OvD4aAVAK71UOWeQ0AFgAFrMPP8iXwohNByF/WmvGcrjtDGeRoDlspR3P4XCRCxznaDtGeojL6AloeeeaTJSFfEUJUNdlN/aZcMWWa450/ACg4ukuvFwJQ9/i8aFklcvX1FV26L3mqwyMAqsw8YYnAneBEwKKVkhbqjOxzjsJCc7wA+EoycDQUuxmhzEeutEd05rQzE3Nnzv0/Cfm7PNxusRTyIU3VHqq6tGpTHu7XMbITQ/97Eq285SftQQDPbS9UHS4Abi+dtPm6+JsvADjdgTzkA19mGmHn8OxzYqAfAnDvuPNE6HgEjGVQZLNrbVL3ppQrfzAbzRMExKROvHyjFHKutOU/L7zywkV5D0fURZ37FC/lzwBY+Y1CfpCWNj5KZh/1DAoFv1MPcSHRNyR0pIJ+P4CNiklVVZWlNWtnAXgil+slZLOEfEhCnqSWq0Oqp1bfyM6f/KpTm1z8rXTCZ9fF37gXEFfmOxB564PUFqRk9trukuBIDBQlLiTaXUbbFxG84Xq71H3tXIN/7uy7Z1cJIW4EcMQel2QExCs27FlRO/rUmdPOTLRyGyLf6fQuV7GI/ePShDoOwJF5zEMeWplpxiep+qzXHaL3wK9Vbz6J26IHdm5K4kn71H1VX1ldA6Cm5q6agYZqHCAUERa22KLG1IX52qiHyE2dLgAeEBNT18XfPhew3wEwNI+ZyAObzST+ndiY9brBWgkeCx4PxaP+Vwq1ZTJSDqMURE6ourpqA4ANXucg6qouzeT/W8m3N2Ys6zBIjskWshWZJjwZWwtTtr/73yF6T7weOgVl0rvt0YVMsvMnIsqDLi/lu7ts4jZREjtZSPwJQG67x5AvZGBhfmIzXoxvgCHb/kgfgIpLgyPxUuBElEvdxYR7061aT9snIioWefko91dxWhrAjVen3rpTtfG/kPJcAKF83JvyLwMLS1KNWJDahmQ7n6YDUHFcoC9+rx2KwR5M+GtN0FjsdQQioqKQ17Hcu0LHrgJw4TVyXqmaVE+RUp4IiEEABgPoaA/SD3k4jCNmG7Db+XT7lcGwoOdpYpmEBltp/6AtN6WkhWZpoMHKYLnRhLVmDJYAQoqG0C4/AmGo6CECGKBEcJoyGN9ThiAk3Fvnn41m1XFLYCKiPHHkYe7fxcQYgEd3fnXKdfE3nwJwVldyfJlpwKvxuqzXfUfTcX96ORTkdgJeLpLBY5AITsjb/fJG3/lVYIRMojT5JJye/R+Pnvbb7fW//k9HGyFymRV/YIBqZZ/k21GNva55YXv9/3b50e9GIxGYEViej0jUAd7N5nLY0kwjXotn33HzaE3Ha+llUPLcsYTT8wFYSASPA3dN7hrV3oFo4lGodvYlil0lhd5LAr0cb4jIRdKp9yChDMrHO6fi7KFL1Iai7JlWZZrxarwO2Y7yPEgPm/PSy6A69KkynH4PFbF7EDS/gEBux+vSN1S7HpH0PJTH7oVq5/tMFiIqdlHo5Vvq6w/2OodfFd0IwDojjpcSG7LuZT9aL8c829QCDg8pq/Y2lCae3DkvoBK24o/JdH4mpAVFNkGxG72OQkQFLAg1okBZuK2+8RVhi1/27Fn2rteZ/KSoCoBaM47n4uthZZn0t69Whpf0SShJveRSMkDAhGpvhWpvda1NIiICAEySipy0rb7xWRX2dZWVlWu9DuQHRfMIoM5M4rlYbdbOf6haiudDk1AiCnAmHBERdcUZFpTPt2zbcbOUsmj6v84qin+ArVYKz8bWwciyk11/NYIXgpNQKQMuJSMiIp8pFYp666rV61asXr1xtNdhvFTwjwC2W2k81bwO6Sydfz81hJeDJ6KP4P5EROQA00Log48Q+PgTKDsaIEyz7WulBEwLwjBa/jcAqSowhwxG/JIpsKOcK+QkIYBwJDJ8x/Ydn61eWzt1+NBBD3qdyQsFXQA0WBk8FVuX9fjankoQzwRPQH8RdikZEXUnIp1B9J5/QlvTwUfLAi29EQAhJfS161D+P79H84+nwRw0MP9B6WuBYADBYEBrbmx+YMWKdYNGjhzyG68zua1gHwE0WgaeiK1Fwm6nygbQQwngufAkDBdRl5IRUXcTefK5jnf+bRAASu+8Jy/3ovZFy8oASMTjsV+vXrvut17ncVtBFgAx28BTsbWIZ+n8y5QAHg8fj5Fg509EzlCamhD8aFF+72laCL73YV7vSXvTdA2hcMvIcFND7GfLl6/9pceRXFVwBUBCmniqeT2a7PY31ikRGmqC38EBqHApGRF1R9q6DV8/x88n/bMv8n5P2lvpLvMtUqnk9NXrNlzgYRxXFVQBkJQWnmxah3o73e51EaHikfAEHKZwR1cicpZIpZy5bzLpyH1pd4FgEJreMh3Otm0Rb47Nqq3dOsrjWK4omAIgLW083bwOO7J0/kGh4IHwsThK9HYpGRGRA5zdpJR2EYl8M0HcMi0tFmt8uzvsE1AQ32AGFp6OrcNWq/1KOwAV94WOwfGiX073lYW9CII6Issy0a8vU7lShKi7+WoewFfS6UzvlavWz/Iojmt8XwCY0sZzsVpsNtsfDtOEgr+Fj8DJSu5LZ2yltKvxqFDYuX2cMtX+DgchIr/RAzoUVd3tz5KJxORVq2rHeRTJFb4uACwp8UJ8AzYYiXavU4XAbaHDcK4ytEP3twULgG4jxxEAW6t0OAgR+VEwuPsOsbZti3Qm9ZRHcVzh2wLAkrbyQrwWa41Yu9cpQuB3ofG4WBnR4TZMjRttdAtmbkcxS60UPv6VICIH6YG9t4jPpDNDV65Zf6EHcVzh23e7VxKb9l+TrfOHwK9C43CZsm+n2rCU3rCUHp16LRUQI5PbZZGRDgchIr8KBFqfE2akM79zOYprfFsAxOxM1tlY14fG4Fqla2c5ZPRusdqj+5IAMjkUAAJIlhzreBwi8idVa70AyKTTg9etW3eyy3Fc4dsCIJsfhkbjv9SDunyfVOAoSMHTAYuWkQLs7M//rdAAmIFhzuchIl9S95gE+BUpgWTKLMpRgIIsAL4f3Cf9K/XgvNzLFhEkA0fl5V7kMxJAModNWgQQ69FtNv88FoRCAAAgAElEQVQiolYIISB2Hsy0JyNjjFMEWq8QCljBFQDf0vss/LN2eDCf90wFjoKpDsjnLckPknHAbv+kSABIlx0FUxvkQiAi8jNFab0AsCxL6aGli25JYEEVACP10jefCR7/br7vK4WG5sj3YPPEwOKRTrV8ZWFFhiBWcb4LgYjI/1ovAAAgLMyimzBWMAXAcL100Yq+F04AcLwT97dFKZpKpsBSuA684KVTLZ/+s7DCg9DQ61oXAhFRIWjjCQAAQJFW0XUOBVEADFVLl63uU33o1q3x/pDo2rT/dlhKLzSW/ACG1rENhchHEvGWrywb/2XKDkNDnxsAwe2giSg7Ke2imwPg+3e/wVpk5fC+A/ZfK4St7mg8OLf93DpPijCaItUIGEsRSc+Datc73CLlhZFp+dRvtf8TYgcqEOtZDSOwj0vBiIj8ydcFwEA9smGfPuYBr4uJJgBIgf3caVkgo49GRtsX0lyFYGYpSuxlUKQzx35SJ1kmYBhAJg1YbU/2k2oQqeBw1Jcch+bg+J2vdSkjFb1yO4SS7Jd1mCFVbLPyMy8pAtWRN/t6uwTpjmSUgCmBhCGQ2eV3sEFVgYr856P2+bYAqFD0lyJm6TWvizO/7nWlwCi3jsiUEGiUUZjKeCA0HkJa0GQzNNkIFTGIHPeWB4CQvR49jLe6HiqZzGFWu0R96QlIBopzVzshDah2DKoVh6IkgSBavvZgKRFktP5IK/2R0fq4npOIWiEATQBlQYmYIZDKbZducohvC4Av+0z5wV5/KOHaWr2krcOU3zzykUKFISpgdKZMNduZWZJzoASQav9ERACIl47Hlsg5XW+PiMhBpZpExhK57NNFDimISYDfcG+dXhq6W01ll2Pnnygdh9qKq1wIRETURQIIFt20usJSYAWAdO38Xkv65J8mlcyp80+WjMX6Ci5pI6LCobj1TJda5ZNeLlcy6wFB+ZKHQfuuS6daPv1nuyw8Ausqr3chEBFR/rS37p6cV2AFQDeSSbWsZ892WWgQ1vS8yYVARERUTFgA+FEmDcSzd/5GsD9W9/oF+J+RiIg6ij2H3xgZIBHLepkZ7IU1vW4B/xMSEVFn+HYZYLdkZIBYc9bLLL0Cq3v/Ejb/8xERUSexB/ELwwBi2T/5W4EyrOrz37ARciEUEREVK44f+4FpAPFmZDvBxtZLsab3r2DDtcUQRERUpDgC4DXTBJpz6Py1CFb3/hVM9/ZCIiKiIsYRAC9ZJhBrQrbOX2phrO39C5hKuTu5iIio6BXUNgzb6hs+BcSBbrS13YrmbY+qqPk5BqQf3v0PbQtoagKyHCok1QDW9vk50mr/PKUhotbEY83YsqkOTfU7kEmnYJqm15GI9rQdwHop8bKU1n2XV526tCs3YwHQBkcLAMtq+eSf5RQMqepY2/u/kNYG5ikJEe3Jti2sWrYUWzdt9DoKUc4EYALir+ntlTdPm3ZYp85V5CMAt9m5df5QNKzvdSM7fyIHWZaFxYs+ZudPBUcCmoS8IdBzxzMzZnzYqdPrWAC4ybaB5lw6fxXr+9yApD7CnVxE3dSqpV8i1tTodQyirjg50GP7bZ15IVcBuMW2Wzb5yaHzr+15LRLavu7kooKXTiXRtH07mht2IBWPI5mIIdkcR6ypEbGmBqQTSWTSKcQam5BOJSEUBYqiQAgBPRhCOBJBpCyK0mg5Sisq0G/wUAwcMRLRykqvvzVHNTXWY9uWTV7HIOoyIcR1Dz3+77svPvfELzvyOhYALlBkqmXY37Lav1AoqOt1BeKBA9wJRgUl3tSIbRs3YOvGWmzbuBE7NtehsX470onsJ0Z+RVMFpLRhZQyYlol4UyO2mxZM04S9R3GqKAqCoRCiFZXoM2gQBu2zL/Y96GD0HTwk39+aJzZv2OB1BKK8kIBmWvJyAP/RkdexAHBBIL0ht86/52VoCox3JxT5mm3b2LaxFhtXr0TdmtXYsGoFYo0Nebm3EAKarkHTd//1t20bpmEik8nANEyYpolkIoFkIoEtGzfg8w/ex4tzZkHTNFT06o1B++yD0eMPw+hDj4CmFd5bSWP9Dq8jEOWNEDipo68pvN/aYiQENvecgqbQEV4nIQ8l4zHULl+GtcuWYNXiT5FobnK1fUVREAgGEAgGALQUBIZhwMgYyKQzX48QmKaJbZvqsG1THRbNfxuKqqKyVy+MGLs/jjjxFPQfMszV3J3R8r1lvI5BlE9DO/oCFgA+sK3yXDSEJngdgzwQa2zA8k8+xvJPFqJuzSpIma/Fp12nKAqCwSCCwSAQben4M6kMUqnUbo8LbMvC9s2bsX3zZiyY9xoCwSBGHnQQTjjnAvQdUhyPC4j8T3R4WT8LAE8JbO9xNrZHTvY6CLnIyKSx9OMP8eWH72Pj6pW+6vTbo2katFINkdIIDMNAOplGOp3eK38mncYXCxbgiwULUBotwwFHHoXjz6tCJFrmUfK9KYoCTddhGp1aPk3kQ3JdR1/BAsArAqgvPxnbIqd5nYRcsmXDenz+7nws+fgDZFIpr+N0ia7r0HUdJbIE6VQaqWTrO+fFmpvw3isv44PXXkH/oUMx4exzMfawIz1IvLeKyp5cBUDFQ8p/d/QlLAA80lA2CVtKz/U6BjlMSon1y5di4ZvzsPqLz7yOk3dCCITCIYTCIZiGiWQiiXQ6vdd1tm1jw+rVmP2X/0NJaRSHTTwBE8+r8nTyYJ8BA1gAULGwIJX7OvoibgXchnxuBdw79hR6NDz39f/fVPZt1JVdnKe7kx9Jy8biBe/io9dfQf2WzV7HcZVlWkgkEkin9i4EdhUIBjH+2ONwavXFUAOd2sisy5Z+/il2bNviSdtEeSPF3y89/8RrO/oyjgC4LBY9lJ1/EZNSYsUnCzH/+afR0E07FlVTES2LoqSkpKUQSKYhWymnM+k03nvlJXz4xqs45NvfwemXTHV9RGDk6LFYvDCJeLzZ1XaJ8uj15hLjJ515IUcA2uDECEC89GDUVlyTp7uS36xa/CnefuZJ7OCw8m4sy0K8OY5Mpv1ld4FgEBPOOgcTznb30ZhlmVi1dAkfB1ChsQXkjKaIdcOPTjut/eG2NrAAaEO+C4CwsQbrKn+cpzuSn+zYsglvPfU4Vn/5uddRfM3IGIjH4lmP2Y2WV+DsqVdi9CGHuZSsRXNjA7ZurkND/Q5k0mnIbNt2E7kvBWAdgH/bij3z8nNP+aQrN2MB0IZ8FgCatQOm2iNPdyO/yKRTmP/c0/j03TchLXYWuZCQSCVSiMfjaO8XTAiBwSNH4sLrb0JJebl7AclVKROIZbrYDQlgdGl+Ns3avHETTLPtXVs1XUvtP3ZUOC+N+QDnALiAnX/xWf3l53jt0blo5nayHSIgEI6EEQwFEWuOIZNu/bGAlBLrli/HbT++ChPOPAfHn1flclKi4scCgKgDUvE45j3+CJYu/NDrKAVNURSUlZchlUoh0ZyALVsfQbFMC6898Sg+fX8+Lvnpz1HZu4/LSYmKl+J1AKJCsW75Esz642/Y+edRKBRCRY8K6Hr7ywC3bazDX/7jx3j7uadcSkZU/DgCQJSFZZl457mn8fEbrxbMtr2FRFEVlFeWI5lIIhFLtLpkEGhZTfDinIexdNFCfP8//hOBYMjlpETFhSMARO2INTbgX3/7Mz56/RV2/g4LR8IoryyHorb/trT6yy9w2w+vQu2K5S4lIypOLACI2lC7ajlm/+lWbFq72uso3Yama6iorEAgEGj3ulQigbt/fQvef+VFl5IRFR8WAEStWPjma3jsrtuRaM7P8iLK3VcTBEPh9of4bdPGsw/ej8fu+ptLyYiKCwsAol3Yto3Xn/gX3njyUa7t95IASqOlKI2WQrSzXYmUEgvnv4m7p/8cNjfuIeoQFgBEOxmZNJ69/24semue11Fop1A4hGh5NOuWZetWLMefb/whktzTnyhnLACIAKSTSTw+469YtfhTr6PQHgLBAMoryiGU9quA+q1b8aef/Aj1W7vnIUxEHcUCgLq9dCKBJ2b8FXWrV3kdhdqg6zrKK8qhKO2/ZSXjcdz585uwYzMP9iHKhgUAdWvxpkY88rf/w6Z1a7yOQllompZTEZBKJHDnL27C1g3rXUpGVJhYAFC3lYzF8Ng/7sCOTXVeR6EcqZqKsooyCNH+44B0MoW7fvkzbN1Q61IyosLDAoC6pXQqiSfu/hs7/wKkaVrLhkGi/bevTDqDu//7F2javt2lZESFhQUAdTtGJo0n774TW2rXeR2FOknTNEQrsq8OSCYSuPPnN3F1AFErWABQt2LbNl6c9QDq1nDCX6HTdR1l5WXt7hMAAPFYM/72XzfBNE2XkhEVBhYA1K28+dRjWPn5J17HoDwJBAKIRCNZr2vcvh33/M8tLiQiKhwsAKjb+PiNV7nJTxEKh8NZtw0GgNpVK/HoXbe7kIioMLAAoG5h3fIlePuZJ7yOQQ4pLS3NeoAQACyaPx/vvPCsC4mI/I8FABW95vodeOGh+7hXfDETQLQ8mvUoYQB4ae7D2LByhQuhiPxN8zoAkZNM08CzD8xEMh7zOoorQkEdI4b2x+D+vdGnVzn69qxAWUkYutLyyy5NA1LakAAsSyKeNrCjKY6VtVvw/icr0BRPev0tdJoQAtGyKBobGgHZ9nWWZeHB236LG++4E8Fg2L2ARD7DAoCK2tvPPInN69d6HcNRZdEIxh+wD8aNHYHB/XtDybJnvrRtSCMDJZ1BuSJQHg5geN9KTDp0P2QsiZUbtuKldz5F3dYGl76D/NF1HSWREsTj8XavS8RjeOi23+GKW/7HpWRE/sMCgIrWuqVf4pO3X/c6hmNGDO2H4781DqNHDs7a6e9KKApEMAQlGAIsC1YqBTuTAQAEVIExQ/pgzJBJiGVMvPL+Yry7aLlT34IjwiVhZMwMjLTR7nVrly7B/OeewTGnn+lSMiJ/YQFARSkZi+GlOQ9BynbGggvUiCH9cNrEwzFiaL+u30xVoZaUQAmHYaeSsNMGvho/Lw1o+O6x43DK0Qfihfmf4b1PCqcQiJZGUW/UQ9rt//d/+V+zMebQw9GjXx7+LYkKDCcBUlF69dE5iDc1eh0jryLhIM455Whce8kZ+en8dyEUBWqkBFq0FEJVd/u7kKrgnO+Mw82XnYk+Pcvz2q5TFFVBaWlp1uss08JDf/ytC4mI/IcFABWd1V98hhWfLvQ6Rl6NGj4QN199Po49Yv+sB+F0hdA0aGVlUMOhvbbZ7VESxE+qT8IJRx3gWPv5FAwFEQhmXxq4bdMmzHvyXy4kIvIXFgBUVNKpJF791xyvY+SNEAKnnXA4pl10KqKl7s1YV0JhqCWlwB7FhoDESYePwTUXTOrQvAOvlEZLIXLI+fqTj6NxBw8Nou6FBQAVlbeefgKxxsKbvd4aTVVx0TkTMemYgx391N8WRdehRaMQyp5vExJD+1TgZ5edhWDA39OIFEVBpCT7VsGWaWHO7X90IRGRf7AAoKKxZcN6LH5/vtcx8kLXVVw++WQccsA+nuYQqtpGEQCUhXX87LKzEAlnH2b3UjgchqZlL1RqV67Eko8WuJCIyB9YAFDRePOJR4ti1r+iCFx0zvHYb5+BXkdpoShQo1EIRd3rr8K6ghu/fxq0HHbg81JJtCSn6566726HkxD5h79/a4lytGzRR6hdVTjL1NpTdcZ3cODoYV7H2I1QFGilJa0+iigNarjh+6d6kCp3uq7nNCGwubERrz1W40IiIu+xAKCCZ1sW3nnuaa9j5MUxh4/FEQeP8jpG63buGbDX8gAAvaJhTD71W+5n6oCSkhKIVrLv6a3nnoaVaX8TIaJiwAKACt4XC95Fw/atXsfosv59e+CsSUd5HaNdQtehhFr/JH3IvgMxbvRQlxPlTtVUBMPBrNcZmQxemP2gC4mIvMUCgAqaZZr44JWXvI7RZYoicOHZx0HX937O7jdqKAKoreSUQNWkw309HyASyb4iAAA+fGMeMumUw2mIvOXf31SiHHz+3nw0FcH67QlHHogB/Xp6HSM3AlDb6Eg1AUw5/WiXA+VOURWEQqGs15mGgRdmPeB8ICIPsQCggmXbNj5+/VWvY3RZtDSMkyaM9zpGhyiaBqHrrf7dAcP6o1dlmcuJchcpieQ0F2DR/LdhmqYLiYi8wQKACtaKTxeiccc2r2N02YQjD0Qw0Hpn6mdauI2dCaVE1UlHuhumAxRVQaCNeQy7MjIZvPHkoy4kIvIGCwAqWB+/8ZrXEbosFAzg6MPGeB2jc1S1zVGAoX0rUFGe29p7L4TC2R8DAMB7/y78+SVEbWEBQAWpbvUqbFq72usYXXbEwaMQymF9ul8pbT1PlxJnfse/jzV0XYfeRvGyq2Q8jkVvv+58ICIPsACggvTZu297HSEvDh/n0zX/OVI0FWhlm2AA2G9IH5fTdEyuowBvP/+sw0mIvMECgApOOpXEsk8+9jpGl/XtXYmBhTLzv00CShvzF3RFYMwIn2xn3IpAKABFZH8L3Lx+PZrr611IROQuFgBUcL5c8B5MI+N1jC4bu+9gryPkhdDbfoRx5IEjXUzSMQIip+2BpZR49bG5LiQichcLACo4Xyx43+sIebHvsAFeR8gLRVNb2x0YADCkX6W7YTool50BAeCLBTwlkIoPCwAqKA3bt2JL7TqvY3SZoggMH9LP6xh5IiDU1o/bLQnqUJTsa+69ous61NZ2NdxDIh7DuuVLXUhE5B4WAFRQln38odcR8qKyrLQg1/63pa0CAFJicH9/z3MIBnMbBZj/3DMOJyFyFwsAKijFMPkPAHr3rPA6Ql6JNlYCAMCIQf5eDaAHcyvEVn7xucNJiNzFAoAKRuOObdi2cYPXMfKiVw//bpXbGaKdA4AG9Pb3PABd16Eq2R8DpBIJ1K5Y7kIiInewAKCCseaLxV5HyJtwDlvRFhTR9nP+cAFsdJTrKMBHbxT+2RNEX2EBQAVjzZIvvI6QN8X0/B8ARDsFQKgAvtdcC4AVn3/mcBIi97AAoIJgWSZqVy7zOkbe6Hr2IedCItspAHTN/28zAT3Q5lLGXTVu245MOuV8ICIX+P83kwjApjWrYaTTXsfIG9O0vY6QV0LKNv+uEL5XIQQ0rY2VDLuwpY3P3pvvQiIi57EAoIKwcfVKryPkVcYwvI6QV213/0DKMF3L0RV6jo8qli1c6HASInewAKCCsHH1Kq8j5FUiWTyjGQAAu+1P+clUYWzbnMvpgACwYU1x/SxS98UCgHxPSom6Ijj6d1fbG5q9jpBXsp0CoG5bg4tJOi/XAqCpvh52O98vUaFgAUC+17BtC1KJuNcx8mrrtkavI+SVtNruEFfXbnExSecJIXLaFti2LKxftsSFRETOYgFAvrdtQ3Fs/rOr7Q1NMAzL6xj5Y7f1vQisq9vmapSuULXcVmesXMxdAanwsQAg39u2aaPXEfLOtiXW1G72OkbeyDYm+iUNC2Y7owN+k8tKAACoXbXC4SREzmMBQL63dUOt1xEcsWJNcRQ20jQh21gHsH5rvctpuibXEYDtm+ocTkLkPBYA5Hs7Nm/yOoIjvlyx3usIeSHbWdK44LPCmjGf6whAc0NhTGwkag8LAPI1KSWa63d4HcMRtXXbsLlAZsi3x860vszPBPDpsrXuhukipZ1TDXeVyaS5EoAKHgsA8rVYYwMsqzA2kumMjz4t7NPlpGm2uQRwVW3hTP77ihAityJAAtvrim9yKnUvLADI15p2bPc6gqPeX7S0oFcD2G1uzyzw7FuFuWNeLksBAaB2ZXHtTkndDwsA8rVYQ2FNIuuo5lgSHyxa6nWMTpG2Ddtoffi/rr4Zmwt0r4NcHwNs2VAcczio+2IBQL6WaC6uHfNa89o7n8C0Cm8UwE4mWz8EQACP/nuB63nyRag5HAsIoLnIi1MqfiwAyNeSRbYDYGvqG2N4bf6nXsfoEGlabU7+W1m3A7WbC/fRjark9gigOxSnVNxYAJCvpeLFXwAAwKvzFxbU+QBWG4WZDYF/Pv2Wy2nyLLcBACTiMWdzEDmMBQD5WrGdAdAWw7Aw96k3YNvtHazrD3YqCdnGI4tn3lqEZLqwjzrOdQ5AKp5wOAmRs1gAkK8ZbQwzF6OVa+vw8psfeR2jXdI0YSVTrf7dso3b8c6iwl7WCLQsBcyFaRZ2oUPEAoB8rZj3AGjNv99ahC+WrfM6RqukbcOMtT4i05w2cP8Tb7icyFvtnYBIVAhYAJCvWWb3KgCklHjwsVewap3Ptj+2JaxYDJB7d3pp28afH3qxaHbGEzlOArDbPAGRqDCwACBfswtweVxXGYaF+x55GbV+OUZXSpix5laf+xsS+PPDLyOeamtDoAKU4yRAiwUAFTgWAEQ+lEimceeDz2LpKo+3m7VtmM2td/4p08JtDzyH+obimg2f6whAGwcgEhUMFgDka7muyS5G6YyBe+e8hA8WLfOkfWlZMNro/LfHUvjtvc+gKZb0IJmzpMytZ1e68c8mFYfczr4k8oiid+8fUdOyMPfpN7ByTR3OPf1oBHXdlXbtdHrnTn97doYCC5auw6Mvv+9KDi/IHD/a53pmAJFfde93V/K97jwCsKsFny7D6tpNOO/UY7DfPoMca0faNqx4ArKVJW7xjIWHn5uPlbVbHGu/kOS6XwCRX7EAIF/TAgGvI/jGth1NmPHwCzhozHCcNvFw9OlVnrd7SykhUylYqTT2fLhtSeDtT1fg+TcX5a09P5M5bsakdvPRKSp8/AkmXwtFSryO4Duffrkany1Zg4PHjsDxx4zDwH49O38z24adTsNKp/ca7jdtiXcXr8bzby4siB0K8yXXOQChSMThJETOYgFAvhYqYQHQGiklFi5eiYWLV2JAv5447KCRGDdmBCrLS3N5MWzDgJ3JQBq7D/VLAWzY3ozXF3yBz5Z1z+Nuc93PIFySw781kY+xACBf46es7DZu2o6nN23H0y+/j949yjFy+AAMGdAbvXuUo0+vMpSEgpCW1fJlGi2z+iUghUDashFPZrBu03Ys+HwVVq7f7PW347lcHwFESqMOJyFyFgsA8jW+yXbM1h2N2LqjEe9+9OXXfyaEQHk0grKSMCCA5kQaDY2xnIe6uxu7ld0OW1NaWeFwEiJnsQAgX4tWVnodoeBJKdHQFEdDU/c4WbGrrBx3n+zT37nVGERu4DoW8rWyyi5McCPqBDvHQ376Dx/ucBIiZ7EAIF+LlldCqPwxJZfI3CYBCgj0GzLM+TxEDuI7K/maUBWUVfTwOgZ1E7kO/2tBnRsBUcHjTzD5Xo8+/byOQN2Eaed2/HRpWf42YSLyCgsA8r1eAzjZitxhGbmNAPTq19/hJETOYwFAvtdrAN9syR2WmVsBMGDYCIeTEDmPBQD5Xm8utyKXmGZujwCGj93f4SREzmMBQL5X0acvgqGw1zGoyNnSzmkSoFAEho1hAUCFjxsBke8pioK+Q4dh3dIvs1/cTYloD6i9R0L0GgJZ3h8IV8LWQ4CqQQoVttAghQIJQJE2hLRaviwDipEEEjsgmrZA7lgPuXU1rMbutyWwlclt+L+sohKaxrdOKnz8KaaCMGDYCBYAO4lgCbThh0EOOABmjyEwA6UwZQcG88TOLwBQAQQqgZIBQG8A+7T8sSYkAplmqM0bITYtg7niA9jx7fn9RnwmY2Ryum7AUG4ARMWBBQAVhAHD9/E6gqeUgWOhjD4eZs/hSGsRJHfZxl8ACCiArrb8XwBQFEAVEgKAIgBb7vyCgG0DEoBhARkbMFrZ98aUAqZeBvQoA3qMhhh7FoIyDX3HKmDpWzDWLnThu3aXaeT2/H/kuHEOJyFyBwsAKgj9hw2HpukwTSP7xUVC6zcKyrjTke45AgnZ8quqK0CpDkQ0ieDODl9TvvlAn93eBwBJAKYFpG0gZQJJSyBpAKbc/ZqUCCLVcwxw9BgEjjERaFgLuegZWBuXdvE79Z6UMqcJgAIC444+1oVERM5jAUAFQQ8EMWCfkUX/GEBoAWiHng1j2LcQV8JQFCCqA711iYjW0tnnvU20jB7oaktx8VWRYNhA3ABiGYFmY/fSISM1ZMr3gZhwPUIyBX3dhzA+fAwyk8p/QBcYhpHT6YjlPXogFClxIRGR81gAUMEYut+Yoi0AlEg5tGO+j2TvMTCEgrIA0DfQ0unn/uk+v3QFqAgCFUEJCSCWAWKGQFMGsHb2lRJAUoSQHPptqMOOQWTbUlhvPQA72ehR6s4xMrmNLA0bM8bhJETuYQFABWP4mAPw1tOPex0jvyIVUL/9A6R6joKiC/QLSkR16V2v3wYBIBoAogGJfiVAUxpoyAgkdhkZsKRAc8/RUM/5HSLbl8F8+0HIeL2XsXOWTqdzum78hOMdTkLkHhYAVDB69O2HHn37YcfmTV5H6TKh6gh851Ik+49DaVBB/5BEQMk+BO0HAkB5ECgPSqQtYEdKoCG9RyHQYz+oZ/8Gkc2fwXh9JmDlNsHOC6Zp5nQEcCAYxIixB7iQiMgd3AiICsq+48Z7HaHL9LHHQ1b9EdrwQzCiQqBPRH49e7/QBFWgf4nEvpUSPcMtKw6+YkmB5j4Hwar6M/QDT/IuZBbpVG6f/oePGetwEiJ3FejbDnVXowq4AFAq+kE7538QOPJ7GFqpo29Y7tZhFjJNAH3DEiMrJCqDu/+dAQ2xA86Bes7/Qqnw37kOuT7//9bJpzmchMhdLACooPTsPwA9C/AkNu3AkxA84z/Rv18v9I0AapF0/HvSRMuIwIhyifAuDxglgHioF9Kn3gL9YP90pKZp5rT8LxQOY+SBXP9PxYUFABWcMYcd6XWEnAk9iNCJ16HyqO+if3kAejf5jQupwLAyiQElcrdix4JAbMyZ0M78OYQe8i7gTqlUbssW9x13sMNJiNzXTd6OqJjsf8TRUFX/z19V+41E9Lxfov+osYgGvE7jPoGWZYQjKyTKdvn+JYBY6SDY37sNav/9vIoHSNfEHu8AACAASURBVCCTyr79r4DApO9NdiEQkbtYAFDBCZeWYsQBB3kdo136iPHofcpV6NWz0m8r+lynCmBQactowK5zHtLQkZr4Y2hjJ3qSK5PJwLazz/7v2a9vQT52IsqGBQAVpAOPOsbrCG2K7D8B/U+8BJGSiNdRfKUiCAwva9nC+CuWFIiPq0LgW9Wu50kmkzldd+RJpzichMgbLACoIA3Zbwx6DxjkdYy9VBx5FvpOqIKm6V5H8aWg2lIERPd4JNA87FjoJ1/vWg7LtHKa/R8MhXDkJBYAVJxYAFDBOuQ73gwdt6XHUWehx2GnQIjuPujfPmXnI4He4W82PpJAy+ZBZ9zsSoZEIpHTdYdOmAhF4dsk7W3jM1dGttRcU+p1jq7gTzYVrP3GH46SsnKvYwBo6fwrDuUnxVwJAL3DQP/I7rsfxqPDoJ1+k6Nt27aNTDr75D9N03Di+e4/miB/2/jMlZF1c65/wIqFm9KW3lQ758dP1T54bU+vc3UGCwAqWKqm+WIUoOfR57Dz76TKEDC4VO42UTJWNhzaaT91rM1EIpHTyX9jDj0ceiiY9TrqPoQ0YTWHnxWQlwBQAQgJnCUD6j+8ztYZLACooI379gREomWetV8+/iSUH3KiZ+0Xg2gAGBjdowgoHwFt0tV5b0vaEulk9q1/VU3DWZdNzXv7VLiENBFZ+WwAAq186hDfLcTHAf5fTE3UDj0QxKETJ3lySmDJPoeg51Fnu95uMSrTAVEqURsTXx8qFOtzEEoP/S7Mj57MWzvxRDynT/8HHnkUwiXRvLVLhU1IE6XrXoAa39jWh2YtI7XDAcxr7S+nXjh1kKqq5wgpjoSCPrDRJBSxGMDTdz1410eOBc+CBQAVvHHfnoCFb7yGWGODa20Gew9B7xMuBjjhL2+iAWBAicTG+M4iQAKJUScj0lgHc8X7Xb6/bdtIJ3L59K/ijEsu73J7VBy+6vz1+MZ2r5NSHIk9CoAbzr8hnAwlb4XAVQACEGiZ8SoAKeV5AH551cVXvSQ0cc1d9921yqnvoS18BEAFT9N0HHXy6a61p0bK0ff0q6HofD6cb+VBoNcuqwNsAKnDL4bSs+tLPuOxOCSyf/o/4oQTEYqUdLk9Kny5dv477bZH+dQpU/smw8k3IfAjAO3tBXqyNOUH11x0zdFdydoZLACoKOx/5NHoO3io8w0JgT6TLoFW4o/VB8WoVxgo3+Xt0oQCecL1gOj825Vpmjkd+xuORHDqhT/odDtUPDrY+QPymwJg6pSpfbWA9hqAw3Jsrqet2E9eW32tC29i32ABQEVBCIHjvnu+42vwK8afhPDg0Y620d0JtDwKiOyyl1JSLYE+8apO3zPWHMvpulOqv891/9Txzr9F/w1zfjL4qu9f1UfTtVcgMbaDzfa2dOsPHXxNl3AOQA7KUh+gPPkOgpmNUOwEhG0CUCAVFaZWgVRwOHZEJiGlDfE6arfWf/gIjDr4UCxd+KEj9w/2HoLKw9171NCdCQEMLJFY1SRg7dyuP9b3QJTuezSM5e906F6pZAqmkf3I3z4DBuLQ407oTFwqIp3s/AEA6+rNk6Hghk50/i0kvnf1ZVePcGs+AAuANkmUmZ+g0ngbofRqIJUErF3fRGwIy4RubYae3oxo03swAz2xtexcNIUO9yx1dzfhu9/D2qVfIpWI5/W+QtXR5+TLIArgFMJioSstIwHrm/+fvfeOk6SsFv6/T1V1V4fpyZvzsuS4ZBAQFRAF9RpQ0asiKPozIFxUuPd678X7/vTFiKtgWFiSCuqCKAuCopKjZJC4CzvLxtnJnbvC8/7Rs2ya7qrururu6anv5zMf2e6q5xyne+qc5zwnFKM6EsgdfiZa39PIgrtOftKWZNLO1yqqypkXfLUWdQNaACGNqo1/Oi/5/dPGpUhqaQokpCnfDVxewxquCWJdE6DaQ8zNrWBW/rdE7A0QCkN7B8TiZbO+tcIgswauZOHgpWgyWUeNA7YRS7Rz/Hve7/m6nYedQqhjuufrBpQnESo2C9qGgYb2tnNd359KpVxN/DvqpFOYNmtONSoGtAq2QfT1P1Vn/AuSX//DIJmTtXcElOxZ8xouCRyAXdCN5+lIrSBmrZngzUjREVDV3d/b8bLsayze/O8kCk/7pGVAOfY78hjm7+ndOX2oYxqdh57i2XoBlTEjuvMEwXTP3qgznZ+RhULBVeJfe1cXp33i07WoGDDZsQ3yT/wKLbWh4lvTecmvHjPYmnSuMHGDUETdSlACB2AcIU3iubtoy96KoMyUMEUtOgF6pPQ1gLAKzO7/GXNGr/JY0wAnhBCcfOYnPCvl6jn+DIQaTPdrFIooHgVsi73ZEuzjy0cBbGmTGnNO/FOEwsfP96/tcMAkYNz424OvV3xrOi/51T8MBjwy/gC2bW/ybDEHggNNQLUHSWRuQbX7Xd4hiscBmgaZNJTsLCZpSz7GYuMN1vV8FVMEncXqRaKzi3eccSa3X1ebAxZfdBCxBQd4pFVAtUQ1aNdhdHxDn9XaSBxyGsbTt094fTqZdhX6P+709zBnjyVeqtq6SImWShIaGkIbHUHNpFEzGdSRYdTRJMIoIPI5hJTYmgZaGKmHsdraMLs6Mbt7sGJxjK5ujO5uZDPk09Ri/MfD/l4afwBVUe/3dMEyNMEn0Fh04zni2TvL7/pLEdaLTkAqCZZV8rJQbhOLN/87m7rOIRlZWoO2AZWw58GHsu/hR/Hi49V3kes8/F0eahRQCzNjkpSxvSqgsM8pKM/egdzF0OdzeVeh/5nz5nPKRz7uh6qTHi05RmRdH/rmjYS3bEHfsonQwADCKlNNISWYFtKywDQRpgWGgSwYsO0zUlVQVYSmYsfjFHqnkZyzkLE99yY1ez6Z6bOR9SrDbLKd/zjrt2a23uP1oqWYVH1MB4ZHngVxoBdrCQxiubuIeHJOLyGTgXzOUWoqcQQbOoIhI/WikMtx44++w3D/lorvjS86mBnv/pwPWgVUy1AeNqe3P7YSL92O8dRtb/7bNE1Gh0cd+/2HdZ0Lf3g58Y6goROANjZK/JWXiK5ZTbTvdUJDg94KsCxkwUAUCsh8AfIG7NiVUQBaCBmNkp0zl7F9DmTwwKUk5yx0dggE7NM2Vpk+zWn8QfLpn//y59d6v/DETEkHQLM20pa9DdUe8EKt7RQKkE0VDynLYOrTeaP7PApqkFVeD4b7t3Djj75DIefkoO3MnDMuQp9e18ZcAQ5IYPWIwBjfUOqygPK7C5C2jZSSkaERrDLROAChCD751X9nz4MO8V/hJiaycT1tzzxN/OUX0DfX7di5iJTIXB6RyyOzuYkjqCEN2dZGco+92Xr08QzuczCWPkH77UodANsg//ivsIeay/hL5DW/uP4XZ3u+cBmmlAMgMIjm7yeaf4xil3EfkLKYF1BwCEEKheGOk+lv+6A/egTsxJrnnuG2a5e7mgQHEFt4IDNP834cbUDtDOdh045RgBdvw3j6dpJjSVeh/xPf935OOuNMP1VsWsKDAySeeIz2p58iNOTxBqgWCgXI5JDZLJgTOAOKgHic5J77sPn4Uxjc90DktmqsShyAWox/QfJrD7P9d0Qgfm9FrI8uX768irPoWuROIqp1AAQGeuFpovlHUOpVn2+ZkMuBkafc/BGpRRiNH8uWtg+BmPIpGb7y4O238o+/3enq2lnv/TLRefv6rFFANUgJq0e3RwFiVpLUNV9y1fBnyQEHctbF/+Wzhs2FMC0Szz1F+2OPElu7pkzScnMgc3lEOlOMDEykq6pgJ9oZOPp4NrztXeR6et05ALZB/vFfYg+trVinVjT+RdmTCGcHQKLYGRSZRLFHUO1BQtZaNHMDAudWoL5g22CaYBrFMJeUxdfkLhEIRcUM9ZANLyYfmk1OnUtem4updjZG7xZESsmff30dLz35WNnrQu29zPvXbwajfpuY4Rxsyox/PgKMm/6L/PqXyt7TO2sW533nsinT61/J5eh44lG67rsHrY6jsj3DspCpDKQzJZOsRURnbJ/9ER94J8Zee5Req9Zs/xY0/kX5TY587cIFKOphIBbn9IMvEpJeQR4hcwiZR1BA2Pnx/27I77B6pBz/sYtRgp3+V4K0wLLBtpEoFOcPaEhCSCWMrejYIoqh9ZDX5jAaOQpTCZKaymGZJrcsv5z1q18peU33Me+l89BT66hVQKXYEl4dEVjjz2S9/0UGb/zvktfH2xP822WXo+vROmnYONR0iq5776bzkQdQCoVGq1M7EmQ6A8nkxMcDACENe9ECMmd+EGPfvXZ+r0mN//xuZcNHjtR+qCEes/Ojjy/69LWVJSl5QFM6APKlryeIKJ9HkR9HcnCj9WkKDAMKueJZWRmsUCcjbcczED+NoM/TxOTSaX53+Q8Y2rJ59zcVhQWf+hZqLHCkmp3NacHQ+JG/JmxGf/oJ5AR/H3okwpf+7/fpmtbaSbdKNkv3PX+j8+H7W8Pw74oEmUnDWKq0I6BpWEsWkf3kRzAWL2zasP8+M1Xef4iGst0C54CnpODRfK6w2izkntr33Gsqm3pVBU3lAEiJoO+iLyD4JtQ0UKF1sUxIp3cZTLQ7UovS3/lRRiLH1EmxyUUmOcbKKy7brTwwtuAAZp7+hQZpFVAJeQvWjG5/hCn/+C1jD9200zWhcJjPf/PbzJjXwpM6paT9qcfp/dMqtNQUmEEiJTI17giUavYUCmEs3Y+ho3Ss5PqKRdTZ+O9EKpVlcGgMXQ8NRqLKUQd+7roJ+tJ7Q9NsEeXr53ey7uu3IbicwPiXRtUg0QGR8qFMYWaZMXgN80auqJNik4tYop0PfP48Et3dO7++6KAGaRRQKbpa7BC4jfBex+70vqZpfPri/2pp4x/te50Fy77HzN/dMDWMP4AQiEQbYtZ0RFtswkukZTLatX7SGX+AfL4w/r9GTy4v7/JciR1oCgdAvn5+J4r+ZxDvbrQukwIBRGPFdsTlkBBLPcPCgW/hW9njJCbR2cUHPvdlEp1dQHGGQGxh0PZ3MtGlb39Im51zEOMJfmpI45Nf/w/m77V3o1TzFSWXY9qqW5j385/Uv4a/WVAU6OpETO+F0M4VVJl9YhRmTdAzwIFGG/90OkcqvT0VwMgbCz1XZAca7gBIeYmGot8OHNloXSYdesQxEgCg5/qYN/KzOig0+eiaNoMPf+lCOnqnoU9fiBYPqi4mE4nw9v82pUJ8vxPQQiHO+Y//YfF+renMxVa/wsLLvkPXg/c1fUlfXdDDiBnTEe2JNyt3CtPCDjftTqONfyadY3BwdKfXhBDlu1rVSOMLz/uy30RwrPOFARMSiRVLDM3yOQGx9DN06g8yEn1LnRSbPCS6u/nIly/ktnuC8c2TDVVAPATp8QKg6IEn8qmPvZtZ8xc2VC8/EJZJ75230/XAvYHh3xUBdCQQUR05OIKaqcxuNoPxHxgc3a1lTFQP3+q5QjtQfrC9z8g3Ll4C3EgTRCImLYLiQKK8cwe0eOElBhOn0mS5n01BSNeZN6uXNev7UaLtjVYnoAIsCWlDoMsc7987zNy5sxutkueEhoeYs+IXJJ5/ttGqNDeqiojHkLZBdp67KECjjX86k2NwaGx34x/Vnzz0vOve4blSO9BYw2vz3zRDFGKyo2oQcv6yCyvPtNSqOig0OWlvj3P6oTMRA681WpWACkiEIGaMcM6+Jgtmt17+cGzNq8y//DIiG95otCqTA0UQlm2uLm0K4z84tluL8mhUf/Kw8647zHOldqFhDoB8/fxOkB9plPyWQ4+4uqwj84DPikxuQqrGaUcuIjLwiuu5AQGNQ0qJ+cr9fOHoBO0Jh6TYSUj3/Xcz96qfoaZTjVZlUqHmQHVohTDVjT80MgKg6KcDlWdqBEyMFqLst20c1RglbPXXQaHJiyIEpxy1F3Oza7ALdW/OFeASu5BDf+0BPnr68Wit1t7Xtpn+x5vpvf3W4Ly/SsJlxgMExr9IA/9qRNBr1UsEoLnwpyR0Zu/3XZ1W4LADl3BYZwo7PdRoVQJ2ITe0icXGa5x6yvGNVsVzFKPAnOtW0PlwEK2rhdDoxK8Hxn87jXMAhGy9v9xGo7lLp4jlS/fBD9iZebN6OXlJDGXr6karEjBO+tV/cPKeUQ46aL9Gq+I5SiHP7OtWEH/5hUarMukJT+AABMZ/ZxriAMj1X5+LpHXbczUKlw5A2JigB35ASeKxCKcfvYTZ2T6k4VxtEeAPVj6L+up9nHnqEXR1tl6/BjWTYe7PLydWZlBVgHvCSXYaxR4Y/91pTAa+KU5o9ko0S+pkmUdOziBndWPKKFIq2FLFkiogUbBRFJNYOEs8NIjOZlR7CNUepSGd9xSt2AjD4cxQWFk0ayQYNVwhhx+wgPlbh3notS0ovYH/Wk/Sff/kqPkxFp96QqNV8QUll2PO1b8gsrHy1rUBEyNMCGXAiAfGvxQNKsETb2G3qsfGYtLOmL0fSWsumUIbhjGxfooi0CMR9IiOHgmjqiGEgALFHwAhTTRrIyFrLSGzD83eWBzt6zfbegIYDmORJXTkH2Mwdor/OrUY06d18b7eTh57bg2bQrNRwq0/XraRWPks4rXH+Mi7j0dptUS/cZRCnjnXLCeyfl2jVWk5wqMwEgqMfykasg+Xay9+BiEbPnXFkhGG7UMZLiwmV1BLbpyFEERjUWLxGGE9jBCV/dqEzBM2X0E3niNk9uGr85PLQjbjeFk2vh/rus73T48pwPBIkgde3Iw9bUnF34kAZzJ9z3PcXj3MnTur0ar4hrBtZl93FfGXX2y0Ki3JlpmSnw4Hxr8UdX9qyTUXdaAxSAO7EOaYxebCcaRycWy79BdD1TQSiTZibTHPHvCqPUKk8Dh64SkEDjv1ajANSJapfxnHCrWzesb3vZc/BXlpzXpeGgujtLf2vPl6kRvcyMz8Bk44/ohGq+I70/9wE52PPNhoNVqSpJT8yDbYZAXGvxT1PwJQlbeA3RDjn2EBW/LHkMpFxj+Uib8YmhYi0dFGNBb1fGdnKZ2kIyeR1Y8lkn+MiPE4Qjp0rKgEVaPo15X/0qtmEsXOYyuVT8wK2Jl99pjLnrbNo0+/TH94VtBKuEoKySFCG5/n/ScfSyjUeu18d6Xn7rsmvfE3uruxEnHMRAIromNHItiahpbLoqQy6CMjaGMplGSyrv0MklKyzDTY5IPMVjH+0AgHQMjj6i3SklE2WScznO4ua/gVRZBobyeeiPse0rVFjEzkRLL6UcTyDxApPF5Sr4oQAjTVcTgQUpIoPMVo5OjaZQagKgrHHro3+UKBR55/jZHoLESQH+AKM5vCWvsEp56wlMQhrZnktyvxl1+k5y93NFoN11h6lNTS/UkvmEehvZ1CJIIhBPa4gdM0DT2iEwqH0LQQlqaiqgrG+HNUmCbKwCDq1vGfjZvQ1ryOkkp7rus2478xMP6O1P8IoO+iR6nj6N+t1nH0Z5ZgOYSBYvEYHZ3tKGpjTiZC1jri2b+g2h506ctmirkADqTbDmJ955dqlxewG5lsjkeffZ3R+JwgIlACMz2Gvf45Tj72QDo6p87vKDQ8xPzLf4ia9t74eUnqgP0YPWA/Mr1d5IWK3GGDoigKkWiEaCxCWNerS9CUEnVLP6HVr6O9sobwq6vBrC1ZOjD+lVFXB0Cu+/pspFhfD7kWcfry7yWVLd8dT1EEnd2dRGMxv1VyREiTWP7u2qMBlgljJdpg7YCtxXl15mXVywlwpGCaPP7ierZYCdRE6w2qqYbc4Ca0LS9z6tuPIBZvvf795RCWyfwrlqE3ablffuYMBt9yNMk5syjsYsS2JUNH41F0Xfc8SiqyWfRn/kn4iWfQ+tZVfGQQGP/Kqa8D0HfxuSB/4bectL0H6zLHY5jlvwihcIju3h40raFTkXcjbL5MW/Z2hKyhD/3IMEjnXgRrZ32TvNq6WdbNgpSS517uY+2YgO75xaOaqYSUpNc+z3Q1ydveenTLlvQ5Me22P9D1wL2NVmM3xg49hP6jDyc7QQRUVVXiiTixeBxVrc/npvZvJXLPg+hPPgOWc1QgMP7VUWcH4KIngEP9lDFoH8OGsb0cr4tEo3T3djVt+ZZqD9GeuRHFdt7JT4jLY4BM/ADe6DqvOhkBVTE4PMazr2xgROtC7ZzZaHV8JTewETH4Gkftv5j5C1o/sa8c8ZdfZM61VzbVcJ+RIw5j6xFLyU1o+BUSHe3E4t5VQVWKMjJK5N6H0B95HGFOXDUVGP/qqdunKvsuPgnkXX7K6LfezpbUPMe/r7ZEG+2dHU2/CVNkikTmt2jWlspvlhJGh5xPEoTCq7N/iC0afwQyFenbMMirm0dIal2obd2NVscT8sObMTe9yqLuCEcec9iU3e3viJLLsfCHl6K5OJqrB5m992TDyW8jN8FDUFEEbe0J2hJtTbNBUkbHiK26g/Az/9zp9UYb/0w6x8Dg6G6P2WhUf+Kw86473HOlPKYun6785yVh2rKPAEv9krHBOJ3BtPMZa1t7YlIlHAmZoz3zOzSrijNDt02BYvuwrvvfqtAuwCuklKxd38/a/iRjMgodMxFKcx1NlUJaFtnNa9CS/ewxu4OlSw9stEpNx4ybf0fHPx5utBpYsRgb3386oz3du+1YAaKxKJ1dnSh1CvVXSmj168RuuQ21f2tg/D2gPg5A39e/C+Jrfq2/2TyJ/tQcx+vaEm10dHX4pYZvCJmnPfOr6iIBybFicyAH+ns+xnD0xMrXD/CFdCbL6r4tbEmZZIgiOqYj1FCj1QLANgvktvQhklvpjcKhh+xHV3cwV6IUsddWM/fKnzY89D969OFsOOpwrAman6mqQkdXJ9FY85euCtPEvP3P/OLu+30x/nv2wr8s1QiXyQ1rBeMPdXAAZN9F/wpch0+TBwfsY9k4tqfjdbF4jK6eLj9UqAuKTNKRvr7ynAApixUBtkMijVBYP+080uHWG7HaCpimybqNA2weSjOWt8kJHRntQo0lfJVrJEcoDG1EZEeIKRazehMceNDeRPTmNxTNgLBt5v/4++ibNzVMB6mobPzwexmaNnGnSj0Sobuns2El0JWSTqa4+oor2bLJ+6mm89sNjpubRhFFp0gPhwjroeL/hkNIJKlkltHR1O7GPx554rAvXTtpjD/47ADIdV9/L1LcjE8Nh8bsA+hLHj5hKGtHwnqYadN7J33mtWoN0pG5pvLOgbZVjATYDlUBisa6aV8lG1pcvZIBdSVfMNg6MMJwMsNYpkDOlBi2wJQKplCwpYJUNaQtkUIBKbEtAylBFrJI24JCDmEXUKVFWNi0x0LM6O1i4eL5xKdYmZ7XdD14H9NW3dIw+fnp01n34feRExPvvxLtxXyoyYKfxv+gkMJ7Z9tk4gYZzSRjG9guKqkAolH9qcPOu87XBHc/8K0ToOy76D1IfuuXDJMO3kgfgXT4gBRFpbu3e9IbfwBL7SEVOZ1E9veV3aiokGiHZLJ8JMA2mTfwQ9ZN+xo5bUFtygbUBT0cYu7sacxttCIBu6FmMnT/9c8Nk5/dYzGvn/ZOrAmfkYKunk5i8cmT/Oun8V+qqJwtNNRNANvbo491mYxGcyQjBbIhm4Jt7bbz7y2E2PvZ8J2eK1UHfLGKct3FZyLldYBPh5YKq3MfI5NzDln1TOslEm2tfvfx7B1EjKcqv9G2ITXmWFcrVY0NveeRDu1TpYYBAQG9d95O9z1/bYjs5EH7s+7E499s1bsjiiLomd5LOFy+SVoz4bvx17Sy0+nklq1QMDB1wcicEMlegaUJurbY9KwpICKRgmjrnCZ+/RPnSWxNhOfn8rLvos8h5a/wzfjDZusUV8Y/3hZvOeMPkImcjKX0Vn6johQjAQ5nfcIymdu/jET+ySo1DAiY2qjpFJ0P3d8Q2SPHHkVfSeOv0DMtMP7bcGP8AegoVo5peUnvawUWPZZnyUM5etYUj2NlLheG/Hc9V9BnPHUAZN/FFwE/83rdHcnLaWxNOTdPUTV1Umb8u0EKjXT0VKoK4AgFEh2gOZzMSIvZA8vpzE7uaWUBAY2g++6/ohTydZebXHoQ6w9fOmFeVNH49xDWA+MPFRh/QER0cPi9yVTmbHnuRZPK6HhmqIvGX16Kz4mF6/OnOCb9AXR2dTRNEws/MNT55LV9q7tZCGhrh5DDg0DazBi6np7MX6qTExAwBVHTaToeq3/Nf2afvVh3/FtKPB8F3YHxf5NKjP+bJNrKvi1z+RCp4UkVBajZAZASIfsuumzc+PvKiDyEdM45p1DXdSLR1i9TykRPQlZ70iIEtLW5cAIkvUM3Mz3duEzmgIDJRMfD96MUKqzUqZHc/LmsfefbS2atd/V0ogfGH6jS+AMiGoFQ+eetzGQ/Jc86K1K9dvWlJgdASgTrLr4GON8jfcqyJXewq+vaJ1Gnv1qwRRs5vZbKEwHxBISd8iQkXSN3MD19cw2yAgJaH2EadD1c32MzOxJh7ftOn7DBD0B7RyLI9h+nWuP/Jk5RgGxOx4pMmuEqtUUA+i76PshPeaRLWUblweRdHKlFovqkCnPVSi58VPVRACge2MTdRAKga/jP9GQmZbVLQEBdSDz3DGo6VVeZ6/71wxglhn5EohESHZNnQ9TUxh8QsQg4tEmW6exXaxBRV6p2AOS6i89CULcG8ltyB7m6Lu7gobUatmgjH3L3uylLPF6sEnCgd/gWosZrtcsLCGhBOh6t79n/wMknkixx3KmoCl09k6dFc7MbfwCEQDg0x5LZ7DT5qS+9pVZR9aAqB0C+/rWZSPlDr5UpRUbOI5d3VlULaUQik+b4xTNyugcTJ4VSjAQ4ISVzhn4GuOuQFRAwVQj3byG6tn7OcW7BPDbvW7pXR1d3J8okGSjlp/Hf/+AD+PgxR9Zu/LfhdJxiS6xs+n+9Eucn1UUAVOUbQN0a6w+a7s6545PonMtLLKUXU51V+0JaqPjjgGqM0p25u3Z5AQEtROKpJ+oqb8NpS4CZ9wAAIABJREFUpSuiij1QJkcitN/G/8Of+hj509+J3eZRW2tNBb183pTIFU6QF1zQ9B9AxQ6A7Lu4C0ldzv2LKCTz7nyNSGxqOgAA+dAB3izkMoLSnQpKAwMCdiTxbBXdOatk8MTjyagTV0QpiqC9098hUV5RD+OvqioyFiX7rpO9Wzzu8JzMFzS25j7unUB/qDwCIHgfULeD9jF7P0zTue4/HA6jlRnf2OoUtP3wpAWDFnY1N0EtDBO2+muXFxDQAkTe6CM8OFAXWVY0Qv/B+5d8v629fVKE/utl/LeRP2IpxuJFnqwvolHH56TM5z/viTAfqdwBkLzdBz1KMmbv4eq6aGzqnf3viK3EMdUZtS8kcHUMANCRrX+zk4CAZqTt+efqJmvL+96NWaLkTwtptCWaf4JjvY0/AEKQPc2jKICiIBzaKct87pBm7wlQxaQ+WdeRhxnDXWfFsMOZzFTA0BaiWR78QWkaGM6NTKKFNbXLCghoAeIvv1AXOVYsysiM6VCy5r+97h1QxViS0EuvoK7fhJJOgSWxZ8/EmjUDq7cHe1oPcofW4w0x/uOY8+di7LUHoVdqf3bJWISytel5Q8XqeA+wsmZhPlHNqN45nmtRAktGyRcUKFHjug0hBKGwb7OHJg2mugB4pPaFXJQDAqh2feudAwKaEW10BH2L98ZsIvrfdUrJhj+qqhCJ1mfDqT/0GPpf70HpW4/IZCGkQTSKiISL3fL++eKb10othLlgDuY+ezG49x5cfd1vGmL8t5F7xwmeOAAiojtYJrDyhbNoMQegbuf/SfZ21fc/rIdauu+/Wwx1LsUYvvPvzAsUu/7DTgICmo34Ky+Bi+dUrdi6zvDcWSV3/23tCX+fg4UCsd/8nvDdDyKy2WJNfCwKM3rLtsgVpkFozVpyq1/n2j8abCmhfy24Nf4AxuJFmAsXoK3tq02ophV/TLPkJcIwmrofQDVlgKOea1GCnOVu5G3IqYvdFEEKHVt4cP7n8u/TVoJjl4CA6Ov1qf0fPPG4krt/RVGIe1XmNgGRu/5O57kXoP/pr4hsFqHriBm90N3p2B8fICkly0yDjQ02/tvIHX+MJ7KF09FzPt8hz/qC8/jaBlFNBGAL0OO1IhORt911sVKncPb/rlhqN4pZY2i+xECR3VBitIkgChAwtYmvrU8uzMgei0u+F41Hfdn9i3yexKXLUF98ZfwFAZ3tUIGz8abx9yFKUo3xBzD23RMZjSCyuZrky0gY0unSF1g2GNa/AD+vSZBPVO4ASB5FsJ8PuuxGwXbXRyEUqsaPaU0spYcQ62pbxDTcyYouJqLUd+pZQEAzoYyNoQ4N+S4nP2MGeU0pGZ2LxbzvOaMMDNH+H/8HMZYsvqCqiJ4uqGDWSjMafwAZCpE/+AAijzxekw4iHHbOAzDM99CkDkDlRwCKvN8HPSbEtNx9sEoVX4BWxVbcVU2URAJW6TOtNxGQiyytTVZAwCRHW7+xLnKG3npMyTQDVVUJOU70rAx1cz/tX/vvHYy/gpje0xLGfxuFw9xNly2LpoKDDophNO2DsnIHIMNNQNJ7VXbHtt2FtBSXWetTAUmN+RBmoWSS0Y7YoS5szV2ORkBAq6JuqE/2f3Jm6WPkaCzqpneXa5TRMRLf+Nb28LgiEL09xYQ3lzS78QcwF8zHbq99UqJwiEDbljldetKlzXsqtpxin+8mgRt80GU33H53ggqA7UhRowPgZuYykE94k0QTEDCZUX0oZ9sVs6OdQplAs+7lADQpSfzv9xCpHc61u7uggjLryWD8ARACY4kHnQEdHABRsFTO+eL82gV5T3VbZ2F/D3ARJ64NNyWAEDgAOyKpIRRoma4aAElVJ9P2turlBAS0COqWrb7LGDv0oJKbISEEesS7KqjYr36HsmHT9vXbYogKegtMGuM/jrlH7Q6AdKpCkzakrXfULMgHqnIAxPzvrUHyS6+V2R23X6LAAXiTWn4Vuay7yzreSrW+Y0BAyyAlytCI72JSCxaUfC8U9q4Hijo4hH7n37e/oCjQ4T5EPtmMP4Cxl7tW8+UQIWedbNs8omZBPlD9U9w2vwn4mgLu9ovtNlIwFRCyyo/EMqHgYvevRcgkPJyqFRAwSVGSSYTLiplayLaXnuwXriApz4n4T68Gy9r+QkfCdVfQyWj8AezODuwud+XmJSkxlXFHpG3uWZsQf6jaARCLf9CH8DcK4NaxlW7r1qcAolqfLOt2938iwe4/IACUoeE6CFEolDGqYY9aoKuDw6gvvLyTXBF3N159shr/bVjTp9W2gKo4Githy3m1CfGH2p7kpvl/8DEK4DoC4EN3qcmKsKvYkbg9+9eiZNqa8igrIKDuKKP+z8LIzZ1d9n3Vxe7TDZGbb90p61rEY652YH4a/0NCIT7y8Q/7avwBrGkeVDM56WjbTVkyVZMDIBb/oA/ktR7pshuaajlfBFiWu+umAoqs4qHkevf/doLdf0BAESVTpgOcR+TmlZ+9pnnUBC30j6d2fsFFYyE/jf9SReUcoRB51f82y/Z0/x0AIV12tasztT/NTfEtwJd+sLrqblnT8L0gYdKgWgOV3WBWsvs/sTqlAgJaEJHK+C4jN316yfcURfGkB4oyNIxI7rBxUFXHsj9Dws9M0zfjf7amoQLay6s9X39XvIgACKV8tERasikH1tT87RF7fGcdyGu8UGZXdNXd3CEziAC8iSorbEuac/cQy3aeRLD7DwjYjsjV1kfeDWZb6XN4r2aghB98bKd/C905r+APtslaH3KvdjT+AKHXa5zY5wK73YMBt06OmG2r8txzm25mvTdPdFv5DuC5FdYVd7tZ0/A/E3cyIKSJYo+5v8GywMXvTmoRsvETq1csIKAVKfj/3LHKjdkV3jy+tdde3+nf0mG63zCS+y3/jT+AunVg58oEH5BOE/3c4OQASAl0ucuqrCOefIPEokvXAn/yYq0dSYhXXV1XyAcDaQBUexNQwR9m3t3Zf6Ht0OoUCghoYUSZOfBeIcucLSte1f9v3qWZkUPL36csG9N1jxZ3TGT8AbBt1GF/J9B74gA4CpGA2aIRAADBFZ6tNY7GKKGQ85fctm2MIApAyKwgXCYlFFzkWAhBpv3d1SsVENCi1KMHgF0mzO907uyaXY8yHHazfR6f+5c0/uPUOrLXCamH3decl8LpdinBzDddHoB3DkD/8N+BCuLP7oiF3GW1B1EACFlr3V9sFFw1WrTDvdiiKRNYAwIaSx2qj+0yxtizFui7JlE7LJv00AFwMv4AwkWSck0Igaxg0NFESDefRVhrXQdAHL7cAO71ar1tJLQ3XF2Xy/ifkNPMCAw0q4LRpC4jJkZ0SZUaBQS0NuXC814hyvY48cgQ7xplcFg26pHj4cb4Qx1C9FLWfJwj3HwUuULTGSlv07qleNbT9YAu9UkUF6GufD6PbU/djoBh42WErOBLbLtLrDHCtffKDghoSergAKhlEuBsrxqg7Trsx2HdmR44AG6NP4D0ctrhBIiC4X70bEkc7hcCCLe4AyDsCovQXSwpDRIR51I1KSXZjLuktlZEN56v7AaXzpKl9lShTUBA6yM9KsMrR7mdqVcOwG6tcB12wwfV2HugEuOPpmJ1ddQkzwmR98AuOzkQQkCX8KVfTi147ADgS7pmd+ifrq7LpKemA6DYaULm2spucunx2mrpQSQBAVMZWcGY3GpRyhzVeTUDxdxj4U7/Fg7HgwuEYJ8qnYCKjD9g9fa6HkhULSLnQY6B4/NUSC67rMUjADZxT9cbJyFedFUNUMjnMepQm9ts6MbTVFT+B66zXhU5NZ2qgABHov4nx2plcpss0xsHoHD04Tv9W7p4hp6pasQqPAmo1PgDGItLj0L2CiXlwUwHp74ImjBFXdJGK8NbB0AR7odHV4RNb2SNqytTSf8HdDQTAoNI4R9V3OjSAbA8L+wICGgJ7Jj/fV30raVPVW3b8mQUuj19GnLHyX+m6XgMME0IPq+GXO/4jlErN/4A5t7+T9FVtg7WvIZ0OFIVQmm68D94ngQoaxysXJpe5WFCmrPRymaymObUaQ0cyT+JIqvoSe6yi5gIHICAgAmRXrSQdSC6fkPZ972ag2IedshO/5Yu8qmWKAoXhcIcoiglKwc7heATWohPqJUbfxmLUtjL/yokZaB2B8ApcRIh/J8cVQXejJLaznyP13sTIUx6o31sSpYXIaVkbGSU7t5uv1RpGgQmkcKj1d3ssomIZvX7M+kpIGCSY3X5tt95k0jfGwghSu70DcMk5DC4xw2ZD5xOx/0Pbz/LTmcg0eYYKewVgnO1EFul5DnbZhBJTko6hGAPRWFvoVRtZHJHHrZ7iaIPqP1bnS9ywmnTqSj9tQvxHm8dACEW+HnKMU29l6HwJ3Dq+ZPNZCkUCoTDTdd3wVOiuQeqG/8LoLj7w1IND7zjgIAWxK6DAyAsC00Up+9NRHEOSu25CPbM6Vh77YG6bfqeaSEzWUTc3THHNCF4u4dlkVILkT/hGM/WK4faX2Pxmm2DU0KmoqytTYg/eHwE4F8EoIjNnOjDro6vR4f87R/daFR7iIjxmPOFpRDu/lgVa7h6GQEBLYwMh7HbfMl73olosnT0OO9hB9T05z6189HgWLJhaWu5tx6LnfC/AklJplAHK5yguisujpylorxUmxB/8MwBkP+8JAzM9Gq9UrSJV0hEnc+8C4UCybFWTQiUxHN3Vtb4Z1dUd0cAwmzV32FAQO1Y06f7LiO+bn3J9wqFgieJgADW7FkU3v6W7S+YFozVPwfI6ukm944T6iIrtPq1mpsASRddBBXUh2sS4hPeRQAS6XmerleGeaHbXJUFjo2OteSQoEjh8crr/nfFZW2tsKpIMAwImCJYM6c5X1Qj7U8/U/pNKTEKHkYBzv5X7Om925cfS0G+jllAqkr6Yx90HEnsFdrq150vcsCpbwJCwIKOv9QsyAe8M9i28Dn8vx1VZFkQu9d5GIaUDA8Oe+YhNwOatYlY/u7aF3J5XifsYMhSQEAp7FkzfJcRHhgiVOZZl8t6aKBVleR/f32n9rtycATKtCT2DCFIf/A9mPPn+S9rHG3Na7Uv4lSJEdKy4vvfb8oqAO8cAEXxv2PDDsTE68xocx5/axQMhgdb4xxbyBxt2VtqC/1vX81dLwApgzyAgIASmHNm10VOYqB0olom422Uzu7tJvXNi2BbdYFlIfsHnZvd1Ej2XSeRP+JQX2XsiLZhE6oHtsGpcZJQ1AqmtNUX7xwAKesWAdjGdPVuutqck/2ymSypsWQdNPIRaZHI/h7VHvFuTZeVAFqhfC1yQMBUxZw9sy7h6p6HSyf8Wqbl+Th0c8E8xr7939vbHZsmsn/AsUFQVSgKmQ++l+zbjvd+7TKEnyxztOIWy3KMjkhNrbJW23+8PLOvjyu8C/O0W0lEnVssj46MkUlN1vNsm0Tuj7Wf+++K614Am72VGxDQKqgq5rw5vouJvL4OvcxRph+D0Ky5sxj98aXYi8b3dqaJ3DKAzHrX0t5ubyf5+U+T26Udse/YNuGnnqt5GZl3zjFTVHVlzYJ8wssIgE9tgJ2wWRi+iXjE2TMdGR6ehBMDJW25OwkbPlSRuOwGiB20AgoIKIW5qD7Bz451b5R8L5POejDSdndkoo3Rb/8XuTP+BUJaseZ9YAiGaswLUBRyxxzJ6Fe/hLGorqfHAIReXYOSrD0qLAoOz0YhJP1rbqtZkE94mAMg/B+NVQIhLBbrv6XdIRIgJQwPDpNJT5JIgLRoy/wRvfC0P+u7HOYhZOAABASUwqxDu1qAnrsfQCmRt2PbFmm/nmtCkP3g6Yz87AcUTjgWNA2ZziA3b4XRpOvR4gCoKvnDDmH0wi+S+cDpdZmoOBH6g95E5aVDAqYIhzeJe+7x4dzEG7zrBCipsZ1SbQhhslBfyXr1dIZSXSWvk+OVAZZpkuhoUNDCBQKDRPZmQqYHWaqlcDlPXKr+dzwLCJisGAvnIyM6Iuevo6wlk3QODDLUM3Gb81QyRdzHxkSyLU76C2eT+ewnCP/tPiL3PIiyYRMkU4iojozGEHpotwojGdExFi3E3G8v8gfuv/PgoQagbdxM+KVXa1/IshxzIqQW+mvtgvzDOwdAyD5khfMhPcdmrnYreuJENqcWli3/GxtNYpoWnd2dzuWEdUa1B0hkbkG1PehRXQ6XnrsZ8r2/U0DA5EVRMJYsJvz8i76LmnHHXQx/4qMTPttMwySXzRHxeVctQyHyp76D/KnvAClRN25Ge+lV1A0bUVJpZCKBPW8O5qwZ2L09WF0drvuO1IPIX+/x5LhEunD4lIhyRc2CfMTLCEANfWm9ZZp6D/GOBfSl34ZRqok2kElnKOQLdPd2ezJQwwt04zni2TsR+NzASNpguYhMCYVCqD4hzoCAyYpxwL51cQC04RE6RkYY6eiY8P2x0THfHYCdEAJrziysObPqJ7MG1C39nn1OIpsr3yk5pGXFDSuaxi5OhHduWSp2L9A0tXYx+tgr9ls6YqmyO3zTNOnfvJVUMuVHDo1rFDtNW/ZW2rKr/Df+AC47JNp6NyitPVQpIKBWCgfsh9Tqs4mYtepO1BIVPEbBIJ1qyp4zTUH09ru8SZaUNjJXPudMaKH7ahfkL545AGL/Swogf+vVel6giiwLwjezR/sD6Hq5KyWjw6P0b+4nX8+2l+OydeM5OtPL0Y3n6yfWZfvQfLzO5TkBAZMQqYcx9tqjLrK04RF6y7SwHRtNYrvM75lKhJ9/kfCLL3uylszmHQclCS18qSfCfMTbgxkhLwXq0DOyMmJiNXtHf8msxGtlZwiYhsHAlgGGBoYwTb934ZKw+TId6auLu35Zx/JEywTDhQOg6mTa3uG/PgEBLUDhsEPqJmv6HXeV7AtgWxbJyd74zGOEaRBbdad36zmUk0tNS4ubrrrHM4E+4akDIOZ/bw2SH3u5pnfYTFPvZ9/49cxpf4VyR/7ZTJYtG/sZGhjEcGjzWI0euvkCnakVJDI3o1lbPF7fBS5bh2a6TqNO850CAiY9hf32rst4YABsmzl/v6fk8WY6mfR0VPBkJ/KXu1GGPGppbtmOzZBEOHyLN8L8xfunu4z+B8g6xrIrxaZHeZh94texpOM+OmNjKCUyVLOZHP2b++nf1E9qLIVdQ+ML1R4glv87XcnLacv8AdXur3qtmsjlwEV0w4wtIht/i+N1AQEB42gqhUMPrpu4+Auv0LNh04TvSQkjg0PBUQAQWrOW6L0PebaedOq3IIRUtOjFngn0EV/q3+T6r8/FEvcBi/xY32ukVBnlIJLWAjKFDgrGxHkiQgjCegg9EiUS0ctWDghZIGStI2T2ETJf87+kzw1GAdJJx7MrW+9meMZFILwrEgkImAqoWwfp+N6PfenKNyGKwprPnUWmRAJiLB6nq2fq9vFQUmnaL/sZytiYZ2vKTVvALL0ZFHr4JeXWX+/rmUAf8a0AXvZdvBjkKmA/v2T4hUmclFxCzu6lYHeQN+NYtoKUAltu+9sWKIpEDwuiuiQaGkMXA6j2IKo9iGb1A/5Oz6qIQh7SaZysvxWZwci0r4BSNmsyICCgBG3X/JrwC94km7nB7Ozg1U+diVlit9/Z3elrg6CmRUoSV11P6JU13i2ZzcJA+aMEJRH/oLjp2t97JtRHfO2AIzd/NU5O/QmCs/yWFVAKCZk0OFY3CNKxwxjQ31MXrQICWpXI2nVM/+Vv6ioztf8+9J104oQhfyEEPdN60CNTy6mPrbqTyH3ehf6B4kTEcrkV4dBWddUN0z0V6iO+xnjFzO+ngbNl38VXgPwW8E4/5QXsiCwa/VzWoeOfIKvNYp18J/lsF2SdxysHBASUZrSzg7YZ04ltqV+eT9s/X2JuLMYbRx+J3CXKJ6VkaGCQ3hnTCNVhdHEzEL37Ac+NP4VCeeMPoGlNX/q3I3XdlcvXvr43qvIFkOcAUzAmVQdsG/I5KOTK9/pXVNLKfNbbbyMvp+4ZYUCAHyT63mDhrX+qu9zBtx/Pxv0nPnXVNJXe6dNQNXXC91sF/alnid94s/d5GFsHy7f/DWlJ5bYbO4RjllXz0JCwvHz1knbC2U8DX2GSJAo2PZZZzPA3yjeosJUII+p+bLROwJZBiV9AgF8svumPxDdtrrvc/tNOoX+PRRPaP1VVmTajF1VrzQTf8NPP03bjTZVNKHRDwUBucUjkjkbPV/9w/TJvBftLQ8/lpbxEYV3u7cBXQJ7WaH0mJYV80fCX6+ufk1h3hBidtSfrj3lX/XQLCJjCtG3YyKLfr2qI7KG3HseGg/af8D1VVemd3osWai0nIPLQY8T+cLs/FRgOu38Z0oa0227s8V6wvzR0CyjEJbZYcOlfxYJL3wMcCFwLNO3s5KbBlpDNwMgQpFOljX9OJf/oDMxfdiIeGybxtyZuzxAQ0GKk5sxmdHFjApzd9z7AwvseQpmgUZBlWWzdspW8z+OL60n07geI3XKbL8Zf5nKOk/9ULfwlzwXXgabaccsvf1mXlvKQOF7LcYx2DKK59Gs40i7u9nM5ysb5DZX8U71oT+VRtg39GR1DjqXY8PEzGD74gLqoGxAw1QmPjrHXr3+HqKGJWC1k9tyDvnedjDmBYRRC0NHVMalLBEWhQOymW9GfetYfAVIitwyUHZ4mIvoLyh9/NXG4pclprkPgnPg0BQ6VfzOPlZfln2FE1v8ArVkxDUiOFbP6yxh/uTGGcWM34cdS240/QFscBEz/e9MPqAoIaBkKHe1sXXpQw+THXl3DXldeRyK7e+96KSUjQyOMDI8gGzkKtUrU/q20/+RK/4w/IFPp8pNThZDC1j7omwI+0zTpoPLcc0NShn8HFFPSDWbyuJ0Ri9XNtIvuxmrXYPJ5yCTLZ/UD5qvdiNtt1PwEX1hFQRgmysgIyQP2xUy0+aRsQEDAjmRmz6Rj9WtoDuNj/UIxTTqffAalt4d0z+6PUqNgkM1mCethVLVpTEJppCTyyBO0XfcbTzv87YZlweBI+WOFWOSXyh+vv8o/JfylaULs8pzzz5ZCrtjtDcGY+Iw+wEyxuAFqNZ5CvnjO74D9QnxM/J0E5T7T8UxWa8a0V9dfctH/eqhl0/PG6r7PFwpGMNyghUmOJclk0o7XRaOx/qXHHHphHVR6k877H96/8/6HL6LBz9z8zBlseO+7Sevh3d4TAuKJNjo62ov/aELUrYPE/nCbp939SjIwVH7oTyg0rESNaWLlyqabgOuWpviU5RlnqLJj9kvAkgkvUHlD/JveSUQk6qtZg7FMGHPRmGdjKCt/H9YAxy4fsn8ACoZUEvEZYuU1TTCgoD7cuPzG6xF8otF6BPjHwNYBRkZGHK+LxWJrLrzkwomfNT5infOVK4TgC/WWOxGjRx7GxqOPmDA3QFUV2js6iLXFGqDZxAjDQL/nAWJ/v69sH36vkOkMDJX5LgmB0hY9Sdx03d98V8ZHmiMHoGP2mZQy/gAW8+Q1hafqp1ATICWkXMz0zitS3hrO4ML4A5CIg5TCNu1JVa8aEDDZUdTs14CXGq0HQMdjT7DPL1YwY20f2i67fcuyGR4apn9zf8MrBUS+QPSeB+j4v5cR+8vddTH+WDaMOBwt6OFfT3bjD03gAMhLLlEkXOR44YA8gYfNe/zXqEnIpFw1s5C3RV7GxHX9qYhGQVOhkP+gvOSS1ioEDghoYsTy5RlhK58AHPrJ1geRN5i+6k72ueJKZr6ympCysyNgFAwG+gfo39xPNpOpa6KgyGaJ3nUPnf/3h0Rv/wtK0vkY1DMGh8s+e0VY26gsXfLJ+inkHw13ANgw9CHAVV2a/Ju5lGEmHoDdShQKxR8nXtYH2ST2qXj9tjiYVth+du03qtAuICCgSsTVlz0uJHXNP3BCWBbT/vw39vnxL1hw74N0pNI79Q8wCgZDA8Ns2biFsdEkpulTqxbbJvTqa8R/83s6///vE/3L3xHpjD+ySiDHkshyg9NUYQopThSXXNJEo16rp6E7QAlCSvGfFdzQIa/LrRbnR2b5qFZjsWVx9+9EQbXl37SqcjhEWww5lkIUjC8Dl1SzRkBAQHWIFcsutz5z/uEC+alG67ITUtL+7PO0P/s8tq4z/JajGFu8iFw8imlLLMsiOTpGcnSMUChEJBYlGosSqqGjoMjlCb32Otorawg/8zxKyjmJ0y9kLg+j5Y5dBYoe+Yy45fpX66aUzzQ2BPyZ894LVFYkm+QwHjAf4TjtaH+UajDZlKtuVvK2yGvYZfImyiEURDyGTKa65YfOOkPcdO3KqtYJCAioCiWvfVHqxkHA0kbrMhFKPk/P3++jZ7xvSG7BPMYO3I/MjBkY0QjGDs6AoiiEw2FCehhdD6NqGqqq7lZIIAoF1K2DqAMDKBs2EVrzOtr6Td737a8G0yqG/suh6yvELddfVx+F6kODIwAV7P53vO8ec29xiDpAm+j1WqeGYrgM/a8Nj7KxSuO/jUQcUmmkaX4LCByAgIA6In75/bT8zJffK1EeAeY0Wh8nIn1vEOl7Y6fXzI52cgvmYsVimPEYth7B1sNYioLM5Ygmk4SHRtBSGZThYZRRH2v2a8G2kQOD5c/9df1x5dZffqaOWtWFhjkA8rPnv0tKeUR1N9MlrzceEV8It44DICW4qGHGUKT8k1Z7EpGqIqIRZDa3p/zgJw8SN1/vXzutgICA3RBX/WS9PPf890pb3sckHI+ujY7R9uwLjVajNiTIgSEwSuc1yJC2UdHzLdlDpGFJgNKW/1HTAoP20TxpPuqROo0nk3aX9f/nyGpsMc0TmW1xkBLL5seerBcQEFARYvmPnhTwfqB1JvNMJoaGIV9mP6VqY6phHihWrmyKyg2vaYgDID9z/tsRHFfzOn8yF5LDRaecJscwih3/nFgfSrJWeNfARA+DHkbk8sfLj32sy7N1AwICXCOuWnaXkOKjBJNQ68vIKDKz+4yEN1GVjKKGDhR/XjmiQMCEAAAS4UlEQVRUP6XqS2McAOR/ebTQDLk8/zKy3Gi8Jkfa7rL+s6otV4WzeN29MR4H21bsvHaZp+sGBAS4Rqz40R8EfBqYtG1lJxUjY8hkmSNXRc0pur5UrLp+Xf2Uqj91dwDkuV85DjjRswVH5ZHcWrjXs/XqioR00jn0bwrkTZHXsJjutQYiFgFNReaMj8pm6AsREDBFEVct+5WQnAmUGT8XUDPDo8hyjYUUJaeEwkeJW65/pX5KNYb6OwBSeLP733HNZ+0T5e8KD1eoSDH0ns1AahRGh2F4CEaGYGyk2IY3lwHTHEHyBwQXIuwTEPYSdKuNkDkNlP2RymlIvg3ifio5x5MSksmyyScAmIqUv4m+wmiNWf+lEALa4gjT1O0PnfU1X2QEBAS4QqxYtlIgzwAaMzqw1RkaKY74LYWmJZW28H7i1qmRFF3XKgB5zgVHSmmf4sviL9vHyOX5B8Qn9YOI0D7hNZYFRr5o+C2TCQ8OJCDJI3gayXXk1q0Q+0+YAJIGBoAXgD8ByP5L2sjk3omQpyM5DcHEyXqWVZzwZzkY/+FQXt6sbyYn9yp/YW2IeAw5lkTkzQuB7/gpKyAgoDziqh//UZ5z/klSyD+C+zbfAWWQsmj8y5z5y5DWr0b1g8XKazfXUbOGUl8HQFjf8HUA4RZ5nPxBfoM4QX2et2hHoBDCMIr19UahdKjdAPkPkZWPFwyRY61yw1UHVyNeTL8kBdwM3CzlGSrrlhwN1ntAvAfYD9uGfA5yZRJPAPKKLR8N9/GsOgfkgmp0qQhFQcRiyFR6mvzQp08XN11zm+8yAwICSiJW/OhBefZX3iIV/gRMzVHoXmHbMDhc7PRXAhHSnlei5pFi5Y0OD+fWom4OgPzs+YdIKU/3XZAt58h7zDncZ21gHzst9jFnMc1sI2Rv9zwkMKoV2KiOyJfVEV5ML5Cjo1EgKtra/8cLNYRYaQEPjv9cLN+4YAlPGlci7IOZqXQQsXc+fskpNuu0IfmSNsQ65oNY5IUertneGOi7QOAABAQ0GHH1spflJ794pAyrvwFxUqP1mZQYZrHJT5kpgiISulks3evDrdLfvxLq5wDY8hsIP7f/u2DLObwgkC+EgBAIRtDIYIswtowjiQLTkXL6toQQEdY3i5tX/MEPdcS8y1bLc877shTqsxASQBKVTLEQX3QCEaB3/Kf+aNp4Y6D8vvIjn91L/PbKlk+ACQhodsT1VwzKM8441e6cc6mQ8kJ8DaG2FjKThaGR0q3VhWITVv9N+eMNy/hjfXVrFuqSBCg/c/6+CN5fD1mllaATg9lYsnfc+BdfTmXePBoQunKJnyqIFT9+HuS2GdIJLGZgiZkUjX/DkYk4IJH5/BWN1iUgIKCIWLnSUq/80deE4F8o5h0FODEyVuztX8r4a8qIIsTh6q03LKuvYs1FXRwAu1j333wlZhLYVg4SDo+Im67/hd8ihVR+5LeMahG6DuEQspB/u/yXszobrU9AQMB2xJXLbhW2dTDw90br0rSYFrJ/sGyZnwhrdyrp6Cxxx2+eqqNmTYnvRlmec8ESAWf4LacaZCZTzMgH0EM/rIvQFT/6E/BSXWRVQ6INLFuxFRlUAwQENBni6ss3irldJwvBF4Fys2unHDKdQW7eCvkSyX6KmpPh0CeVVTe+S9xzbVBmSR0cABv7P2n02OFSbPMSNS2n3HTtt+ohUoAUiMvrIasaRDQKqgq5wieDxkABAc2HuOQSW1y57KdC4QAkdzRan4ZjmrB1cPy8f+I8PhEO/U1BnaGtuuGXddauqfH1AS/P/cp8IfiYnzKqRWZz25vw6KErBdQvA1TJXAM0Z39pAbTFwDIj9ofOOq/R6gQEBEyMWL5snbJi2buF4H3AmkbrU3ekRI6lkJu3li7xU7V+Jay8U1l1w0nijl836TzixuGrA2Db4j+BsJ8yqmb77t9Q2pWv11O0WL48I2FFPWVWgmiLgxCIvHlRo3UJCAgoj7hy2a0iau8vBBcDw43Wpx7IbK4Y7h8dmzjRT4gCWujbStycLVb99i/113By4JsDID/z5bkC+Sm/1q+JfGH7CMhw+CZxbf3PgxTsH9OsPb+3NQYq5GfKM846tdHqBAQElEf85Cd5ceWy7whbXzDuCEz+KakTIHN55JYBGBgqhv53RQiTcOgqJSd71Ntv+E+xcmUwXKkMvjkAtlAuAnS/1q+JsfHcGVWxlW7tS41QQVz1k/UIfOk54AntcQCkaQXJgAEBkwRx9XeT4spl3xGKtkRI/gfY2midvEDm8sj+weJZf2GCzuyKKBAOrVBEqEdddcNnxT0rXYxYDfDFAZBnfWGmkJzjx9o1YxhvnheJsH6XWLGiYWfxAtm0JYE7NAY6SJ7+sT0brU5AQIB7xPIfDIgVy/5XJJQFQvJ5YBIOt5HIdBa5ub9o+CfK7leUUUKhbyptslNddcNngnP+yvDFAbC10Fdhe7OdpmJs3DEUQgol9LlGqiKu/PFDIB/zbMFSTS+qXS4WKybahNUfeLpwQEBAXRCXXZYVK5b9Qrlq2cEC+xgpuZZmLx80TRgdQ27cAkPDE01MlUILPSHRPqK02T3qbTdcIlaunFI9/L3C8/I8+ckv9khoqGEtiWkVs/8BGY08Kn6/oq/BGiGkWCYFv655IcsqJsUgUHq7L7U1tUsIlgrEgVIRVTljIqQWByaa9rE16xcQENBQxFU/eQR4RF5wwRdIytOklB9F8C4g1mjdsCxkJgfZ7Pb8rJ2RaKG1CK5XhLxcrLoh6IjoAZ47ALauXigkbV6v6wnJVHGXLASqpvx/jVYHADW7Ejv6XWBOTeuMjIFtI6KRZ8Qvf/rv216WZ50VEYXoEajKUlsRhwjEoQixH4oIOS0px/8QJZQeoxUQEDCpEJddlgVuAm6SF1wQZcx6q62I04TNOxHU77hv23FsNjex0ReYQtX+KWGlIs0V4vYbpsyY3nrhqQMgz72oQ9q55jCsu2JZyHSm+N96+AWx8tqnG6tQEbF8uSHPOf8KKeS3q11D5vKQyYKiWCIUP22n9YsVDveP/xSvP/vsBEboSIR2qC3EIQJxCIrYGyHUN280DBhNghAoES1IBAwIaEHGnYE7x3+QZ31hJlr4OFtynBD2oQhxMJJ2T4QZBjJfQOQLxc2FtXOCvhSKoajKq1JR71Xswko2dz4gnljenJVSLYKnDoBt5y8Q0Jw95JOZN8/IlZDeXA1uDGM5Ye0bVBOKkxKGxyt+orEfiZU/3+B0i7j66iTwt/Gf4jLv/2IPMftIFI62coWTyWYOUkJaToa1S8XvrvtxxXoFBARMOsS1P93MeHQAQILg7AsWIdgfxVpsS7FYIBeBmAnMoDi9dPtzS8riUatlgWkiDANZMCVGAWRxkqFUlCxCGRSatkGq4ilpGPeohv0P/rrydVGc0BJQJzwbLSk//uV2GVXWAl3VLQCYJrJgIKI6KB7mJ0pZTCixbURY71NW/Wqhd4t7g/WZ838hkOdWfOPoGHIsBeHwgLrq19N8UK0luHH5jdcj+ESj9Qjwj4GtA4yMjDheF4vF1lx4yYVL6qDSlEB+4JwFWPk5lin3FMjxo0zbwpJJqSppaZpbNMlWNGuAuNofJOw1D95FAKLKF3Br/C0baRhgmIhCAWmaxUzPbVnsbTHo8i6QIJPp7SN/w6F/d7i8ISi2/KFU+CyVOGWmWfz/JgSKFv6Qf9oFBAQETMx4MnUf8FCjdQmoDM+22RLO3O1F24Z8AZnKFMPUWweRGzYjN24u1nWOjCIzWSgYO5WwyVSm+JoniklIFUv/hK5vFTdfc6M3C3uLuHrZy0BlLSuHRkBKRDR6h7jlmnv90SwgICAgoBXxLALw/9q71xip7jqM48/vf+a2W6gUtFqUVsQ3VWPRVyQmJr7QJlqj0Rg1kqgNGqUq2kbTeIkk2ugLDTSYQhZaIcXQZrNNrdaoTYymQVtTY72igFUELBSWnd1lL3M55+eLAYSyctndmf+eme/nDbszZ04eXmzmOef8L16trlAoyLKsNdij0bxgkMclH+wEcxUK4xaSI16wP4fE9sp1xFvPoeb0mKK15e+Zq/9K8s25nKvdzOxed7/1So71icnWyNlCoWbNMlf/AICrMm8FwFJ/1sfH3nbpERwmFZMpJeG4hcI+T+zpUGg+YQ/tnvHWUbpuww9MWjunYGMTrX+LxfEFP5ht++afat2GfZJuvuRxWdaa9icpVPo+b0MDkx1IBwDoIvNXAF4S3ulefkrT9VvkLhUKDYVk2Av6h4XCMyGEX0jjT9jgniseABIK4W5vZu+VZreugE9O/W/DiFLyvdmco5OsdUN/i8vvu+SB1dHWgMZK5W829MC2DsUDAHSR+SsArfnmq/3dn+xXZaRpg3tmXM7pqs65bdNRX7fhWy7dM6sTnF32t5DUwiMPfnWueToiTO5S1vcNSctmfL9Wl09MSSFkVqm8p7PhAADdYt73ArAfDUza4OCcv/zPGb3uO3IduNqP+XSttZiNJJXLu0zK5i1TG9nAwKS7dsz8rstHzkxz6u8bsIe37+9cMgBAN2nbdsDzxQY31k32pav+4Nmr/ySkIbnmrnmO1VahGLZIumgahI9NtKZLlkrVMLTzjgjRAABdYsEXAEmy+zc/KulnV/yBev3c1pFWLv/QBu/L1d7Qtm3TUXcNXfBisymNjbXm/JfCR/JyRwMAsDDlogBIksm+oBmuimd09uo/BLdKaX37UrVPUNik82dPnhqVXPK+yq9s6MGfxEsGAOgG+SkAOzbvc9nlR7w3mue2/LVK+Ze2Z8fxdmdrB7t/02/dtFnNVBoekddqsmLpVFJYdFvsbACA/MtNAZCkUKx9XdKl94EeH5ckuZmsVP5UB2K1TbL93jttYmK9zB7TtYvusb76DXl7nAEAWJjmdTfAdrOtW0f8E5/7mrttnfGANJVPtK7+Q6X8u24YJW+D398qaeb/LwAAs5SrOwCSpOrz22X2hxnfGz+tMxtYysrJZzobDACA/MhdAbDBwdQ8/axevL1AmrY2EZJk5fJ+e3jnUxHiAQCQC7krAJJkO7Y8mZ2e/I2aaWu3v1pdfmL43I6CliR3Ro4IAMCClqsxAOdLNPXF7PnRvS++EWDl0lF7ZNfjkWIBAJALubwDIEn20O5fq7+y+4IXkyS1cvlDkSIBAJAbFjvAXPn7P77W0/SjbnYqpOlX7LHdB2NnyqPDh72vv398tYJuzuQ3mfRqyRdJdm3sbPNhvDr2+katcUPsHGifeqOuZqN52eNKxdLU9a96+d4OROoAH5PstEv/CrJDyrRvbGzx71eutOnYybDw5b4AYHbcPRkZGV+TBd0m93dIeqNy/EgIwDkNSX+U2c8t1Y+XLl38tJmlsUNh4aEA9Jjj1eprEtntcv+YZK+MnQdAu9kRyXcWzB9YsmTJP2OnwcJBAegRw8Pjr/OQ3S3pw+JKH+hFmWRDltnGZcsW/zV2GMRHAehy1Wr1uqbbRkl3SEoixwEQX+ae7ZmeOL1xxYoVjJnqYRSALnZyZOR9UhiQtCx2FgALy8jwyHRIbNOqlTd9OXYWxEEB6ELuXhoeHdss16djZwGwMNVrNZ04flLlSvlP1y7uW7N8+fLJ2JnQWRSALnPixInFlpQGZbo1dhYAC9vx/xxTs5mqWCqeKpfCm1atWvXv2JnQObldCAgXGx0dXapC+Um+/AFciUp/vySpUW8snZ7O9h08eHRF5EjoIApAlzh27Ng1DdfjJr8ldhYA+VCplM793Gw2+mv1ib8cOHDgZREjoYMoAF2iUO7bJtea2DkA5EexWLzg92ajuTj18EykOOgwCkAXOHlqdL2ktbFzAMiXkCQK4cKhYLWp2o0Hnzu0M04idBKDAHPuhRdOvyIU079L6oo1+wF01tmBgOcLIfiiRUvfvHLl9c9GioUO4A5AzoVS+l3x5Q9glswu/hrIsszqjfHBCHHQQRSAHDtera6S64OxcwDIL/8/r9ema6/d/9yht3c0DDqKApBjiewusbwvgDZwl5T6t2PnQPtQAHLK3RN3fSB2DgDdq16rrT58+HBf7BxoDwpATp2sVt9q0ktj5wDQvdI0DY3Ub4+dA+1BAcgpU3hL7AwAul/WzN4VOwPagwKQW8aKfwDarpmmb4idAe1BAcgtvzF2AgDdL8uyJbEzoD0oAPnFHyWA9nMvXf4g5BEFIL8qsQMA6H5p5kw17lIUAAAAehAFAACAHkQBAACgB1EAAADoQRQAAAB6EAUAAIAeRAEAAKAHUQAAAOhBFAAAAHoQBQAAgB5EAQAAoAdRAAAA6EGF2AEwO8MnTi1zz2LHAJBzabMZOwIioQDkVL1eL2dpGjsGACCneAQAAEAPogAAANCDKAAAAPQgCgAAAD2IAgAAQA+iAAAA0IMoAAAAAAAAAAAAAAAAAAAAAAAAAAAAAAAAAAAAAAAAAAAAAAAAAAAAzNF/AV9GF55d2HG2AAAAAElFTkSuQmCC;" parent="1" vertex="1">
          <mxGeometry x="-71" y="1046" width="62" height="62" as="geometry" />
        </mxCell>
        <mxCell id="VDSIXk6-y_P9sWDttT4S-12" value="" style="shape=image;verticalLabelPosition=bottom;labelBackgroundColor=default;verticalAlign=top;aspect=fixed;imageAspect=0;image=data:image/png,iVBORw0KGgoAAAANSUhEUgAAAgAAAAIACAYAAAD0eNT6AAAABHNCSVQICAgIfAhkiAAAAAlwSFlzAAAOxAAADsQBlSsOGwAAABl0RVh0U29mdHdhcmUAd3d3Lmlua3NjYXBlLm9yZ5vuPBoAACAASURBVHic7N15mFTVmT/w73vuraqu3kFAXHBDFEQ0xiVxF000MRq3BCeLC0Zj/E0mzmSSmMmijZq4ZLJNlknUuCWZJCQCLnGJC+57VBAQRURAlL33Wu897++PahCwm+6uuveeu7yf5+FJaLruea2urvetc897DkFUh5nweGl/gI5XGocyYV8AuwFo6PvTDqAHwBICFmvwk+D0XEyl1SbDFsnDTyOLFvsIDT2VmPcHaF8AOwJo7PuWHgBrAH6dQa8qUo+i03majkDeXNQiiRjnj4VlT9Xgowg0EcAEVF6nIwD09v1ZwcDriukF2PQISjcsIIBNxh1VZDqAyHmyd2eU7S8T0RcBjB/mozWAx5hwG0al/oTJVPIhQiEAALwAR2qoiwg4E0DTMB/ezcAdivWNNAVP+xGfEADA+GwaVsu/MOh8gI8FoIZ5iaVM+INy9A2Em9/1IcTYkgJgqB7iHVWq3MaM6QAytV+Q3mHia6FTv8VUcmq/nhAVvBBHs7auBvExnlyQ6DFi97u0P57y5HpCAGC02VDvXMyEbwPY1YNLFhm4RbloI9y0xoPrxZ4UAINhJjxavpgI1wBo9WGEV5hxEaamX/Th2iJBeD5GaKV+SsC58P53m5lxq3L01+kgdHh8bZEwnLrgEHbVjSB8yIfLdxDTf0Hf+Fu5NbB9UgBsz1xuJXJuBvgMn0cqMeFbODb9c5/HETHFC3EYs/oLgD18HYiwjLSeRlMgBauoCquLLmXi6wGkfR5qNrnOBYRbpWAdgBQAA3mcdyJdvg/AgUENScAtmlNfllsCYjh4gXUqE/8FjGxAQxaJ6fM0xZ0V0HgiBhggbV/4E2L8e2CDEi0ix/kE4ZaVgY0ZIcNdbJEMT/buTLr8FAJM/gDAwHRF5VvALD8XMSS80PoMg2cFmPwBIMPEf+FXrTMDHFNEGAOkrYtuCzT5AwDzfmypxxlf2SXQcSNCEs225nIrOakHAOxpYngGvqgeK/+3ibFFtPACeyoz/wGAbWB4m4n/yPNxrIGxRcRo+6IfE/gcM6PTHqyc+xnn+7GGK9KkANgGkfM7APubjIGB/8Dc4hdNxiDCjRdiLEP/HzzpSKlaHSs1kxdjZ4MxiJBj66JpxPwfRoMg7M+WfTvLbe+tSAGwpbmlrwAcimlNIvo15ub3MB2HCB9mEDP9H4CxpmMBMIbLdJvpIEQ4Mb6yB4NvMh1Hn1OhvvRl00GEiRQAmzzEOxLhh6bD2EITKftnpoMQIbTQOgegqabD2IzoY7zA+pzpMET4sFX+OYa/CZVvmNT1jC/vZDqOsJACoI+yy1egst1keDCfhkfL4XmjF8bxMtQx+BrTcWyLwdfzEqO3I0TIsH3BVIA+bTqOrXGztvT3TUcRFlIAAMBcHsvA+abD6A8Rf9d0DCJEetR0IJT33HdFyTrPdBAiPJjV90zH0B8CLpCugAopAABAORcDgbZRDR3jBMwtGl2UKMKDgf9nOoaBMPPXTMcgwoFx4SQAx5uOYwAZrZwLTQcRBlIAACDmz5uOYXuUwhdMxyDM41dxCMhsh8ogJvNCX7Z2FRGjbZxrOobtIcI50hEgBQD6Pl3vYzqM7WGm00zHIMzTpEL/OtBanW46BmEeAWF/HYxH+kuTTQdhmhQARGGdptrSJDyck3tWCUdhWvk/gCjEKPzF+PJOYOxrOo5BOZF47/dV4gsABRxiOoYhsdXBpkMQ5jBDgfjDpuMYFPEhzPK+kmgWH4oITK9romi89/so8b+oDEw0HcOQsBX+ilr4Zz52D3i//2rVY5EnZ7uLqGKOxHsVgaPx3u+jxBcAAEfizUoR72Y6BmFQCuNMhzAM8lpNME2Rea1GJU7fSAEACs0uVdulw7ObljDAtSL0849SrMIHjaYDGKJm0wGYJgWA2cNUhqPOdADCqLTpAIZMy2s14aLynhqVOH0jBQDQazqAISF0mw5BGESUMx3C0FGP6QiESRyN91Qg8a9TKQCADtMBDAlxNOIU/iAnOj//KMUqvEcUlZ9/VOL0jRQAhKWmQxgKDXrTdAzCqCWmAxiyiPxOCX8ozVH5+Sf+PTXxBQABr5mOYUhcWmw6BGEOTcZGAGtNxzEEq/tiFUmlovGeykDi31MTXwBo8JOmYxiCEprtF0wHIUyLxGv1CdMBCMMc93kABdNhDEbJa1UKANjpuQC06TAG8RQOidIiMOEHAj1sOobBECH0MQp/EW4tAPSM6TgGoeHac00HYZoUAEfSWhBC/UJgwl9MxyBCwNV/A+CYDmM7HGg9x3QQwjxiHfb3rEcIv4nCLTVfSQEAgDXfajqG7chDpWaaDkKYRwdiLcD3m45jYHwvTcEa01GIENDpmQDypsMYCIFvNx1DGEgBAABN6b8AWG46jP4QcCOOpnbTcYhwIMU/Mh3DQIjCG5sIFuF/2xm4yXQcA1gJtyvsMxSBkAIAAA6hMhOuMR1GP3KaHXlTFZvRfngc4PDdsiJ+kCYjCosURUCUi+sBhG7tEjH/gPDXkuk4wkAKgE2OSd0I4HnTYWyJQT/A1Pp3TMchwoWI/w1A2XQcWyiR5ktNByHChXDTO8QUrg9WjJegu8I6MxE4KQA2IdKscAmAoulQ+ryMnP1j00GI8KHJWMgIz4wVEX5AU6LR+y0Cput+BMbLpsPoUySLLyT81TUdSFhIAbClY9IvMeMbpsMA0MWkz8bJFJZiRISMWqSvBPhR03EA/DAW6h+YjkKEE+EXRdLW2QB1GY+F8Z9U/l1YipFQINMBhJF6rPRTZvy7oeHLrOlUHJ96wND4IiL4NezArnoCwCRDISwi0kfLzn9iMGxfMJVZ3QdDJ/Ax8BvLvekSE2OHmcwA9EMfk/pPYtxmYOgSg78gyV8MBU3CBiL9CZjZ03wJsf6EJH8xFOTcPJdAXwAQ+OI7Bm5X7q7/GvS4USAzAANhJvVY6ToGfTOgEbsY9Bkcl3owoPFETPA8jGHL+jvAhwQzIj1PrntqZV8CIYaO7Ys+xow7AG4OZDzCj5Rz02UEcBDjRY3MAAyEiPVxmW8x+Ez4f2zky8z6YEn+ohp0INZSxj2KCf/j91hM+D11ucdJ8hfVIOfGh8jVBwD8nM9DdRPoc5Zz07ck+Q9MZgCG4snenZWTupaBczy+cp6Zr0c+fY0s+BNe4AX2VIb+FbxfF/Amkfo3muyEeCdCERWML6eg+P8x8dUAGj2+/D3k8lcJvwvl5m5hIgXAcDxWPoZYfxegE2u8Up6AG7XrXI8T6ld5EpsQfXgJMiio6Uy4DMAeNV2MsIyA6wB9C00O/v6tiDfGhbtqG98kxoUA6mu83INEfDU5v3vci9iSQAqAKlwwv/eTGcK9D/VYeLM4tLsoGQIOyro4rtFdc82Ghkmyva/wG8+EtfaQa27L6HlfaCjNhaXXDelxjhqDXHoqivZBfxjz/LfOp2mQvmnhK8b5rWuvPGNRw0Ov7ZR9cTmoOLR9ror77IieT06BVVanjPzFtL/7HGbsSAFQhcWruvaFpRcDwAaH8GpBYVlJ4b0yIaeBnCY0WYxmxRiXZuyVZuyf1agjBgivT9yxdaLp/waRDK+9195GRFcAjIy7GBlnEWz3Tdi8Fop7AQCaGuDQGJStCSjZk1C0JgIgMPOMSTuNaDP6HyAS47XV7QsJtB8VHNTNW4nMkjWwl2+A6srD6sxDN2SgGzJwd2pBacIYFA4cB2d0EwDAYmvyhJ2aFhn+T4gc23QAUbeDzTiu0cVx8iFJhBqhaE1C0TK1ZYAQQ8N1NvIf2RP5j+xpOpTYky4AIYQQIoGkABBCCCESSAoAIYQQIoGkABBCCCESSAoAIYQQIoGkABBCCCESSAoAIYQQIoGkABBCCCESSAoAIYQQIoGkABBCCCESSAoAIYQQIoGkABBCCCESSAoAIYQQIoGkABBCCCESSAoAIYQQIoGkABBCCCESSAoAIYQQIoGkABBCCCESSAoAIYQQIoGkABBCCCESSAoAIYQQIoGkABBCCCESSAoAIYQQIoGkABBCCCESSAoAIYQQIoGkABBCCCESSAoAIYQQIoGkABBCCCESSAoAIYQQIoGkABBCCCESSAoAIYQQIoGkABBCCCESSAoAIYQQIoGkABBCCCESSAoAIYQQIoGkABBCCCESSAoAIYQQIoGkABBCCCESSAqAoDF2eWNt+4dMhyGEEGGxeM3GAwg0znQcSSMFQPAataa5i9/tOMR0IEIIYdriNRsPAKuHATSZjiVppAAwoxUKD0oRIIRIsi2S/yjTsSQRmQ4git5Y07GXZiz14FIblOKP7TNmxCseXEuEXGbGnJPA/GkmGh3UmPuNbpy8a1N2v2oe+053ftGidT0LvY5pIMS8DkR3Fa84/YGgxhTmeJn8XUUTJo9pedODsBJFCoAqvPjuu/WNqr4H3jx/UgQkQHrG7B8C+C/TcUQC07WlttPluYoxjz/5s6tKzZPHjOnx4FqJIgVAlRav6XgRjIM9ulwHND4+cefWFz26ngiRzFV37staLzYdR6SwO6nU9hl5zmLI82l/wj8n7tgqt1OrIGsAqsSabvXwcq1QuF+6A2JK88mmQ4gaIutTpmMQ3vPjnj8z3ebVtZJGCoAq6Y3NNzB4kYeX3EFrekiKgPhh5v1NxxA1DJ5sOgbhLZ8W/L1mdzff4OH1EkUKgCpNnkwlrdRpANZ7eFkpAuKIIMls2EiesxjxKflvYEudPmECFT28ZqJIAVCDyWNa3lTaOgbAag8vu4PsExAjzARgoukwImi/vudORJwvyZ/QDo1PTBrd/IZn10wgKQBqtM/OTa8pbR0Pb4sA2ScgJrIz7hkHoMV0HBHUWPeDWbuZDkLUxrfk7+JEWTRdOykAPCBFgBiIRrmqHnwBsKvkuYswSf7hJwWAR6QIEP0iuZddNXnuIkuSfzRIAeAhKQLEtpghn2KrxKzluYsgSf7RIQWAx6QIEFuRDoAayAxA1EjyjxYpAHwgRYAAIB0AtZNOgAiR5B89UgD4RIoAIR0ANZNOgIiQ5B9NUgD4SIqAZNPkyBR2jdix5DkMOUn+0SUFgM+kCEg0WcRWKyXPYZhJ8o82KQACIEVAMsl+9rVjLc9hWEnyjz4pAAIiRUASkXx6rRXJDEAYSfKPBykAAiRFQIJIB4BXpBMgZCT5x4cUAAGTIiAZpAPAM9IJECKS/ONFCgADpAiIP+kA8I50AoSDJP/4kQLAECkCYk/uXXtFOgGMk+QfT1IAGCRFQHxJB4B3pBPALEn+8SUFgGFSBMSVdAB4RjoBjJHkH2+yujYk3ni3e5JW7iMAxnp42Q5ofDzUv2jMZF81+xhiNdECvVG4/NOPgohNh1UTZkpfOacDQLPpUGKip3T56c2Rf120sVLF338NrA8B4XmdOe+XaCNtOqyBSPKPPykAQiRxRUDb7Na0wl/AOPH9L9KzpJxzi9//zBJzgdUm23b3bi45y03HESeKsWeh7Yy3TcdRLftbt56guTybXadp09fISm/QmdShuPrcZSZj648k/2SQWwAhkqjbAdfObEkTHtg6+QMAf5S1NS8zY/alZgKrnXQAeI8jfEtFffv237pu8cEtkz8AsFvaQRUKC/HNWyaYiq0/kvyTQwqAkElEEXDtzJZ0MfUPAIcN8B1ZBn6WvnL2HfjhrB2CDM0jkU1WoRXFToCrbx6nvnXzMi71fhms+51tZe1mFZfnhaUIkOSfLFIAhFCsi4DBk//7GGemy2pBZsack/wPzDvSAeC9qHUCWP91+0WqvfwWO8U9BvvesBQBkvyTRwqAkIplETCc5L8Zj2Xwfam2OT9H28y0b7F5iiKVrCKBEI3ntO2WOvrWLY/qYu8NzNoe6sNMFwGS/JNJCoAQ860IsPCPwIuAqpL/ZkTEX0tT6qlM26x9vA7NU5V96yeZDiOGJoX9TAD7stuPUr3uGjiFY6t5vKkiQJJ/ckkBEHK+FAGMEYEWAbUl/y0dwkSvhHmBYN8ZAE2DfqMYrlCfCaC+fftvXSf/OLvlmlo/gy4CJPknmxQAERDpIsC75L9JqBcISgeAf0J5JsC1M1vSV8z6E2lnwIV+w8XazSo4r+B7t4734noDkeQvpACIiEgWAd4n//eFdYEgyf1/35AO1XNrXznr8HQx9RIU/YvVMALKrvPs2uw69apQetWvmQBJ/gKQAiBSIlUE+Jn8NwvfAkFmHb12tYhgDsleAG1z7fSM2W2K6QkAe236stXQ6m0R4NPtAEn+YhMpACImEkVAIMl/s5AtEJQZAN+EoBOgrm32HhnqfBTAFQCsbf897EWAJH+xJSkAIijURUCwyX9L5hcISgeA34x2AqSunHOuJrzK4CO3931hLQIk+YtthbqtRmyfL2cH1PILbS75b40wq2Tzl/GdMzcEOaycAeA/Zek9Ct87K9jn+NqZLelC6tcgfH44D3N7O6CdgmdhkLLymlIH4kfTh31OhiR/0R+ZAYiwUM0EhCX5A30LBOnlurbZxwU5rHQA+C/oToDNC/2GmfyB8MwESPIXA5ECIOJCUQSEKfm/b5wmPBLoAkHpAPBfUJ0AAyz0Gy7TRYAkf7E9UgDEgNEiIJzJf5NAFwhKB4D/gugEGGyh33BZDa1QqUzNcW0y1CJAkr8YjBQAMWGkCAh38t9SQAsEZQbAdz53Agx1od9wWfUjAi0CJPmLoZBFgDET2MLA6CT/rfm1QJCZ0lfO6YRsA+y3ntLlpzeDiD29apUL/YbLzbVDl4ueXa+/hYGS/MVQyQxAzAQyExDV5A/4tkBQzgAIjOdnAtSy0G+4/J4JkOQvhkMKgBjyswj4/cvLjots8n+f5wsEpQMgOJ51Ani00G+4/CoCLr3ruVMk+YvhkAIgpvwoAroKzogfP/3Wg4h28t9k0wLBJzNX/a3mXdYY5Ok9YzEwJj6q1mtk2u7cO00dT8GjhX7D5UcRcOPTC+9a2dkryV8MmawBiDmv1gR0FR185e/zsGBdl0eRhUoPE19avvzMm4f9yJ/MzKZ67POI6b8BNHgfmuhHLwPfLDeVb8XXp+WH++DUlbPPJ8YvADT6ENuweL0mIJvJ4M7zT8K4lhpfipL8E0EKgASotQjoLlWS/6trY5n83zeMBYLpq2ZNgsZ5AF0IIHTHEidEFzH+rKF/W24766VBv/vamS3pYvpXAH8hgNiGzI8iYPZ5J2L31irrG0n+iSEFQEJUWwTE/JN/f1YqxrmFtjMe/cC//M+9mVRH6Wxi/iqAQwOPTGzPCwz+VXlE3Z/xtZM/kE3ttjuPUaR/D8DTBYReCc1MgCT/RJECIEGGWwQk5pP/BzEz/aKM0jfRNq3U2DZrTInUdIC/CmBX08GJgTGwlsC3WMy/zLed9Q7a5tpp6vgegO/BwL3+IWOuFAFOybNLZjMZ3Dn9JIxrHmIRIMk/caQASJihFgEJ/OTfn5VMWEqMwwF4t2JLBKHIhGeIMR7AONPBDAlrOD0bwdrx7JJDngmQ5J9IUgAk0GBFQII/+QthFGsHTvcGAN7tczToTIAk/8SSNsAE2l6LoCR/IcwhZUOls55eM18s4rRbHsDKrt5+BpTkn2RSACRUf0WAJH8hzFOZBs/nZjcVAcs7et7/oiT/xJMCIMG2LAIk+QsRDqQskEp5ft18sYgzbvtHZSZAkr+ArAEQAG564a3Dfvn8W08uWt/t/buOEGLYdKEbbrGfKXsP1KUzfOmRB5517akHz/ZlABEZUgAkXZQP9hEipnQpBzfv32wcWXZOZ1IH4Orzl/o2iAg9uQWQZJL8hQgn8vetmV2nXhVKr246RVAkkxQASSXJX4hEY+1mFZxX8L1bx5uORZghBUASSfIXItRYu8GMIzMBiSYFQNJI8hci/DzcDXAwMhOQXFIAJIkkfyEigMEeHgw0pBFlJiCRpABICkn+QkSCLpfArAMfV2YCkkcKgCSQ5C/6w1z5I0JFF3sG/yafyExAssg+AHEnyT/+WIO1BrMDdjWIXTAzwC5Y674kr/ty/XaSPhEAqvwPFEAEUgogC0QEJgtkKRDZfV+Xzw9ec0s5aB/7/4dK9glIBikA4kySf6yw1mBdBrsOoF2wW64cHWvqUzwRSNkgKwUoC2TZIJWqFAdi2Fg7cHo2hGZWhpSV15Q6ED+avsR0LMIfUgDElST/iGOw60C7ZcApg91SYK1htSKlKnvZWymQnYKy0n2zC2JADDi9G8Bu2XQkW5EiIN7ktzKOJPlHErtlaKcEdoqVRBCST4I1I6rMDKQyUHa6MmMgtuLn3v+1kiIgvqQAiBtJ/tHBDF0ugN0idLkEGFj5bQQpqFQaZGWgUnWJnx1gpwQntxEIcb0nRUA8Jfs3L24k+Ycfa+hyEVwuQLul+HzKrxZR5RZBKgPLrgOStn6ANZyeDZG4vSNFQPxIARAXkvxDjKGdIrhYgHYKpoMJNZXKgFL1UKk0kvD25OY7oEvReU1IERAv8f8NSwJJ/qHE2oUu5cHlfCQ+4YUJkYJK14FS9SDLNh2OL/w+8tcvUgTEhxQAUSfJP1wY0G4RXOztm+I3HVDEEaCsDChTD2VlYvOOFbaWv+GSIiAeYvLrlFCS/MOjb0GfLuVC18oVF6RsUKYeViob7YWDIW35Gy4pAqIvwr9FCSfJPxyYK7u3FXuTs4rfNFJQmQZY6fpIFgJhbvkbLikCoi1hS25jgpnSpdRMSPI3py/xO93roAvdkvyDxBq60I1yzzq4hZ5IPffaKcUm+QObDhDSz6CNJZdEkGU6ADF8Nn34GAJfbTqOpHKLObj5DnC5ALnJbxAz2C1Bl/MACMoO+QZDWsPNtUf2vv+A2K1XWLiRn5zznOlQxPDEc3ltzJHSEyXvBE+Xi9CF7sr++yI8tIYudIFLvVCZRqh01nRE/XILXfHtBmGZjYwiKQAiyNJ4Q0fv1mdksetU3rydkulQvLXp/nlMPpGyduHmO8GlPFS2KVRbDutSHrocnX7/YSP1oukQxPBJGomo9IzZTwM43HQcscYautADt5QzHcnglAKRBSIFsmywskBQgCIQWZX9+IkGP8KXdd9RwgxmF9AMhgZpF7z5j8ETCIfBStdD1TUaP7aYXQdOb3Rb/gZDyu7RjRe2oI2isxhDAJAZgMgihXNY42UATaZjiaPKdH8Yp2ypcuzu5iN4U5W/e5XkSG2eGKDtvD1UjiZ2Kq1sm44mdh2EaU2EW8pBlwtQ2RaoVMZMEAy4+c7YJn8AUHbdZ7Uk/0iSGYAIS82YM53AN5uOI064735yaKZriaDsNGCloaxUJfGHtfWNuXKioVsG3BK0E56zDpSdgapvrsyGBChOLX/9oUz2Fn3N+ReYjkNUJ6TvJGKo0m1z/gTifzEdRxzocgFuoQvQBj/MEEAqBWVnQHYaZKWj+1vKALuV4421UwLrstkJAiJY9S1Qdl0gw0XhlL9akJV6V//owl1MxyGqJ7cAIq4EviRdWQuwu+lYIosZbqEb2uC9flI2KFVX2f9exeTXklApYuw0FPrORnCKlbMRHAO74DHD7e0Ap+pgZZv9XRvAum/q378hTCKyXA3rONNxiNpE9bOF2IJ95ZyjFfNcyL4Ow8ZOudLTb+BePykLlK6HStWBVLJ+dMy6clBSKWfsubeyrSCf9g6I2il/w0Xp7Df0tef/2HQcojZSAMREum3WD0D0HdNxRIlb7IUu9CDQj2lEUKksVCrrW/KJGnbK0OXKgr1g1wwQVLYRVrrB06tG9ZS/oVJ25hn3+guOMB2HqJ1s3xgTJYy4AqBnTccRCcxwcx2VLXwDSv6kFFSmEammMbCyzZL8t0B2Cla2Bamm0VDZ5gBnQxg63+3p7nysHbiFbk+uFUZk2Tm3vvFE03EIb8gMQIxkrpo9XloDt49dp7JZTEAnsZGVgko3QKUzkF+3oWLoUhG61Bvcz0nZsOpbQVYN6y9icsrf9ljpxk86155zv+k4hDfkHSlmpDVwYNopws11BDLNTJYNlWmCsuNzhn3guPIz08Xuvj0GfEaqr0uguj0DpOVPRI28NcWQtAZ+kC7l++7L+pv8SaWg6hol8XtpUyFQ6Km0EvqKYGWbh32egHZKcHs3+hSTeZTKrNLXXbCr6TiEt2QNQAyVwJcAWG46jlBgwC30VFqy/Ez+pKCyzbAbd6jsOifJ3zsEqFQGdtMOsLIt3u162C+Gm++ELgxjER8zdL7Tv5AMI1KuptRxpuMQ3pMCII7azujQROcACNs+toFz8x3QxR5fx7AyDUg1jYaVrpfE7zOVzsJuGg0r4+3K/W1tOvJ5KLeL3FI+hFtGeyiVuQzXnvOm6TCE95LVfJwgeu6fV1jHnZ0B0dGmYzGCGW6uE9rxrxebrDTsxpFQqbrwbs8bR0QgO1OZpteOb8mXXQdwnUF/vjrfCXA8t8JXduYZfd30C03HIfwhMwAxltjWQGa4uXb/kj8pWNlm2A0jE7eBT5iQsmA1jIRV3+rbrn7aKcLJtQ+Y4JkrhyLFEVl2ztX2x03HIfwjBUCctU11SPEXAcS3MXlbrOH0bqwcROMDZWdgN42Ckun+0FCpusrPpMrV+4NhpwSnt/+9AgLpTjCBFKtU5kz897nxbWsQUgDEXfH7Zyxl0KWm4wgEM5zedn/6sIlgZVtgNYzweRGaqAaRgtUwAla2xZfbMeyW4fRu7KcIiOfUP6Uytzk/PPcB03EIf8lnmIRIQmugm++ELuU9vy5ZqcomMTLdHwmsXbi5Dl8KQZXOVoqMPtopwu1t93wck8hOv6uv/5Kc8pcA8lEmIeLeGsiuA132Pvlb6QbYjXKvP0pIWbAbR/rSKaDL+a2m/eP2uiBSrlbpY03HIYIhBUBSxLw1kMt5b9v8iWDVt0JlmyATZVFEUHVNsBpavb0lwH2vtU2jkA1SMXobTdd9S1r+kiNe5avYrji3BrqFHs9asUhZsBtG+LaoTASHlA1lZ8BOydMtoFW6vm8AAFrHYv9/aflLNc7omQAAIABJREFUnhiVrmIoYtsa6FXyt9KwG0eBLDmtLy7ISvX9TNPeXHCb1xpl6iO/D4S0/CWTFABJE9fWQA9W5qt0HezGkZF/Mxf9IOrbtGl4e/z3fy21zV8tqExj7dc1RVr+EksKgASKY2tgrZ/YrboGWHWtHkUjwsrKtsCqMVn391qzMg2VMyAiSFr+kks+6iRYnFoDq27HIkBlmnzfW16Ei1vshS52V7Vw1NrO+hC/WlH9Iqf8JZvMACRYnFoDlZ0B2cOfBbDqWiT5J5CVaYBV1zL4N26D7NR2F4da2RZY9S2RaA+UU/6EFABJFrPWQCvbOoyWrL42v2Ge+y7i4/1NfYY2EUqkYGUHv02kUn0nFja0QqXrw7ugVFr+Ek9uAQik22b9AETfMR2HFyq7wLVvf492pSrJ36tV4SLStFuCm+sA9MCdJKRsWA2tIGVXPQ6zC3b7Ti90HbAuV16nHrYnDpWyM8+4119wROADi1Cp/tUsYqOEEVek0Xk8wB81HUutKj38o6DLOehSHqzLm+/zkrJB6TpY6QZZ6S82U1YaqnEU3GIeXM6/f7ofVRb8qVQWKlX74U9EFsj+4K2BoAsDsuycW994oi8XF5Ei74ICAJC5avZ41ngZQJPpWDynNRCn3dqE/0LwmvGrMLDSjZ90rj3nfo/CFBEmBYDYLDVjznQC32w6DiHEwGopDChVf4u+7rwLAghTRIAUAGIrcWoNFCIxGGB2wK5buYXhlsHa7VsLUykMpOVPbEvWAIitlMCXpIHDAexuOhYhxBDRpoOJbABbtCkyQ7tFcKmQc8k+zlR4IpzkxqjYWsxaA4VINCIou06nsi2nSsuf2JYUAOIDnMtPfwLM15mOQwjhiesKbWc+YjoIET5SAIh+lXZa1wZghek4hBA1WVkau/YK00GIcJICQPTv4ovLTHjLdBhCiOoR8BYuvrhsOg4RTtIFIPrV2DZrTInUcoDrTMcihKhaKcXl3Xvbpq02HYgIH5kBEP0qEV0iyV+IyEuXKfUV00GIcJIZAPFBbTPTaUovB3is6VCEELVhYG2ZO3ZH2/SC6VhEuMgMgPiAFNmfk+QvRDwQMCZFLWebjkOEjxQA4gMI9P9MxyCE8A6B/tV0DCJ85BaA2Eq67c4DQHqe6TiEEN5iUh8uX37ay6bjEOEhMwBiKwx9kekYhBA+YP6S6RBEuMgMgHjfT2Zm092pVQBGmA5FCOG5zhLbO6Pt1JzpQEQ4yAyA2CzVY58HSf5CxFVLipzzTAchwkNmABKu7uo7dmeHJjFwNIguBdBgOiYhhG96AfwPAU8Q47XCFacvBxGbDkqYIQVAQtS33bmzBu/HxJPB2A9Ekxl8AIAm07EJIYwpusXejXDLRYCWsIUXFay5Tnrpw2hr06aDE/6SAiBmJNELIYZDF3rgFnu2+SqBlCpCWesYaikpeomYHnOzy/6OtjbHSKDCc1IARJQkeiGEF/ovAAYihUGcSAEQcpLohRB+Gl4BMBApDKJICoCQkEQvhDDBmwJgIFIYhJkUAAGTRC+ECBN/C4CBSGEQBlIA+Chz1Z37gt1PsabJIOwPYBIk0QshQsRMATAQYrKsnCJ7FRNeh7J+415z7r2mo4orKQB8kp4x+4cA/st0HFGmiHDILiOw98hGjGrImA5nKwVHY3VPHk8v34D1uaLv47XUpXDEbqOwS3MW9SnL8+vnyi7yJRdrcgUs3dCDlZ05ODrc7eGjGjI4YrcdMLYxizrb+z3NeksuciUH7/VWnpNVXXloDvdzUo1wFQAfpOzMM+71FxxhOo44kgLAB5kZc05i8P2m44gqRYTpB+2B/zhyX4xtqjMdzna5zLjv9fdw5dxFeKvd+zfRnZrq8N1j98NZ+++KlApu485c2cWzK9bj0bfXYc5rq/BuVz6wsQczfmQjLp86GZ/cZywUBfcW1lko45kVGzD3rTWYs3gVNuRKgY3tp7AXAABAmfrv6mvO+6HpOOJGCgAfpGbM+SWB5fjNKmRTFm46/VCcNGGs6VCGpbvo4EtzXsAjS9d4ds2Ddx6BP372o8ZnPzQzHlu2Dv/z7BI88fY6o7GcMH5H/O6MQ9GYto3GUdYa97+xGv/zzBK8/F670VhqFYUCwLLTC5zrvzTFdBxxI2cB+ICYR5uOIap+ccqHI5f8AaApY+O2Mw/DlB1bPLne7q0N+NPZhxtP/kBlRmbqXmMw+/NH4p5zjvbsv3G4DhzbilvPOsx48geAlFI4deLOeHD6sfi/z34Ue46QHbT9pIFW0zHEkRQAIjRO3ncnnD5pF9NhVC2bsvDTkw/yZFrthx+fgpHZtAdX8tZHx+2Ahy44Dm3HTw70lgQB+MnJH0LW9n79Q61OnDAWT1x0PL52+ASZUhWRIgWACI2vHLq36RBq9qGdWnHE7qNqusb4kY2hngWxiPDVj07APecejZ2bs4GMedQeo3Hg2PB+CKyzLVw+dTL+cvbhGBHCwk2I/kgBIEKhOZPCR8aNNB2GJz4+fseaHn9CjY8PysE7j8B95x6DfXbwv7P1YxF5To4fvyPuPie4wkiIWkgBIEJh1+YsrABXdPtpt5ba7gfv0VrvUST+26U5i7vOOQp7j2z0dZzdWqLznEwc1YR7zjkaOzaGu4NFCCkARCg0Zswv7PKKqrGOaYjYczGqPoO/fe4IX1s2m0Kw8G84dmupx8x/OQJNEftZimSRAkAIj63sypkOIXC7ttTjhtMOhV1r9RMjk8c042cnH2Q6DCEGJAWAEB57+K21pkMw4ojddsDXj9zXdBihctqkXXDOgbubDkOIfkkBIISHFq3rwhPLzG6WY9K/H7GP7+sBouaKE/YPxX4OQmxLCgAhPFJyNb553zy4MdwvfqjSlsKME/Y3HUaotNalcNkxE02HIcQHSAEghAcKjot/vfufeO6dDaZDMe6kCWND3bNvwucP2B07hfxcC5E8UgAIUaOnlq/HJ297HLMXrTIdSmhcfOh40yGESsZSuOgQeU5EuEiPioi897oL+OuClYGOWXRdrOku4PG31/tyCmC1Hl66BgvXdg37ca3ZFPYa0YiPjBvpyRa/p0zcGd98YB56S07N16rVnNdWYUXH8DszRjVksPfIRhyyywhPTh38zORdcfWji2J5pLCIJm8KAG5TLfM/vLtL2E2BGgjUAKCdWfdw2lnSPelMmRcVvlnZmcOVcxeaDiMU7nrtXfxx/vKqHz8im8a/fmRvXPKRvZGxqi8E6lMWTpowFrMWvlP1Nbzyh3nL8WgNnRljm+rwH0fui+kH7VFTIbBzcxYfHTcST6+Qt0MxOH4NO4AxAbAbwTwChF44bi9SWI6JWEEEXesYVRcALa/eeQiz+jSYjserfDAT6ja9XTD6KlwiUDmF5vl3r2PmJwh42FV8R++U07w7M1UI4Zn2fAlXP7oID765Br//7EdqOpDo2D1Hh6IAqNXq7gIuu38eHl66Br87/VBkU9UfSHTMHmOkABD94oUYC1ZnMfEJAB3FLvpOle3L8wxAKcAFsBAFvYBeZPAjSuk7aT+8VM2Ywyvxl9ybaZl3zyXN8+9ZyKxeAPB9EB8JYLDVLaOJ6EwQ/cpi9U7zvLvvbpz/92OqCVgI4b/n3tmA6Xc8D0dXP119xLjaDkUKm38sWY1/u6eq99nNDt9tB4+iEXHB83GsXkB3M6uVDPwSTGeAMdiR8nUAH0XA5azVP/UCtYAXqot5CYbVbzq0AoCZmufdfW5z3n2LiX8N8H7DGWQbNginKOjHmubd/UjjvHukZ0iIEHpqxXr8ft7bVT9+99Z61IXw+N5azHltFR5Ysrrqx+87yv+Dk0Q08Ks4QC+0HmWlHgXoFNR2S34yM37DJbWUF1pfYB7aydSDFgDZV+7epWn+PQ+DcBuAnWsI8AOIMFURv9Q8/54ZmDkzXu8UQsTAr599s+rHKiLsOaK2g5HC6NfPVf+cjKrPoLUu5WE0Imp4Lmx3gbqKSf0TzMd6e3Hswsx/4IX0IC8ePF9vtwBoXXDP1JTCy0SY6l2EH5AC+PKmidmHml6bJfNjQoTIsvZeLN1YfZfDyPrq1xCE1bMrN6C7WH13w8is7AqYVPw6RvEo62ECvgdfu/DoBHbUyzwf2y0wBiwAWubddZbWfB8w6L0ITxBwHJVTT45YePduQYwnhBiaalroNmmM2Cl+Q+Ey450aDnyK08mXYuh4IXZjRz0J4qDWv41hpR7gV60zB/qGfguApnl3n8pEfwaGt6DAAxNdF480LPz72IDHFUL4wIP2+diRpyR5+CWMZlYPghH0aVkZVjyTX7XO6O8fP1AANL9y92GK8BeY2yRovOW6d2PZXNk3U4gQGNdaX/Vje0uuh5GEg0WEXZqzVT++JwSbI4ng8NPIclo9AGAfMwHAYuI/8HwcvO0/bVUAtL48uxUKf2ag+le3J+iQ5p6en5iNQQixW0t9Taf7begtehhNOBy660g0Z6pfyLcxX/IwGhF2uln9HMBBhsOoZ6Xu4IUYueUXtyoAtGX/DMCegYY1EMYlza/cc5LpMIRIsn/96N5VP5YBvN3R610wIXHJYdU/J+35EtqlAEgMXmSdTMBFpuPos7uG+tGWX9hcADTNu+doAOcGHtL2WPwLLLlXlswKYcBhu47EuQftUfXjV3T0IleO1y2AT+27E07ed6eqH794fbeH0Ygw42WoY82/MB3Hlogxnefj8E1/31wAEPEPELb1KYwJLQV3uukwhEiag3YagdvP+khNBwM9E7Mtb4/bawx+ferBNb1JPrNivWfxiJDLqQsB7GU6jG0QK7p6018UADQtuPNIAEcbC2k7mOky2SRIiGA0pm186+iJuOucozCqobbJt8feXudRVGbtUJ/G1R+bgj9POxwNNbY1xuU5EdvHc2Ez4xum4+gfHb9pFsAGANIqLPco+sF7fP/gyTd84b2ON0xHMlTT7nhx4uINMtUXlJ2b6vC1wycEOqZmYG1vAU+tWI9VnflAx96eE8bviB0ahrf5jiLCjo0ZjB/RiCN2H+XJ9r0Fx8X9S96r+TpeOH3SLjhgx5ZhPcZWCmMaMpg4utmzI5JXdxfwbMxmRYLSmE41Pf9ex2Wm4xiqdbmfTRyVv3J303EMRFvqS4B+xsbTM7MABtwoIAzecHsuCNnNie3avSULKQCCs2tLPS6fOtnY+I8sXYMrHlmI19Z1GYthk09P2hmfnuTpjt1Vuff192raLc9LXzwwHO/Ddyx6By5Xf7hSkjWm7RYQrjUdx1CldbiPJyfGZ3kZvqpaGuuPBBDqEyqeK3VAfm1EWB0/fkf84/xj8akaFofFzW9eWGo6hFApa40bX3zLdBgiEIyG0qOmgxhMM3rtwxXD48MIfLBRl/CWU/3Wm0L4LZuycMPph+LgnUeYDsW4fyxZjZfebTcdRqj8af4KvNMp72FJkHEWweLw3+rR0McpAAeYDmQoljrVH0giRBAylsJPTj4IKsH73zqaMWNuuKc/g9ZddHDd44tNhyECknGi8fon4ikKprYnHKblbsF0CEIMavKYZhy1+yjTYRjzk6dex+vS676Vq+YuxJoeef9KipSOyO0vpn0VgDGm4xiKdl02HYIQQ/Kx8TuaDsGIl95tx0+fikyzTiD+sWQ1bnlpmekwRIAsjsxeD2MUgOo3+g5QjuO1o5iIr3Et1R+eE1Vrewo4f9bzKGttOpTQeH19Ny65+5+ygDlhFEdm++um2ptbhRBbkU4vsaorj2l/fhqdBZm5FOGlAERidV09yWaAIhpWdiVvtfeYxjrcdtZhSFvymWJ5Ry9O/+OTWNUVng2iRHA0NZgOYai6FYC1pqMYihGqti04hQjKw0vXmA7BiIN2GoH/PGpf02EY9cTb63DSrY9jWXtkpoGFx1wabTqEoVqrAERi1c7uVvLuq4roWbC2E08uj8wiIM9devg+mDS62XQYgSu5Gtc9vhif+dPTWJ8rmg5HGFS2xpsOYWiIX1cA5puOYyj2tiMzrSISquC4+Pq9r0AneBGArQhtx5vbltmEx5atw3E3zcWPnlwsW/0KFK1ovP6Z6VVFjEdNBzKYkSqNPW2ZARDhlSu7uGjOi7IDHioHEsV9R0SXGf9Yshqn/P4JnPWnp/CGnP0h+hTtSXBpB9NhDEqxnmt39uafbm7MdiPE5wF8ND0iSmcBiQRhAA+/uQZXPLJANsDZwsWHjceX57xoOgxP5counl2xHo8sW4vZi1bJ5j5iAITe9PFoLv7VdCADI3Qig2dsHDEtj/n33AHw+aZjGsjkVONMECKzm8a7PYXTAEw0HUdSvNddwF8XrAx0zK5iGau68nhqxXq8G6LV3g8vXYOFa4d/KmGdrbDniAYctcdoZD04DvhT++6M5kwKXUXzbXBzXluFFR3D68xwtEZPyUFnvoy1uSKWrO/G8o5cTPc5CP9ti1yp3A3Cr03HMVTF1MF7ofjXz5qOYyAM/E1NQNEGACbcSIzzDcc0kGXff2HB578/bb/I7ASUbpu9J0gKgKCs7MzhStl/HgBw12vv4o/zl1f9+Ia0ja8cOh7/fuQ+NRUCGUvhE/uMxcxXgy3M+vOHecvx6FuRaHYygiNQ1HSVnM6JO7Z+23QcQ8VzYfNodRiAcJxFvQ1F+iagsg8Auqec8jQBj5kNqX8EuhbTpkUm+QsRZb0lBz9+6nWccvsTWNdb22r2Y/eIxC7jgsNfAEQNTYVDwPWm4+gfP0z74VmgrwAAAK30dxG+uaA3Oq3craaDECJp5q3uwLl/ew4lt/rk8NFxIz2MSPhFuyXTIcRTg74ZwJumw9iGJuLvbvrL5gKge//TniLgViMhDYBIfxWTp8mrUwgDXli1Ebe9XP3Sm91aG1Cfkh08w0w7Rdm72ie0JwpE6t9Mx7ElBm6myXhu09+32reTXOfrAN4KPKr+/apzymkPmg5CiCT73+eqP9qUAOzRKvt3hBkXk7dtdZBosnM/M35rOo4+S1VBf2PLL2xVAHQcdEYHkT4bgNlXBeH5rqz1n0ZjEEJgRWcOS2rocd+hIeNhNMJL2ilVZgCEr1Sj/ncQ/dNwGDlSehodgs4tv/iBkzs6p5z2IoimAXACC21rS13oT2PCyfLKFCIEVg6zhW5LDWm5BRBKrKHznYN/n6gZ7YkCFd1PgvC6mQDgkqIv0H54adt/6vforq4pp/xdE50NIOCdLmiRTe7U3imnJfM0FSFCqLtU/WeBjCUFQOiwhpNrB2tprgoKfRjrCPpEAK8FPHSBNH2W9nPn9PePA57d2TPllFka6iQAQSXjh2HZR2+ccrr5xmEhhIgh1i6c3nawY36DpqShyVhBlj4a4LkBDbmaSJ9IU9zZA33Ddg/v7jngU487duogAA95Htr7ygBf0bU4f1LX5E9s9HEcIYRIJmboYg5OzwawK8nfFJqEDbSIP86MGQB8/EHwP4j0QTQZT2zvu+zBLpPb7xPvAfh48/y7P8/AdQTs6lmMoAc14dKeKacGPS0ihBDxxgyty0C5CF3Kg2XDn1CgaXAB3cYL8Vdm+jlAJ3h4+RUEuoz2138eyjdvdwZgS10HnPp/3VZ+PIEuJmBB9fGhDOAuVvqorgNOObFnyimS/IUQoloMsFuGLhfgFnrg5jrgdK9HuXsN3J6NcIu9kvxDiCZjodqfP0akjwb4LtSy8J7wKoEuItITaH93SMkfGMIMwFYmTyt1AjcAuKH1lTsP0qROA+F4AAcD2N55vasZeFIRHnbL1h09Hz553bDGFUKIpGOAdRmsXbDrANoBuw6YnfDt4SqGjCbjSYCf5Hk8BkqdycQnAHQ0gB2387AcmF5kxY8o1nNoMuZVM/bwCoAtdHzotJcBvAygDczU+tq9u7ll3o1INxJTA4g6QG4H2FraecApcki6EEIMhST6RKIDsRbQvwHwG4DB8zECCntD2S1gbgXQC7g9IKzAJKwgqv3VUHUBsBUi7gCWo/JHiECNa6nH5VMnBzpmydVY21PAE8vX17RRjkgwSfRiO+gAtAN4wc8tebwpAIQwaKemOnzt8AnGxn9m5QZ878FXMW91h7EYRIhJohchNeRFgEKI/h0+bgfce94xOHOyhw0yItJYu9CFHjjdG1DuXg2nZwPcXAd0sQe6XABrSf7CPJkBEMIDGUvhV6d+GO915fHMyg2mwxGmMMMtdEOX8pAML8JOZgCE8EhKKfzk5A/BVmQ6FGEAaxdOzwboUg6S/EUUSAEghIcm7NCEo/cYbToMETRmuL3tlal9ISJCCgAhPHbCXttr3xVx5Ba6JPmLyJECQAiP7dqcNR2CCFBlF7686TCEGDYpAEQodBfj8+nJ5dru//bW8Fx0lrw/X6SnXH08HQVv4qnlSOIuj2IYiC7l5Ja/iCQpAEQovNOVqzlxhsWKzlxNj3+7o/rHL2/vrWns/qxorz6eFR3exFPtc8o1PHaoA+hywb/rC+EjKQBEKHQXHTwbk/a5h95cY+Txq7sLWLCms6ax+/Pg0uriWbqxB8s8KkgefHN1VY975b12rO8tehJDf1iXgZgUriJ5pAAQofHr5940HULNXnq3HU+vWF/TNd5q78F9b7w37Mf98rklvsxEz1/dgcffHv75Xb98ZolnMTy1fD1eXLVx+DE86+9ritn19fpC+EkKABEaDyxZjVmL3jEdRtVyZRf/ed8rniTh7zz4KjbkSkP+/hdWbcTN/1zmwcj9u+yB+egqDv1e+uNvr8P/zV/h2fgM4FsPzEe+PPSEe98b7+Gu11Z5FkO/5MO/iDApAHzARHLccZUuveflqj79mtZVLOO8O57Dqx5Nwa/szOFzM5/B2p7B7y+/9G47zv3bcyi5/p35vmRDN74w81lszA9elDy9YgMumPW852s65q/uwLl3PDekBaOPLF2Dr9z1T9/zMyl5Cw2IHLThA8t0AHGUOu5sB4RzTMcRRY5m3Pnau1jdXcCUHVvQlEmZDmm7XGbcvfhdfGnWC3jlPW/fo97rLuBvC99BazaFiaOaYW2zw2BHoYyfPPUGvn7fK8P6dF6td7rymLXoHYyqz2CfUU2waOt41ueKuO7xxbjsgfnIDeOT+nC83d6LO19bhbGNWew9qhFqmxjW9BRw1dxF+P5DC1D0sSDahIigS94vvBRbo1Tm5/zknCdMxxE3smepT9Jts34Aou+YjiPKFBEO2qkVE0Y1YXR9BhSiV2u+rPFudw7PrNgwpE/FtWrK2Dh8t1EY11yPkuNiWUcvnlu5EWXtf5LrT2tdCofvNgq7NGeRL7lY1tGD51ZuDLSTY4f6NA7fbRR2asyip1jG0vYevLiqHTrgRXlO70aw4/9rIKmUnXnGvf6CI0zHEUchekuNn8xVd+4LrU9h8GSA9gcwCUCj6biEEN7RpQLcvMxQe4IUE1k5UvQelL0YRP/rXnPuvabDiispAAJW33bnzhq8HxNPBmM/EE1m8AEAmkzHJoSojtOzEezKLMCQEYHIypOy1oDUErbUi0qrR52l6Yfx12nSWhEQKQBCQgoDIaKLtQOnZ4PsCdAPUlYRylrHUEtJ0UvE9JibXfZ3tLXFZ/vPiJICIOSkMBAiGnQpBzffZToMYyTRR48UABElhYEQ4ePmOmK/NbAk+viQAiBmpDAQwiDWcHo2gHX0b2NLoo8/KQASQgoDIYLBbglO78bI7BIoiT65pABIMmaqmzFndyZMYuajQPQ1SJuiEDXThR64xR7TYfRL2ZlnWFn3Kaa5Tvacp9FGZjaTEMZJASA2S82YczGBf2M6DiHiwOnZAHb936FxOCiV/bO+7vzPmY5DhINsZC02KzeVbgfQbjoOIeLAqm9BqLavhGLtpP/NdBQiPKQAEO/7+rQ8M/5oOgwh4oCUDasuPEtsyE4vwI8/X9tZ1SJWpAAQWyFFN5iOQYi4UOl6qFSd6TAAAKToGtMxiHAJ0/yUCIn0jNnPATjMdBxCxAIznO51YDa31o5Uqlf/94WywFdsRWYAxAcw8EvTMQgRG0SwGlrNftxKpf5gcHQRUlIAiA8oj137Z4BXmY5DiLggKw0r3WBocKV1Rn/bzOAizKQAEB908cVlEGQtgBAeUpkmkJUKflw7/Tjapst5xeIDpAAQ/SrZzv8CFO9NzYUIEploDSRYlnNpgAOKCJECQPTvO9PWMfGzpsMQIk6Cbg0kK9VR+uFF8wMbUESKFACif7/9bYoYe5kOQ4i4CbQ1UDtNaPttfTCDiaiRAkD0K/3e6DYAu5mOQ4g4srLNIGX5Pg6ztqxc6iHfBxKR5P8rUESOfeWcowm4EVIgCuEPIpCdgi7nfR+KtTtOHfvZHn5yzjO+DyYiRTYCEltrm92aJrwCYHfToQgRd7rQDbfY6/s4RJarVWoSfjR9ie+DiciQT3hiK2nQ/0KSvxCBCKo1kNm1FNxHfR9IRIoUAGKz1JWzzwfxv5iOQ4jECLA1kN3yzuqy237n+0AiMuQWgAAA1LXdsZcm9TKAZtOxeIsBZgAUsqNZRWgxA+C+10swrxldysHNdwUylpVu/KRz7Tn3BzKYCDV5RxRA21w7TZ1PAPxR06F4RRfz0E4O7JQ3f40sG2TXwcrUAySTX2ILrKFLvdDlIth1Nn+Z7BSUXQ+VyfoegpvrgC77v/cWWXZON7TsiLZpPb4PJkJN3gUF0mifEZfkz9qB07MBbqFzq+QPAOw60MUelHvWQztFQxGKsNFOCeWe9XALvVslfwBgpwy30Amnez1Yu77GEVhroOvUW7mef/g+kAg9aQNMuDi1/LF24fZuHPyNmhlcLoKUZWRvdhEeulyAm+vom/bfDtbgcgGUqgP5NXtEBFg2OIBZANbuODX17C5+Yrbs9plgcgsgyeLU8seA07sR7JaG9TAr2wyVlo3Skqia++5kpWE3jPT1ndPNtUOX/Z+hktZAEflPfaJ6cWr5025x2MkfANxCVyB92CJc3GIv3MLwF92xW4J2/U3OKtPo6/U3kdZAIQUB4H84AAAgAElEQVRAQqVmzJkep5a/qqdNubIZiy70AIPMAosYYEAXeqAL3VX/vP2eoicrBbJsX8fYhN3yzuq/br05kMFE6EgBkEB1bXfsReCfmY7DS9su3hout9gztHvBIrqY4eY74BZrW/xe62ttKMhK+z7GJlzMT7e//ftPBDagCA0pAJKmba6tyfoj4tbvz7rmS2inACe30ZNriZDRGk5vuzdtdgG8PoKaAdhEO8W/4Ru3NwQ6qDBOCoCEiVPL31Y8WpnNThlOz4ZAPuWJYLDrwOndUNUakX4FsYeECvatmXW5wVLOg4EOKoyTNsAEiVPL3wdoB+yWB/++oWCGLuWkTTAGKm1+7Z5+arfSdSA749n1+sPaDaQdcJsxpTUwYaQNMCni1PLXD3bLcHo3eL6QT6XrYdU1yTbCUcMMt9gFXfT4uF0C7IZRvk/R62Kuqi6FWklrYLLE75Og6FecWv76Q1YKKuX9dq26lOvbX0BuCURFZcp/o/fJH4Cys4Hcn2c283qrtAbquUYGF4GTAiAB4tbyNxCrrtmXKftNswu6mJNWwTDjyifnyv1+j24HbYGsFKxsMGtnOYCNgAYc2y3tIq2BySDzmjHXd8rfKwCaTMcSCK6s9vYjAQCAstNQ2VZQwIu0xPYxu9C5TmjHo4V+2yAr1bcDYCDH9sLp2eD7ONtFiq1swyecq78oZwbEmBQAcRbDU/6GhLlysppfB/4QQdU1wUrVy2+QaQzoch5usRvQ/rTnVbb/bQ3sBEm3tz0Uh1XJqYHxJx9jYiy2LX+DIYJV3wpl1/lzfWbofBec3vW+zTSIwbEuw8ltgJvv9C35KzsDu2FEYMlfO8VQJH9ATg1MAmkDjKlYt/wNBRFUug5gx78FfKyhSwUQuLJzm3QKBIMZutANN98N+HhEr0rXwaofEdjPtXKaZTvCtNCEtTtOHfvZHn5yzjOmYxHek3esOIp5y9+wcGWbX13j9q+DIgWVqYcV0EEuicSALucqW/n69Il/EytTD1UX3GaZzC7cniEcZW0AkXJ1qn4irj3nTdOxCG8Fu9+kCESl5Y8l+QMAAVZdI0ipYR/9OiysoQs94FIeKtNYaUmU8tobfff5dbEnkAQZ9BHRrDXc3vZQJn8AYNaWcouPaWAX07EIb8lbVMykZsyZTmBp4ekHO2U4Hu8KNxBSFlSmASqdhfyaVU+XC9CF7mCSIylY9S1QPu/yt6VK8t8I1uHfZ4Iy2Vv0NedfYDoO4R15Z4qRzFWzx7PGy0hKy18VKvdZO8A6mMV7mwuBVFbWCAwVc98n/t7APhWTSsFqaAWp4JZFRSn5b2KlGz/pXHvO/abjEN6Qd6S4SGrLX5XcfCd0yfud4gZEBCudBaUbAk0yUcKsoYs56FIu0BMZVaoOVrYl0AItiskfkNbAuJE1ADFRafkjSf5DZGVbQCoNt9gFcACrrpnhFnNAMQ+VyoDSWSg7DanBGdopgYv5vva3AFfAE8Gqawr0fj8Q3eQPvN8a6AJHmI5F1C7p7z6xYF8552jFPBfS1jls7Jbh5jqMLMAipaBSWVA6C1LJqsXZdcDlPHQpDw7w0/4mZNmVIjDg0x6jnPy3ROnsN/S15//YdByiNlIARJ20/NWOGbrYDbdkbq9/UlZlZiCVBalULH8z2S1Dl4vgcsFoAlSpbGVP/4DXZMQl+QNyamBcJOtjRwxJy58HiCo933YGOt8J9rnHvD+s3b5bBDmQskCpNMiug7JSge1C5znW0G4Z7BTA5ZLxNjciBRXwKv9N4pT8gU2nBqpHpTUw2mL4OSM5pOXPB6zhFrqDXSC4PVRZoa7sNGCnQCod2oOIWGuwLgFOuXJfX5dDs6mdSmdh1TUZKabilvy3JK2B0SYFQERJy5+/tFOEzncZ/9TaH1JW5d61SoFsC6RSfUVBUL/O3Jfsy2DHBXQZ7JZD+lzZUNkmI5/6gXgn/02kNTC6pACIImZKXznnKQCHmw4l1pihiz1wi72mIxkSUlZlMaFSgLJAZAFEIFKVrxGBNv/Kq/d/+xkAdN//ZUAzwLqyOI8ZzG5lz32twdoJZaLvj5VpgMo0Gtt/gbmyt79vZ1GEBCm7Rzde2II2Cv7emaiJrAGIoLor7zpOS/L3X9+xv5TKQhe6Q3NK20BYu5FJzn5SdgYq22x0v4WkJH8AYO00qtLvL9XAT03HIoZHCoAIcklPoJDcW00CsmxYDSNAbgk63y1HAIeU6en+TZKU/DfT+mDTIYjhkwIgglirxSSzbYFTVhqqcQfoUi7QbWrF9lW2W27sO3fBrEQmfwBg+znTIYjhkzUAUcRM6avm3A/GiaZDSTJdCu6EOvFBpCxQpgFWwDv5DSSpyZ+s9AbdcMEYWQMQPeHsJxLbR8SldHkaAKm6DVLpLOzG0X3bCssmjEEhZUFlm2E3jQ5P8tcabk8Ck7+y8hrWRyT5R5PMAETZtTNb0sXUAwA+YjqUxGNAO4XKrQFZI+ALslJQ6QaoVF2o3rmS0OrXH1JWXlN6Cn50/lLTsYjqhOjXSFRFioDQYbdcOdXOyYdmI5zIIkBZGahMI8gOdt/+oZDkL8k/yqQAiAMpAkKJ2YUuFcDlfOKmhmtFlg1KZaHSdZX9DEJIkr8k///f3r1HyVHVeQD//m71YybJhIRHggisQhISggQE11cWCAgoukoQousuEMyDxwrLWXENvogICoicVYgEwkMF3UNkCSzqLhqY+MAHDzXREPJgV0ACAfKcmcxMd9f97R+dhgFmMj3TVXWr+n4/5+SQA+l7f0y66/ftqnurso4BoFkwBKSahmVouRthuQdw8KyBTBADkytCCi0wQTHVRyc2fzb/ZpDijxgNGUNAJthKL1DprZ4dcPAo3GEpl6q/dt0RECJAkIPk89BcYfh326s1/Xyxun/f0V37hoLNn82/WaT/00ZDwxCQHQrYsFR9PG6lN5XbCaW3G9jZVW38AzEGaB0JbalvRb6YAJIrQvItMLk8snQYYvNn828m2fnkUf0YAjJJbVgNAuUSrC25vVSgCnRsg5RL9b8ml4eO2gMIXnfN3hiYoADJFaqNP6NbJtn82fybDQNAs2IIyDzVEFopA2EJNixXf58EayHbt+z+W/9AxACj94S0VlftS1D9lXVs/mz+zYgBoJkxBDQX1erT+MIKsOuf1afzWUS531C2bwHqCRtBAA2C6lqAIAcN8tVv/yIwhVYELaMzcU1/MGz+bP7NKvufTto9hgAPaDUEqH0lEIgNobrrsb6oPta3+mhffeU1qP1eBLVDgZR6gK4OQARqBIABArPrkcIBYAzUBNXfD3L0EBMgaB2Tyv379WLzZ/NvZgwAPmAIoHooUOl8KdrFiAIExZEwxVHI2uGGzZ/Nv9nxWQA+WDBre6lYPhl8dgDthg1L0e9EUCDs6UKla0sqdzkMhM2fzd8HDAC+YAigQWhlCCv+hzx2GZXOzbCl7tjmiAqbP5u/LxgAfMIQQLsT9+2K1SLs3o6waxuQ0hsgsfmz+fuEAcA3DAE0ALXJbDO0lR5UOjdDw/jOOAwHmz+bv28YAHzEEED9UE3uGr3aEJWuLbA9nal4YiKbP5u/jxgAfMUQQH1oWEm+ESsQ9nai0rXZaeNl82fz9xUDgM8YAmgXDRO6y+AAc1cXCO5Mfm42fzZ/jzEA+G7BrO23ffhtn566d5tfR0B6LdcNUBVh945EFwj62vxbCkW99H3v+gc2f8rWnTkocms3bZ2mKss7SpW9z//xSqx6cYfrksiBsGsbbKXHdRkAdt1BcMQekKAQ2xy+Nv/WYhH3zT4ZB+wxchssTpy835jHXNdE7vAMgMdqzR/A3m2FHG784DQcPm6067LIgaR2ANQj7gWCbP4jAWAMDH725MZtR7uui9xhAPBU3+Zf+3cMAf5KcgdAXWJaIMjmP7Lvv2YI8BwDgIf6a/41DAH+cbIDoE5RLhBUDRHu9LP5/9c5b2j+NQwBHmMA8Mzumn9NWyGHb58yDYft430IeFah7QB6XRcSJ5c7AOoyvAWCvSpYAeBZoBpyws4t1bDjkRHFFtz/yfdj/9H9Nv8ahgBPMQB4pJ7mXzO6mMNNH5qGt/l5JkBV5VslLU8oX3ba8QXVAwFZAOCvrguLRUa+EdfuIGjLA+cxBV4E9OogyB1c/tLMGSUdc5CGpeurlxJSdpkjZq3FIu495yS8uW1EPX+cIcBD3AXgiaE0/7529FZw3o9X4s8vebM74K9GcWbPwpkr3vBfFi4t5CX/MQE+BeBvE68sJuHObbDldOwAqJcEeZjCCJh8ERADAI+oyKLymMJduOiUNyQEc+kd56Pc/S21YS75apNXPe3/fuw/uq7m3xd3B3iEAcADw23+NR2lagj4U7NvERTcU8rpfHzutM2D/dHCV+6ZAouzAZkLYK8EqotNpeOljH47Nhrk82tQHHVx5fJZPxv0j19x2wFmh/5CK6W3xF+bO63FIu6dfTIO7P+afz0YAjzBANDkGm3+NU1+JqBTgYvLl828dcivvG5pa74jP1uAawCMir60+JV3vJDaRYD9EqNSKN5lS4UL8Y1PvDzUl5sF312ipZ45gG26418D3/xfjyHAA033AaBXRdX8a3b0VjD/RysrT7y8o5lOoz4mJvxE7xdPX9/IIIUv33sFoJ+PqqikaFhBpXPIPdQpkyv+Jrzmk+9pZIzcF+44zpZ67tdKJZOhrT8thaLe/8n3SwTNv4YhoMlxEWCTirr5A8DoltzWT7/noBMBPBLVmA7VFvq9t9HmDwACfTiKopKW+h0A/VAEDzQ6RuWKM1fYEbl9kGv5eRQ1uSYm6J7zrmkf2H/0iBciHJYLA5scA0ATiqP5Q7AVIU4688i3rigVyych2yHgWaM4vrzw1H/BwlmRPJTeaG51FOMkLiM7APoy+XDw6/31WHhOj15zznGmZcQ8MUH2ktAuYoJum2s9/IZTj3rA2OB4AAwBVBcGgCYTZ/N/5VRg9SmC2QwBgntKeT2y31X+Dei+7EPPAuiIcswkaJixxX9itJI/57dRDhl+9exb7JjcwZIr/CXKcZNQa/646swNADBpv7Y1DAFULwaAJpJI86/JXgjoFuDi0pdmfrSeVf5DJqIA1kQ+bszS9AyAeogEO7FQon9c4Bc++ay9Zs5bpTDyZsBkYknk65t/DUMA1YsBoEkk2vxrshMCHhPVI3ovm/nNeKfRbF0GUIXaZB69GxUx8nyc49urzjo3yLceI0E+1dtdBmr+NQwBVA8GgCbgpPnXpDsEvLrQb+Fp6+KeTMQ8EfccUaru/c/El91XiVkb9xSVq8/6lR0ZjE/rAsHBmn8NQwANhgEg45w2/5p0hoDIF/oNSrN1BiCTOwDUPJrIRLUFgsWR89O0QLDe5l/DEEC7wwCQYU9u2nK48+Zfk6YQENNCv8FkbieAzzsA6hR+7awlaVkgONTmX8MQQAPhjYAy6slNWw6HmgeRhubf11VL9yj05n8KN/fK7xbg0viv9Q9AVQqX37sdQJuT+Yco7NoGW8nQMwDEqLbNz8WyCLAOZsH3btJS9zwXdxAcbvPva93GjinWhA8B2DfC0nizoAzjGYAMSm3zB1yeCUhood9uZGwnAHcADI2rBYJRNH+AZwLojRgAMibVzb8m2RCQ6EK/OsrJxmUA7gAYlqQXCEbV/GsYAqgvBoAMyUTzr0kmBCS/0G8QWdkJwB0ADUhogWDUzb+GIYBqGAAyIlPNvybOEOBood+gMrITgDsAGhfnAsG4mn8NQwABDACZkMnmXxN9CIj3jn4NysxOAO4AiEbfOwhKNHcQjLv51zAEEANAymW6+ddEFwLcL/QbRFaeCaBhxgJADM8AiJK96qxzg1zjCwSTav41DAF+YwBIsaZo/jWNhYCULfTbjUzsBFDYjF0CcL0DoB6NLhBMuvnXMAT4iwEgpZqq+dcMLwSkbqHf4NK9DsBWyoCmupe+UWCc7wCoyzAXCLpq/jUMAX5iAEihuJq/him4YcdQQkBaF/oNQiCpDgDa2+W6hCETSDp2ANRpKAsEXTf/GoYA/zAApEyczX/KfmMej2zMRgweAlK90K8Oqd0KaCsl2LDXdRlDppKuHQB1qWOBYFqafw1DgF8YAFLEi+Zfs2DW9pLiZAh++tr/IL8VE05L80K/waR2J4Ba2J3bMrf9HwCMyoOuaxgue9VZ5wZB8UQJcq9ZHCq5wmbb0jI1Lc2/hiHAH3wWQEp41fz7UpXcV+6bLmonqwZrKws/8gvXJTWs+kyAbQBGuy7lFWpR6dqayf3/rp8BECXz2TsvhITvgJHf2cKZN6b5/4nPDmh+DAAp4G3zb2KFLy/7LYB3uq4DqN71L9y5LZvNH4CYfJe9du4o13X4iCGgufESgGNs/s1K3a8DUEXY24VK58uZbf4AsrMDoAnxckBzYwBwiM2/ebnaCaBqYSu9sD0dKHe+BNvTAWgGL/r3kbUdAM2GIaB55VwX4Cs2/+ZW7unIa6k74VltJhf4DSaTOwCazKT92tas29hxfMSXA2ohgJcDHOEZAAfY/JtfEBZWQC2S/eX6/zoeRnS56xqIZwKaEQNAwtj8/VAe8bFHgGgeDuM1MVopnv0b12VQFUNAc2EASBCbv0cWihVjsnfLvZTJwjMAfMMQ0DwYABLC5u8fYwKuXm+QGOHPMIUYApoDA0AC2Pz9pCJPuq4h88RwB0BKMQRkHwNAzNj8/aUmGM6jj6kPVe4ASDOGgGxjAIgRm7/fgrDA1esNMgF3AKQdQ0B2MQDEhM2fuBOgQdwBkBkMAdnEABADNn8CwJ0ADeIOgGxhCMgeBoCIsflTX8bkNrquIauMMfzZZQxDQLYwAESIzZ9eTwVcxT5MKrLOdQ00dAwB2cEAEBE2f+qPQrgTYJj4s8suhoBsYACIAJs/DSTQFq5iHyZj8KDrGmj4GALSjwGgQWz+tDvcCTBM3AHQFBgC0o0BoAFPvLh9YuTNH9gs0Bls/k2COwGGhTsAmsek/drWQOzJAF6OcNgxMPifNS/tmBThmN5hABim9eu1aKzeh6ibv+gJh4wfuzLCMckx7gQYOu4AaC6Tx++5CmJPQLQhYC8J7X3r12sxwjG9wgAwTJW2HfMBTIlwSDb/JqUGa1zXkDVq+AyAZhNTCJgctu04N8LxvMIAMEwiOju6wbBVLU5m829OAvk2xHUVGSPmRtclUPQmj99zlbHBMYhwTYBqhMdiz/CwNAyPbdw4YpQZ0Ylofn785u+BYMF3fmlL3dNd15EFJtfycHjNOfxZNbGIF09raEqjp44b1xnBWF5hABiGdZu2HWQVT0UwFJu/R8yl31sAW/kEVMcmNWdbMT96ZD4/ejiv7SqXd3T0lndEXdOARLbC5H5gv3bWVYnNSc5EGQJCIxOnjttjQwRleYUBYBiefG7HIQhsY89651Y/SsCa57cuFJHLhvNaVf3ylDeNXRhxSUSvWLexY4o14UMA9m1knECDqRPf1PZERGV5g2sAXGDzJyKK6z4BVCcGgOR1cJ8/EVFVn/sEdLiuxTcMAMl7jtf8iYheNXn8nqsU+qzrOnzDAEBEROQhBgAiIiIPMQAQERF5iAGAiIjIQwwAREREHmIAICIi8hADABERkYcYAIiIiDzEAEBEROQhBgAiIiIPMQAQERF5iAGAiIjIQwwAREREHmIAICIi8hADABERkYcYAIiIiDzEAEBEROQhBgAiIiIPMQAQERF5iAGAiIjIQwwAREREHmIAICIi8hADABERkYcYAIiIiDzEAEBEROQhBgAiIiIPMQAQERF5iAGAiIjIQwwAREREHmIAICIi8hADABERkYcYAIiIiDzEAEBEROQhBgAiIiIPMQAQERF5iAGAiIjIQwwAREREHmIAICIi8lDOdQFZl+vYjOLGtShsfgb5bZsg5R6YUjfC1jbYYivKY/dHae8D0fvmKbD5outyyVMWwPpeg/W9gr+UDF6qCLqtAABajWKfnOItBYuJRcWkooW4LZc8pmWg+7kyel+qoLQlhO1V2B4LyQuCvEFurEFxrxxa3hwg1xa4LjfTGACGYdx/Xz/BtuQxcu3DKLz8dF2v0aCA7gMOxc6J7x6jc6buKbeu3hJzmeS7ds19Z0vXxNW9AX7dZbA1rK+tjw0U00daHNqqE7BUA8ySMOZKyXM/Ov/psVse7hnbubYH3c9WoKHW9briPjm0TS4AKgcDeCLeKpsPg/4QlC+YNiOw+LyKnNDYSNoDMbeYivm63Pz4M9FUR7RLu7YA5bkiuATA3zQ42tMKXIOd+VtxivRGUR5Rzf3znzqwAvsZQOcAaG1wuAcNzJUfuXlCexS1+YABoA563rQ3W8HXADkz4qG7IbjG7BxzlXxnRU/EY5OPHiqfIEYXATgk4pGfUjEX4djcTyIelzx00/zH8uN09AUQXAlgZKSDC34ECS+cuXjKXyIdtwkxAAyicsG000TlVgBjYpzmCWN0lixauTrGOaiZtWuLkfLVClwU5zQC3GFH5c/D0bIzznmoed0zb80kkeAuAEfEOE2HAOedevOkH8Q4R+YxAAxAAbHnH3ktoP+a0JQdVvWM/OKVDyQ0HzWLdt1XpPwTAEcmMp/gcS3nP4j3yaZE5qOmsWz++pMAvRtAWyITqlx36pIJlwikvkUFnmEA6IcuhLGbjrgdwFkJT11S1TNzi1cuTXheyqpfdR8oleAhAAcnPPMGzYUnYHor17BQXe49d/3pqvp9AIVkZ9Y7Vu43afbChWKTnTf9eB+AftgXjrgOyTd/ACiIyJ3lC97+fgdzU9a0695SCR5A8s0fACZIJViOh3Wcg7kpY5adu/YEVb0TiTd/AJAzD9+4/tvJz5t+PAPwOuF5R14E0W86LqPDGD1aFq1c57gOSqt2zYmUHwRwjPNKXsyfyK2CNJBd1/wfQ1Kn/QciuGjmTZOud1pDyvAMQB96/tuPgujXXdcBoM1aWaoXTuCdg6hfxpQug/vmDwAzsE/pi66LoHT6yYXriyLBUrhu/gCg+PqyuRuOcl1GmjAA7KJnnBFY2CVwcoqqX9NsZeRnXBdBKdTee5iqfNZ1GTUi8nn8ovdw13VQ+vT04LMAprmuY5cijN7evrCdN8DbhQFgF7vXhvlIahV13eRzesFhB7iugtJFjNwAIO+6jj5yonKd6yIoXe6f/9SBIrrAdR2vpW/btnH/ea6rSAsGAAA6/6g8RFPzjaqPVqsBzwLQq9rLx0FxrOsy3kBxAlaU/851GZQe1Tv8NXx3vxjopUvPWJ2WM71OMQAACI39OBq/ZWpMZK7Ombqn6yooHcTYS1zXMBABGFYJQPXe/rtu75tGBxT2zH3cdRFpwAAAwAhmu65hN1ptoTDLdRGUAst1PFROdl3GwPQDWK7jXVdB7pXD0seRym//VariYpt36ngfAHTuYeMVepzrOnZHoR9zXQOlQL58OtL9BM8cgvJM10VQCqim/UvLjPvm/q/3YdX7ABDm8jOQ8p+DAO/RSw6P9oEZlDmijT6FMn7S8JMyKevun79xBATvdl3HIEwo5Rmui3At1Y0vCWLwXtc11KGAruBo10WQazrddQWDUy4E9JyVzqMBpP4eJkZMBj5P8WIAsHaK6xrqYYFM1EkxWa57AdjHdRl1GI9fKxeteiwEDnVdQz0UOtl1Da55HwBUxMV91IdO7ATXJZBDppydv/9SORufKYpLRv7+NTufqZh4HwAAjHFdQF1U9nBdArkk2XifAshWrRQ1g6wcq/g+ZQAAMrK4TtzfS5vcMXaE6xLqZ0e5roDcUdWMHFPh/fuUAQDodV1AfbTHdQXkkA1KrkuoX8D3qsc0M8fUzNQZGwYAoMN1AXURyUadFI9As/P3rxmqlSJnMnJMFegO1zW45n0AUOBZ1zXUR592XQE5ZCvPuC6hbqbM96rPNBvHVFXJzmcqJt4HAIGudV1DPVRlnesayKHjWp4B0O26jDrsxDGtf3VdBDlkJBPHVIh6f0z1PgAA5lHXFdQjCPCY6xrIIREL4HHXZQxK8ChE1HUZ5I6EwSMA0v8eEHnEdQmueR8AjLEPua6hDk/IDX/Y6LoIckug7a5rGIxCUl8jxesjtxy0CcCTrusYTGAlC8f+WHkfAGTRytUA0n7K6j7XBZB71kr63weh3uu6BEoBkbS/Dzb8/ZIJT7guwjXvA0CV/MB1Bbtj1Ka6PkrI8YXHAfzZdRm7sRrHF1a6LoLc01DvcF3D7qjKHQJeqmIAAGAkdzNSusBKgOWyeFWaD/qUIFUscl3DQFTx765roHQ47ZZJawAsd11HfwToCcLwFtd1pAEDAAD59qMvALjNdR39EcgVrmugFOnO3w7Ic67L6MczGJf/nusiKEWMXOm6hP7JrR+5bTLXVIEB4BXGFC4DsNl1HX2JYJnc+Iefu66DUuQU6VW1C1yX8Xoq+m+YKhm6WyHFbebiiSuA1K0F2GqNXO66iLRgANhFFj2yGcDnXNfRxw6pBBe7LoJS6LjC9yF40HUZr9Kf4tjiXa6roPSxYfliAKm5456qfva0xRNedF1HWjAA9BHc+MebofgP13UAgCoukJsf9/5OVdQPEdVy/h8BfcF1KQBe1FzlHNdFUDp99NZDn4bKPNd1AIAq7j5tySFLXNeRJgwAr2NscD6AVY7LuDa3+I/fd1wDpdn7ZJNa83EALh+806OQ0zF9JK+n0oBmLpm4FJBvuKxBgVUVCea6rCGNxHUBaaSfOnI/G+ovARzkYPY7zI0rz5Ys3EmL3Pt572micheAXMIzVxQ6C8cVlyU8L2WQQmXZvA3fEdGzHEz/f6Zip3Ph3xvxDEA/5IY/bDSSfy+APyY89SIzfuVsNn+q27HFe1TNTAA7E5x1p1pzKps/1UsgOnPJhNlQuS7JeRVYba0cw+bfP54B2A298J2jtdx7qwpOj3mqXqheEixeeUPM81Czeqh0lBgsRfxnrTaowcdwTOH3Mc9DTVJvnIoAAAGqSURBVGrZ/LWfAuRaAMU451HF3S0tMueU6yemZhFi2jAA1KFywRHzRHE1gLGRD67yexOE82TRKh5QqTE/0z1MvnydAucg+s+2FeA225L/NN4lPKBSQ/5z/vq3G+gSAG+PYfgtqrqAC/4GxwBQJ73wyH1sRS8DdA4gLREM+QxUv2o2T7pFfvjDMILxiKpWlN8t0CsBzIhkPMGDGuLzOL7wu0jGIwKw9AwNCmPXz9Xq9usDGx1PqotSbymXcfms2ye+FEGJTY8BYIj0gnfsa7UyH9B/AjBxiC+3otpuYb4bbC7dJT9czRunUHzaS+8ygnkKnA5g9BBfvV0Ud1vFEjZ+itPSM1YX8nsWZkF1Nqqhdahr09aryp0q5SUfvfnQ56OvsHkxADRA/3naVGvN8YB9h0IOEeiBgIwCMArAVgDbRfUpNWaNwv4qsNoui1fxJhSUrHZtgVTebWBnKMxhgB4CYF9U36cA0AngeUDWCeyfrJp2dOd+g1Ok113R5KN7ztswzmg4Q9VMB3QKgIMB7IHq5ddOgXaqyjMQXQuRRwMrD314ycTVbqvOrv8HqjzQ8xX/KKUAAAAASUVORK5CYII=;" parent="1" vertex="1">
          <mxGeometry x="-71" y="1181" width="62" height="62" as="geometry" />
        </mxCell>
        <mxCell id="VDSIXk6-y_P9sWDttT4S-13" value="CRM" style="text;html=1;align=center;verticalAlign=middle;resizable=0;points=[];autosize=1;strokeColor=none;fillColor=none;fontStyle=1" parent="1" vertex="1">
          <mxGeometry x="-67" y="1109" width="50" height="30" as="geometry" />
        </mxCell>
        <mxCell id="VDSIXk6-y_P9sWDttT4S-14" value="ERP" style="text;html=1;align=center;verticalAlign=middle;resizable=0;points=[];autosize=1;strokeColor=none;fillColor=none;fontStyle=1" parent="1" vertex="1">
          <mxGeometry x="-63" y="1251" width="50" height="30" as="geometry" />
        </mxCell>
        <mxCell id="VDSIXk6-y_P9sWDttT4S-32" value="&lt;font style=&quot;font-size: 22px;&quot;&gt;Data WareHouse&lt;/font&gt;" style="text;html=1;align=center;verticalAlign=middle;resizable=0;points=[];autosize=1;strokeColor=none;fillColor=none;fontStyle=1" parent="1" vertex="1">
          <mxGeometry x="430" y="791" width="190" height="40" as="geometry" />
        </mxCell>
        <mxCell id="VDSIXk6-y_P9sWDttT4S-42" value="&lt;font style=&quot;font-size: 32px;&quot;&gt;Data LINEAGE&lt;/font&gt;" style="text;html=1;align=center;verticalAlign=middle;resizable=0;points=[];autosize=1;strokeColor=none;fillColor=none;fontStyle=1;strokeWidth=5;" parent="1" vertex="1">
          <mxGeometry x="398" y="701" width="233" height="50" as="geometry" />
        </mxCell>
        <mxCell id="VDSIXk6-y_P9sWDttT4S-52" value="" style="rounded=1;whiteSpace=wrap;html=1;fillColor=#f8cecc;strokeColor=#b85450;shadow=0;glass=0;sketch=1;curveFitting=1;jiggle=2;" parent="1" vertex="1">
          <mxGeometry x="142" y="935" width="170" height="488" as="geometry" />
        </mxCell>
        <mxCell id="VDSIXk6-y_P9sWDttT4S-54" value="crm_cust_info" style="rounded=1;whiteSpace=wrap;html=1;fillColor=#f8cecc;strokeColor=#b85450;" parent="1" vertex="1">
          <mxGeometry x="167" y="980" width="120" height="38" as="geometry" />
        </mxCell>
        <mxCell id="VDSIXk6-y_P9sWDttT4S-55" value="crm_prd_info" style="rounded=1;whiteSpace=wrap;html=1;fillColor=#f8cecc;strokeColor=#b85450;" parent="1" vertex="1">
          <mxGeometry x="170" y="1031" width="120" height="38" as="geometry" />
        </mxCell>
        <mxCell id="VDSIXk6-y_P9sWDttT4S-56" value="crm_sales_details" style="rounded=1;whiteSpace=wrap;html=1;fillColor=#f8cecc;strokeColor=#b85450;" parent="1" vertex="1">
          <mxGeometry x="170" y="1082" width="120" height="38" as="geometry" />
        </mxCell>
        <mxCell id="VDSIXk6-y_P9sWDttT4S-57" value="erp_cust_az12" style="rounded=1;whiteSpace=wrap;html=1;fillColor=#f8cecc;strokeColor=#b85450;" parent="1" vertex="1">
          <mxGeometry x="168.5" y="1167" width="120" height="38" as="geometry" />
        </mxCell>
        <mxCell id="VDSIXk6-y_P9sWDttT4S-58" value="erp_loc_a101" style="rounded=1;whiteSpace=wrap;html=1;fillColor=#f8cecc;strokeColor=#b85450;" parent="1" vertex="1">
          <mxGeometry x="171.5" y="1218" width="120" height="38" as="geometry" />
        </mxCell>
        <mxCell id="VDSIXk6-y_P9sWDttT4S-59" value="erp_px_cat_g1v2" style="rounded=1;whiteSpace=wrap;html=1;fillColor=#f8cecc;strokeColor=#b85450;" parent="1" vertex="1">
          <mxGeometry x="171.5" y="1269" width="120" height="38" as="geometry" />
        </mxCell>
        <mxCell id="VDSIXk6-y_P9sWDttT4S-65" value="" style="edgeStyle=orthogonalEdgeStyle;elbow=vertical;endArrow=classic;html=1;rounded=0;endSize=8;startSize=8;entryX=0;entryY=0.5;entryDx=0;entryDy=0;exitX=1;exitY=0.5;exitDx=0;exitDy=0;" parent="1" source="VDSIXk6-y_P9sWDttT4S-11" target="VDSIXk6-y_P9sWDttT4S-54" edge="1">
          <mxGeometry width="50" height="50" relative="1" as="geometry">
            <mxPoint x="-26" y="1325" as="sourcePoint" />
            <mxPoint x="24" y="1275" as="targetPoint" />
          </mxGeometry>
        </mxCell>
        <mxCell id="VDSIXk6-y_P9sWDttT4S-66" value="" style="edgeStyle=orthogonalEdgeStyle;elbow=vertical;endArrow=classic;html=1;rounded=0;endSize=8;startSize=8;entryX=0;entryY=0.5;entryDx=0;entryDy=0;" parent="1" target="VDSIXk6-y_P9sWDttT4S-55" edge="1">
          <mxGeometry width="50" height="50" relative="1" as="geometry">
            <mxPoint x="-12" y="1077" as="sourcePoint" />
            <mxPoint x="167" y="1050" as="targetPoint" />
          </mxGeometry>
        </mxCell>
        <mxCell id="VDSIXk6-y_P9sWDttT4S-67" value="" style="edgeStyle=orthogonalEdgeStyle;elbow=vertical;endArrow=classic;html=1;rounded=0;endSize=8;startSize=8;entryX=0;entryY=0.5;entryDx=0;entryDy=0;exitX=1;exitY=0.5;exitDx=0;exitDy=0;" parent="1" source="VDSIXk6-y_P9sWDttT4S-11" target="VDSIXk6-y_P9sWDttT4S-56" edge="1">
          <mxGeometry width="50" height="50" relative="1" as="geometry">
            <mxPoint x="11" y="1097" as="sourcePoint" />
            <mxPoint x="187" y="1019" as="targetPoint" />
            <Array as="points">
              <mxPoint x="79" y="1077" />
              <mxPoint x="79" y="1101" />
            </Array>
          </mxGeometry>
        </mxCell>
        <mxCell id="VDSIXk6-y_P9sWDttT4S-68" value="" style="edgeStyle=orthogonalEdgeStyle;elbow=vertical;endArrow=classic;html=1;rounded=0;endSize=8;startSize=8;entryX=0;entryY=0.5;entryDx=0;entryDy=0;exitX=1;exitY=0.5;exitDx=0;exitDy=0;" parent="1" source="VDSIXk6-y_P9sWDttT4S-12" target="VDSIXk6-y_P9sWDttT4S-57" edge="1">
          <mxGeometry width="50" height="50" relative="1" as="geometry">
            <mxPoint x="21" y="1107" as="sourcePoint" />
            <mxPoint x="197" y="1029" as="targetPoint" />
          </mxGeometry>
        </mxCell>
        <mxCell id="VDSIXk6-y_P9sWDttT4S-69" value="" style="edgeStyle=orthogonalEdgeStyle;elbow=vertical;endArrow=classic;html=1;rounded=0;endSize=8;startSize=8;entryX=0;entryY=0.5;entryDx=0;entryDy=0;" parent="1" source="VDSIXk6-y_P9sWDttT4S-12" target="VDSIXk6-y_P9sWDttT4S-58" edge="1">
          <mxGeometry width="50" height="50" relative="1" as="geometry">
            <mxPoint x="1" y="1222" as="sourcePoint" />
            <mxPoint x="179" y="1196" as="targetPoint" />
            <Array as="points">
              <mxPoint x="80" y="1212" />
              <mxPoint x="80" y="1237" />
            </Array>
          </mxGeometry>
        </mxCell>
        <mxCell id="VDSIXk6-y_P9sWDttT4S-70" value="" style="edgeStyle=orthogonalEdgeStyle;elbow=vertical;endArrow=classic;html=1;rounded=0;endSize=8;startSize=8;entryX=0;entryY=0.5;entryDx=0;entryDy=0;exitX=1;exitY=0.5;exitDx=0;exitDy=0;" parent="1" source="VDSIXk6-y_P9sWDttT4S-12" target="VDSIXk6-y_P9sWDttT4S-59" edge="1">
          <mxGeometry width="50" height="50" relative="1" as="geometry">
            <mxPoint x="1" y="1222" as="sourcePoint" />
            <mxPoint x="181" y="1247" as="targetPoint" />
            <Array as="points">
              <mxPoint x="80" y="1212" />
              <mxPoint x="80" y="1288" />
            </Array>
          </mxGeometry>
        </mxCell>
        <mxCell id="AlTGiAluDNjBBWkj0Cvj-1" value="crm_cust_info" style="rounded=1;whiteSpace=wrap;html=1;fillColor=#eeeeee;strokeColor=#36393d;" vertex="1" parent="1">
          <mxGeometry x="430" y="980" width="120" height="38" as="geometry" />
        </mxCell>
        <mxCell id="AlTGiAluDNjBBWkj0Cvj-2" value="crm_prd_info" style="rounded=1;whiteSpace=wrap;html=1;fillColor=#eeeeee;strokeColor=#36393d;" vertex="1" parent="1">
          <mxGeometry x="433" y="1031" width="120" height="38" as="geometry" />
        </mxCell>
        <mxCell id="AlTGiAluDNjBBWkj0Cvj-3" value="crm_sales_details" style="rounded=1;whiteSpace=wrap;html=1;fillColor=#eeeeee;strokeColor=#36393d;" vertex="1" parent="1">
          <mxGeometry x="433" y="1082" width="120" height="38" as="geometry" />
        </mxCell>
        <mxCell id="AlTGiAluDNjBBWkj0Cvj-4" value="erp_cust_az12" style="rounded=1;whiteSpace=wrap;html=1;fillColor=#eeeeee;strokeColor=#36393d;" vertex="1" parent="1">
          <mxGeometry x="431.5" y="1167" width="120" height="38" as="geometry" />
        </mxCell>
        <mxCell id="AlTGiAluDNjBBWkj0Cvj-5" value="erp_loc_a101" style="rounded=1;whiteSpace=wrap;html=1;fillColor=#eeeeee;strokeColor=#36393d;" vertex="1" parent="1">
          <mxGeometry x="434.5" y="1218" width="120" height="38" as="geometry" />
        </mxCell>
        <mxCell id="AlTGiAluDNjBBWkj0Cvj-6" value="erp_px_cat_g1v2" style="rounded=1;whiteSpace=wrap;html=1;fillColor=#eeeeee;strokeColor=#36393d;" vertex="1" parent="1">
          <mxGeometry x="434.5" y="1269" width="120" height="38" as="geometry" />
        </mxCell>
        <mxCell id="AlTGiAluDNjBBWkj0Cvj-7" value="" style="endArrow=classic;html=1;rounded=0;exitX=1;exitY=0.5;exitDx=0;exitDy=0;entryX=0;entryY=0.5;entryDx=0;entryDy=0;" edge="1" parent="1" source="VDSIXk6-y_P9sWDttT4S-54" target="AlTGiAluDNjBBWkj0Cvj-1">
          <mxGeometry width="50" height="50" relative="1" as="geometry">
            <mxPoint x="339" y="1278" as="sourcePoint" />
            <mxPoint x="389" y="1228" as="targetPoint" />
          </mxGeometry>
        </mxCell>
        <mxCell id="AlTGiAluDNjBBWkj0Cvj-8" value="" style="endArrow=classic;html=1;rounded=0;exitX=1;exitY=0.5;exitDx=0;exitDy=0;entryX=0;entryY=0.5;entryDx=0;entryDy=0;" edge="1" parent="1" source="VDSIXk6-y_P9sWDttT4S-55" target="AlTGiAluDNjBBWkj0Cvj-2">
          <mxGeometry width="50" height="50" relative="1" as="geometry">
            <mxPoint x="296" y="1052" as="sourcePoint" />
            <mxPoint x="439" y="1052" as="targetPoint" />
          </mxGeometry>
        </mxCell>
        <mxCell id="AlTGiAluDNjBBWkj0Cvj-9" value="" style="endArrow=classic;html=1;rounded=0;exitX=1;exitY=0.5;exitDx=0;exitDy=0;entryX=0;entryY=0.5;entryDx=0;entryDy=0;" edge="1" parent="1">
          <mxGeometry width="50" height="50" relative="1" as="geometry">
            <mxPoint x="290" y="1100.47" as="sourcePoint" />
            <mxPoint x="433" y="1100.47" as="targetPoint" />
          </mxGeometry>
        </mxCell>
        <mxCell id="AlTGiAluDNjBBWkj0Cvj-10" value="" style="endArrow=classic;html=1;rounded=0;exitX=1;exitY=0.5;exitDx=0;exitDy=0;entryX=0;entryY=0.5;entryDx=0;entryDy=0;" edge="1" parent="1">
          <mxGeometry width="50" height="50" relative="1" as="geometry">
            <mxPoint x="288.5" y="1185.47" as="sourcePoint" />
            <mxPoint x="431.5" y="1185.47" as="targetPoint" />
          </mxGeometry>
        </mxCell>
        <mxCell id="AlTGiAluDNjBBWkj0Cvj-11" value="" style="endArrow=classic;html=1;rounded=0;exitX=1;exitY=0.5;exitDx=0;exitDy=0;entryX=0;entryY=0.5;entryDx=0;entryDy=0;" edge="1" parent="1">
          <mxGeometry width="50" height="50" relative="1" as="geometry">
            <mxPoint x="290" y="1236.47" as="sourcePoint" />
            <mxPoint x="433" y="1236.47" as="targetPoint" />
          </mxGeometry>
        </mxCell>
        <mxCell id="AlTGiAluDNjBBWkj0Cvj-12" value="" style="endArrow=classic;html=1;rounded=0;exitX=1;exitY=0.5;exitDx=0;exitDy=0;entryX=0;entryY=0.5;entryDx=0;entryDy=0;" edge="1" parent="1">
          <mxGeometry width="50" height="50" relative="1" as="geometry">
            <mxPoint x="291.5" y="1289" as="sourcePoint" />
            <mxPoint x="434.5" y="1289" as="targetPoint" />
          </mxGeometry>
        </mxCell>
      </root>
    </mxGraphModel>
  </diagram>
</mxfile>
